<svg xmlns="http://www.w3.org/2000/svg" viewBox="0 0 38 43"><defs><style>.cls-1{fill:#60d5fd;}.cls-2{fill:none;stroke:#60d5fd;stroke-linecap:round;stroke-miterlimit:10;stroke-width:2px;}</style></defs><g id="Capa_6" data-name="Capa 6"><circle class="cls-1" cx="17.83" cy="21.84" r="3.27"/><path class="cls-2" d="M18.93,31.1a7.92,7.92,0,0,1-1.1.07,9.33,9.33,0,0,1-5.17-17.1"/><path class="cls-2" d="M16.8,12.57a8.77,8.77,0,0,1,1-.06A9.32,9.32,0,0,1,23,29.62"/><line class="cls-2" x1="12.66" y1="14.08" x2="9.41" y2="8.76"/><circle class="cls-2" cx="7.71" cy="5.87" r="3.32"/><circle class="cls-2" cx="4.34" cy="32.93" r="2.66"/><circle class="cls-2" cx="28.52" cy="38.25" r="3.32"/><line class="cls-2" x1="26.27" y1="35.04" x2="23.02" y2="29.73"/><line class="cls-2" x1="10.51" y1="27.9" x2="6.65" y2="31.06"/><circle class="cls-2" cx="33.54" cy="14.75" r="2.66"/><line class="cls-2" x1="27.16" y1="19.51" x2="31.16" y2="16.54"/></g></svg>