<svg xmlns="http://www.w3.org/2000/svg" viewBox="0 0 270 35"><defs><style>.cls-1{fill:#fff;}</style></defs><g id="DESIGNED_BY_FREEPIK" data-name="DESIGNED BY FREEPIK"><rect class="cls-1" x="66.05" y="9.29" width="0.72" height="17.69"/><rect class="cls-1" x="132.38" y="9.29" width="0.72" height="17.69"/><rect class="cls-1" x="198.49" y="9.29" width="0.72" height="17.69"/><path class="cls-1" d="M79.8,13.84l-2.11,9.53s0,.06,0,.06h1.88s.07,0,.07-.06l.88-3.81a.08.08,0,0,1,.08-.06h3.14a.07.07,0,0,0,.07-.06l.45-1.53s0-.05,0-.05H80.94a0,0,0,0,1,0-.06l.53-2.25a.09.09,0,0,1,.08-.06h3.25a.08.08,0,0,0,.08-.06l.69-1.52a.05.05,0,0,0,0-.07Z"/><path class="cls-1" d="M121.4,13.78h-1.6s-.07,0-.07,0,0,.06,0,.09l-2,9.48a0,0,0,0,0,0,.06h1.61a.09.09,0,0,0,.07-.06l2-9.53a0,0,0,0,0,0-.06"/><path class="cls-1" d="M94.2,17.54a2.39,2.39,0,0,0-1.91-.81,2.86,2.86,0,0,0-2.16.91L91,14V13.9a.1.1,0,0,0,0-.12H89.46c-.12,0-.16,0-.2.13l-1.41,6.38h0a3.42,3.42,0,0,0,0,.39,3.17,3.17,0,0,0,.41,1.89,2.64,2.64,0,0,0,2.43,1.08h0a3.86,3.86,0,0,0,3.72-2.5v0c.05-.14.11-.3.15-.45s.06-.19.08-.29h0c0-.06,0-.13,0-.2a3.23,3.23,0,0,0,.09-.6,2.8,2.8,0,0,0-.55-2m-1.26,2.62a2.15,2.15,0,0,1-2,1.87,1.28,1.28,0,0,1-1.35-1.52c0-.11,0-.22,0-.34a2.28,2.28,0,0,1,2.18-1.87,1.15,1.15,0,0,1,1,.42,1.54,1.54,0,0,1,.23,1,3.12,3.12,0,0,1-.06.41"/><path class="cls-1" d="M87.18,13.75a1.3,1.3,0,0,0-1.23,1c0,.06,0,.11,0,.16a.83.83,0,0,0,.19.62.8.8,0,0,0,.63.26h0a1.3,1.3,0,0,0,1.26-1,.95.95,0,0,0-.18-.78.86.86,0,0,0-.65-.25"/><path class="cls-1" d="M87.33,16.89H85.74a.18.18,0,0,0-.1.11l-1.37,6.37a.06.06,0,0,0,0,.06h1.6a.09.09,0,0,0,.08-.06L87.37,17s0-.07,0-.07"/><path class="cls-1" d="M101.36,17.45a2.33,2.33,0,0,0-1.83-.72,4.27,4.27,0,0,0-4.16,3.43c0,.19-.06.38-.07.56A2.53,2.53,0,0,0,96,22.81a2.88,2.88,0,0,0,2.11.78A4.12,4.12,0,0,0,101,22.32h0c.07-.07,0-.11,0-.15l-.88-.79a.15.15,0,0,0-.17,0,2.46,2.46,0,0,1-1.76.81,1.23,1.23,0,0,1-1.35-1.36.07.07,0,0,1,0,0h4.61c.17,0,.18,0,.2-.15h0l.07-.35a4.74,4.74,0,0,0,.12-.79,2.73,2.73,0,0,0-.54-2.05m-1.11,1.91h0a.1.1,0,0,1-.07.1h-3s0-.09,0-.09h0A2,2,0,0,1,99,18.06a1.32,1.32,0,0,1,1,.32,1.07,1.07,0,0,1,.26.87s0,.08,0,.11"/><path class="cls-1" d="M111.36,16.77h-2s0,0,0,0L109.7,15c0-.09,0-.1-.09-.1h-1.5c-.12,0-.14,0-.15.09v0s0,0,0,0l-.38,1.72-.31,1.54-.64,2.94c-.05.27-.09.53-.11.76a1.4,1.4,0,0,0,.33,1.18,2,2,0,0,0,1.45.4,3.87,3.87,0,0,0,1.32-.21h0c.06,0,.06-.05.06-.08h0l.3-1.41h0s0,0,0,0l-.08,0a1.81,1.81,0,0,1-.88.2.7.7,0,0,1-.54-.17.64.64,0,0,1-.12-.49,2.09,2.09,0,0,1,0-.32L109,18.4s0,0,0,0h1.67s0,0,.07-.06h0l.67-1.48c0-.06,0-.07-.06-.07"/><path class="cls-1" d="M106.68,16.77h-1.45a2.6,2.6,0,0,0-1.69.76,5.57,5.57,0,0,0-1,2.56v0l-.7,3.24s0,.07.08.08h1.49a.16.16,0,0,0,.15-.1l.73-3.33a4,4,0,0,1,.35-1.08,1.15,1.15,0,0,1,1.07-.54h.64c.06,0,.07,0,.08-.08l.31-1.48"/><path class="cls-1" d="M116.92,17.45a2.36,2.36,0,0,0-1.84-.72,4.27,4.27,0,0,0-4.16,3.43,3.78,3.78,0,0,0-.08.56,2.6,2.6,0,0,0,.67,2.09,2.88,2.88,0,0,0,2.11.78h0a4.13,4.13,0,0,0,2.95-1.27h0c.07-.07,0-.11,0-.15l-.88-.79a.15.15,0,0,0-.17,0,2.46,2.46,0,0,1-1.76.81,1.23,1.23,0,0,1-1.35-1.36.07.07,0,0,1,0,0H117c.18,0,.19,0,.21-.15h0l.07-.35a6.07,6.07,0,0,0,.12-.79,2.82,2.82,0,0,0-.53-2.05m-1.12,1.91h0a.11.11,0,0,1-.09.1h-3s0-.09,0-.09h0a2,2,0,0,1,1.85-1.31,1.28,1.28,0,0,1,1,.32,1.07,1.07,0,0,1,.27.87.45.45,0,0,0,0,.11"/><path class="cls-1" d="M56.15,11.9a1,1,0,0,0-.77-.32,1.89,1.89,0,0,0-1.26.77,5,5,0,0,0-.83,1.34c-.09.25-.25.62-.41,1.14l-.55,1.23A5.21,5.21,0,0,0,52,17.4l-.36,1.34v.2l0,.16-.41.82-.36.48-.91.89-.45.27a.67.67,0,0,0-.34.15.85.85,0,0,1-.3.17c-.25,0-.46-.32-.52-1l-.07-.28L48,20.26a1,1,0,0,0-.78-.38,1,1,0,0,0-.61.45l-.77,1.3a.76.76,0,0,1-.64.29A10.26,10.26,0,0,1,46,20a2.74,2.74,0,0,1,.57-.63l.72,0,.35.47a.45.45,0,0,0,.48.21.53.53,0,0,0,.31-.21.64.64,0,0,0,.11-.36,1.46,1.46,0,0,0-.42-.79,1.87,1.87,0,0,0-1-.55,2.64,2.64,0,0,0-1.19.12,1.2,1.2,0,0,0-.54.27.72.72,0,0,0-.21.18l-.18.22a.88.88,0,0,0-.41.42l-.95,2.36a.74.74,0,0,0,0,.59l.18.5a2.41,2.41,0,0,0,.18.36,1.22,1.22,0,0,0,.67.39,2,2,0,0,0,1.65-.59l1-.75s.12,0,.18.2l.07.23.2.21.64.5a.91.91,0,0,0,.53.15,1.84,1.84,0,0,0,1-.22l.39-.23.34-.3a.76.76,0,0,1,.41-.15.1.1,0,0,1,.09,0l0,.11.18,1.71.3,1.25a1.84,1.84,0,0,0,.63.82,1.54,1.54,0,0,0,1,.34c.22-.21.22-.53,0-1a2.17,2.17,0,0,1-.32-1l-.07-2.8a3.14,3.14,0,0,1,.12-1.3,3.86,3.86,0,0,1,.57-1l.7-1,.61-1.2,1.55-3.73a2.36,2.36,0,0,0,.11-1.12,1.39,1.39,0,0,0-.34-.77m-2.07,2.95a5.42,5.42,0,0,1,.18-.56,4.46,4.46,0,0,1,.82-1h.07v.2l-.11.34-.93,2.34-.5,1a.81.81,0,0,1-.21.37l-.07,0,0-.05,0-.14L53.58,16c.07-.2.14-.39.21-.55Z"/><path class="cls-1" d="M43.7,23.15l-.37-.43a3.36,3.36,0,0,1-.43-1.21l-.16-1.36L42.4,19a1.34,1.34,0,0,0-.66-.52l-.82,0-.43.27a3.23,3.23,0,0,0-.43.34,2,2,0,0,0-.27.5l-.25.52a.38.38,0,0,1-.19-.36l0-.21,0-.22L39,18.22a3.3,3.3,0,0,0-.67-.84,2.39,2.39,0,0,0-1-.48,1.37,1.37,0,0,0-.64,0l-.55.05a1.32,1.32,0,0,0-.67.4l-.49.71a2.43,2.43,0,0,1-.49.68,1.8,1.8,0,0,0-.35.43l-.52,1.12-.27.47a2.35,2.35,0,0,0-.15,1,1.69,1.69,0,0,0,1.06,1.68,2.21,2.21,0,0,0,1.18.19,1.5,1.5,0,0,0,.48-.24l.38-.2a1,1,0,0,0,.42-.59,3.85,3.85,0,0,0,0-1.68,8.8,8.8,0,0,1-.21-1,1.34,1.34,0,0,1,.28-1l.13-.19a.22.22,0,0,0,0-.22l-.09-.18c0-.09,0-.12.11-.12a.63.63,0,0,1,.62.3,1.6,1.6,0,0,1,.27.79l.23,2.85a1.22,1.22,0,0,0,.14.56,1.12,1.12,0,0,0,.68.57,1.08,1.08,0,0,0,.86-.07,1.18,1.18,0,0,0,.59-.68l.23-.93a2,2,0,0,1,.3-.89l.15-.2.07,0,.09.12a.81.81,0,0,1,.25.36,5.89,5.89,0,0,1,.3,1,3.22,3.22,0,0,0,.38.93,2,2,0,0,0,.84.68,1.75,1.75,0,0,0,1.05.1v-.05Zm-8.48-3.3c.24,0,.34.28.32.82a7,7,0,0,1-.3,1.34,1.07,1.07,0,0,1-.23.37.32.32,0,0,1-.34.09c-.11,0-.16-.12-.16-.3a1.68,1.68,0,0,1,.07-.63l.18-.64a4.43,4.43,0,0,1,.46-1"/><path class="cls-1" d="M17.6,12.08a10.52,10.52,0,0,0-1-.75,5.5,5.5,0,0,0-1.18-.52,5,5,0,0,0-.64-.2l-.64-.1a2,2,0,0,0-.65-.11H12.8l-1.52.23a.83.83,0,0,0-.54.18,2.4,2.4,0,0,0-.25.45,1,1,0,0,0-.07.5.57.57,0,0,0,.29.36,1.45,1.45,0,0,0,.73.14L13.55,12l2,.25a2.81,2.81,0,0,1,.55.16,2.39,2.39,0,0,1,.86.73,1.4,1.4,0,0,1,.41,1,1.42,1.42,0,0,1-.55.93l-.82.64a1.9,1.9,0,0,1-.93.36l.16-.38.09-.39.05-.89.16-.38,0-.39a1.14,1.14,0,0,0-.14-.61,1,1,0,0,0-.59-.61l-.44,0a.79.79,0,0,0-.38.25,1.41,1.41,0,0,0-.32.85L13.27,16c-.1.32-.21.53-.4.62s-.34,0-.54-.37l-.23-.34a.7.7,0,0,0-.34-.2.52.52,0,0,0-.59.23.76.76,0,0,0,0,.77,1.35,1.35,0,0,0,.52.63,4.38,4.38,0,0,0,.5.23l.5.25a.61.61,0,0,1,.23.66,5,5,0,0,1-.18.86l-.75,5-.16.46a.4.4,0,0,0,.07.45,1,1,0,0,0,.76.37.75.75,0,0,0,.78-.37,1.84,1.84,0,0,0,.25-.79l.11-1.25A11.58,11.58,0,0,1,14,21.79l.31-1.39a8.09,8.09,0,0,0,.12-1.21,3.06,3.06,0,0,1,.16-.88,1.12,1.12,0,0,1,.7-.57l1.23-.39a6.51,6.51,0,0,0,1.07-.66,6.06,6.06,0,0,0,.91-.81,2.16,2.16,0,0,0,.34-2.05,3.64,3.64,0,0,0-1.23-1.75"/><path class="cls-1" d="M32.87,17.72a.61.61,0,0,0-.11-.44.92.92,0,0,0-.34-.31,1.31,1.31,0,0,0-.5-.12,2.16,2.16,0,0,0-.52.16l-.34.12a1.46,1.46,0,0,1-.21.11l-.13.16-.19.07-.34.57-.11.11a.16.16,0,0,0,0,.11l-.1.25c-.13.21-.25.36-.25.46a2.08,2.08,0,0,0,0,.5,2.72,2.72,0,0,0,.39,1.09l.64,1a1.52,1.52,0,0,1,.34,1c0,.21-.23.39-.59.52l-.82,0-.5-.16a.5.5,0,0,0-.48.11,1.48,1.48,0,0,0,0,.42l.46.77c.11.16.33.25.72.29a4,4,0,0,0,1.71-.16,1.73,1.73,0,0,0,.75-.48,1.34,1.34,0,0,0,.4-.79,2,2,0,0,0-.54-1.59l-.48-.73a1.63,1.63,0,0,1-.31-.8,1.27,1.27,0,0,1,.24-1,2.72,2.72,0,0,1,.73-.64c.34-.23.52-.45.52-.68"/><path class="cls-1" d="M29.58,18.51a.4.4,0,0,0,0-.36.69.69,0,0,0-.18-.39,2.48,2.48,0,0,0-1.25-.18,1.55,1.55,0,0,0-.87.46l-.75.7-.61.77a1.75,1.75,0,0,1-.73.66L25,19.76a1.52,1.52,0,0,1-.06-.43.92.92,0,0,0-.35-.66,1.08,1.08,0,0,0-.68-.29.91.91,0,0,0-.67.11l-.33.29-.25.34-.57.62c-.22.22-.58.68-1.16,1.38l-.79,1c-.32.36-.57.5-.82.43a.69.69,0,0,1-.5-.61.79.79,0,0,1,.23-.75l1.77-.89.8-.55.38-.36a1.54,1.54,0,0,0-.25-1.07,2.28,2.28,0,0,0-.77-.81,2.37,2.37,0,0,0-1-.39,2,2,0,0,0-1.12.27,3.42,3.42,0,0,0-1.41,1.87l-.11.33-.07.12-.11,0h-.5l-.28.07a.23.23,0,0,0-.11.21.86.86,0,0,0,.09.47l.37.42.29.27a.93.93,0,0,1,.18.52l.23.5a2.86,2.86,0,0,0,1.18,1.47,2.06,2.06,0,0,0,1.66.19,2.66,2.66,0,0,0,1.2-.82l1-1.23a4.17,4.17,0,0,1,1.18-1l.16.9,0,.67,0,.61a1.51,1.51,0,0,0,.11.61,1,1,0,0,0,.68.55.81.81,0,0,0,.8-.41l.45-1,.69-.9.56-1.16a4,4,0,0,1,.73-1.07,3.11,3.11,0,0,1,.8-.62l.72-.29Zm-8.89,0a.45.45,0,0,1,0,.36c0,.18-.16.34-.41.5l-1,.63a1.37,1.37,0,0,1-.47.16l-.12,0s0,0,0-.09l0-.18a.68.68,0,0,1,.16-.3l.45-.63a2.18,2.18,0,0,1,.55-.66.48.48,0,0,1,.7-.07.78.78,0,0,1,.16.3"/><path class="cls-1" d="M158.62,12.92a1,1,0,0,0-2.06,0V23.81a1,1,0,1,0,2.06,0Z"/><path class="cls-1" d="M181.17,15.78a1,1,0,0,0-1.3.63l-1.45,4.85s0,.06-.06.06-.07-.07-.07-.07h0l-1.44-4.85h0s0,0,0-.06,0,0,0,0a.08.08,0,0,1,0,0s0,0,0-.05l0,0-.1-.14a1.3,1.3,0,0,0-.23-.18h0l-.06,0,0,0,0,0-.06,0h0l-.07,0h-.49l-.06,0h0l-.05,0,0,0h0a1.18,1.18,0,0,0-.28.22l-.11.14a0,0,0,0,1,0,0s0,0,0,.05l0,0s0,0,0,0l0,.06h0l-1.51,5.05h0l.06-.21s0,.07-.06.07-.06-.07-.06-.07l-1.46-4.84a1,1,0,1,0-1.93.68l2.48,7.09h0l.06.13s0,0,0,0l.08.12v0l.09.09,0,0a.39.39,0,0,0,.1.08s0,0,0,0l.11.06h0l.11,0h0l.14,0h.32l.13,0h0l.11,0h0l.11-.06,0,0,.11-.08a0,0,0,0,1,0,0l.08-.1h0a.83.83,0,0,0,.08-.12s0,0,0,0a.52.52,0,0,0,.06-.13h0l1.52-5.05,1.51,5.05h0l.06.13s0,0,0,0l.08.12h0l.09.1a0,0,0,0,1,0,0l.11.08,0,0,.11.06h0l.11,0h0l.14,0h.32l.13,0h0l.11,0h0l.11-.06,0,0,.11-.08a0,0,0,0,1,0,0l.08-.09,0,0,.07-.12s0,0,0,0a.31.31,0,0,0,.06-.13h0l2.48-7.09a1,1,0,0,0-.63-1.31m-2.81,5.68,0-.11Z"/><path class="cls-1" d="M155.4,12.21a3.81,3.81,0,0,0-1.6-.35h-.23a3.82,3.82,0,0,0-3.8,3.84v8.14a1,1,0,0,0,.94,1h.09a1,1,0,0,0,1-1v-5.7A.18.18,0,0,1,152,18h1.75a.9.9,0,0,0,0-1.79H152a.19.19,0,0,1-.17-.18v-.47a2.3,2.3,0,0,1,.56-1.36,2.05,2.05,0,0,1,1.4-.54,2,2,0,0,1,.86.19.91.91,0,0,0,1.19-.45.89.89,0,0,0-.45-1.18"/><path class="cls-1" d="M164,20.77V19.54c0-.27.19-.38.42-.24l.22.13.84.48.23.13a.25.25,0,0,1,0,.48l-.23.14-.84.48-.22.13c-.23.13-.42,0-.42-.24Z"/><path class="cls-1" d="M162,20.29a2.77,2.77,0,0,1,4.52-2.15,3.28,3.28,0,0,0-2.74-1.43A3.78,3.78,0,0,0,160,20.09v.2h0a4.76,4.76,0,0,0,8.49,3,4.29,4.29,0,0,1-2.74,1A3.78,3.78,0,0,1,162,20.4v-.11Z"/><path class="cls-1" d="M167.51,20.29A2.77,2.77,0,0,1,163,22.44a3.27,3.27,0,0,0,2.74,1.43,3.78,3.78,0,0,0,3.77-3.38v-.2h0a4.77,4.77,0,0,0-8.49-3,4.26,4.26,0,0,1,2.74-1,3.77,3.77,0,0,1,3.76,3.85v.11Z"/><path class="cls-1" d="M208.29,14.21l-2,9.15a.06.06,0,0,0,.05.06h1.8s.06,0,.08-.06L209,19.7a.08.08,0,0,1,.08-.06h3s.07,0,.07-.06l.43-1.46a0,0,0,0,0,0-.06h-3.19s0,0,0-.06l.52-2.16a.09.09,0,0,1,.07-.05h3.13a.09.09,0,0,0,.07,0l.67-1.47a0,0,0,0,0,0-.06Z"/><path class="cls-1" d="M222.11,17.76a2.28,2.28,0,0,0-1.83-.78,2.77,2.77,0,0,0-2.07.87l.8-3.54h0v0a.09.09,0,0,0,0-.12.15.15,0,0,0-.09,0h-1.31c-.11,0-.16,0-.19.12L216,20.39h0a2.84,2.84,0,0,0-.05.36,3,3,0,0,0,.38,1.81,2.56,2.56,0,0,0,2.34,1.05,3.71,3.71,0,0,0,3.58-2.41v0c.06-.14.11-.28.16-.42s.05-.19.07-.28h0a1.46,1.46,0,0,0,.05-.2,5.81,5.81,0,0,0,.09-.58,2.73,2.73,0,0,0-.54-1.94m-1.2,2.51a2.09,2.09,0,0,1-2,1.8,1.22,1.22,0,0,1-1.28-1.46,1.86,1.86,0,0,1,0-.33,2.19,2.19,0,0,1,2.09-1.79,1.09,1.09,0,0,1,1,.4,1.44,1.44,0,0,1,.22,1,1.74,1.74,0,0,1-.05.39"/><path class="cls-1" d="M215.37,14.12a1.23,1.23,0,0,0-1.18,1,.78.78,0,0,0,0,.14.88.88,0,0,0,.18.6.82.82,0,0,0,.61.25h0a1.22,1.22,0,0,0,1.19-1,.9.9,0,0,0,0-.16.78.78,0,0,0-.19-.6.9.9,0,0,0-.63-.23"/><path class="cls-1" d="M215.51,17.14H214a.16.16,0,0,0-.1.11l-1.31,6.11a0,0,0,0,0,0,.06h1.54a.09.09,0,0,0,.08-.06l1.32-6.16a0,0,0,0,0-.05-.06"/><path class="cls-1" d="M229,17.68a2.23,2.23,0,0,0-1.77-.69,4.08,4.08,0,0,0-4,3.28,3.48,3.48,0,0,0-.07.54,2.5,2.5,0,0,0,.64,2,2.76,2.76,0,0,0,2,.75h0a3.9,3.9,0,0,0,2.82-1.23h0c.06-.07,0-.1,0-.14l-.85-.76a.15.15,0,0,0-.16,0,2.35,2.35,0,0,1-1.69.78,1.18,1.18,0,0,1-1.3-1.3l0,0h4.43c.16,0,.17,0,.19-.14h0l.07-.33a5.57,5.57,0,0,0,.11-.76,2.63,2.63,0,0,0-.51-2m-1.08,1.83h0a.08.08,0,0,1-.07.09H225s0-.08,0-.08a1.89,1.89,0,0,1,1.78-1.27,1.27,1.27,0,0,1,.92.31,1,1,0,0,1,.25.84.45.45,0,0,1,0,.11"/><path class="cls-1" d="M234.4,17h-1.68a2.47,2.47,0,0,0-1.63.73,5.26,5.26,0,0,0-1,2.46v0l-.67,3.11s0,.07.07.08h1.45a.17.17,0,0,0,.15-.1l.68-3.2a3.87,3.87,0,0,1,.35-1,1.08,1.08,0,0,1,1-.52h.61c.06,0,.06,0,.07-.07l.6-1.43"/><path class="cls-1" d="M253.14,17h-1.68a2.49,2.49,0,0,0-1.63.73,5.35,5.35,0,0,0-1,2.46v0l-.67,3.11s0,.07.07.08h1.44a.17.17,0,0,0,.15-.1l.69-3.2a4.21,4.21,0,0,1,.34-1,1.1,1.1,0,0,1,1-.52h.61c.06,0,.06,0,.08-.07l.59-1.43"/><path class="cls-1" d="M245.35,17a4.31,4.31,0,0,0-4.18,3.32c0,.18-.06.35-.08.51a2.54,2.54,0,0,0,2.78,2.82,4.3,4.3,0,0,0,4.18-3.32,5.06,5.06,0,0,0,.08-.52A2.54,2.54,0,0,0,245.35,17m1.06,3.32a2.34,2.34,0,0,1-2.22,1.85,1.34,1.34,0,0,1-1.42-1.56,2.7,2.7,0,0,1,0-.28A2.35,2.35,0,0,1,245,18.46,1.34,1.34,0,0,1,246.46,20c0,.09,0,.18-.05.28"/><path class="cls-1" d="M256.73,17c-.16,0-.32,0-.47,0a3.89,3.89,0,0,0-3.65,3.21l-1.32,6.08c0,.1,0,.14.12.14h1.34c.11,0,.13,0,.15-.11h0l.74-3.35a1.93,1.93,0,0,0,1.52.65h.1a4.11,4.11,0,0,0,4-3.29,5.06,5.06,0,0,0,.08-.52A2.46,2.46,0,0,0,256.73,17m1,3.07c0,.09,0,.18-.05.28a2.16,2.16,0,0,1-2.07,1.82,1.3,1.3,0,0,1-1.39-1.53c0-.09,0-.18,0-.28a2.35,2.35,0,0,1,2.18-1.88c1,0,1.36.74,1.29,1.59"/><path class="cls-1" d="M242.76,15.37A2.84,2.84,0,0,0,240.12,14a5.62,5.62,0,0,0-5.41,4.86,4.29,4.29,0,0,0,.54,3.46,3.53,3.53,0,0,0,2.95,1.34,4.34,4.34,0,0,0,2.8-1,.12.12,0,0,0,0-.13l-.64-1.14s-.07-.06-.14,0a2.61,2.61,0,0,1-1.73.76,1.91,1.91,0,0,1-1.68-.87,3.18,3.18,0,0,1-.37-2.5A3.76,3.76,0,0,1,240,15.49a1.56,1.56,0,0,1,1.4.85c.05.07.07,0,.14,0h0l1.24-.86a.08.08,0,0,0,0-.11"/></g></svg>