<svg xmlns="http://www.w3.org/2000/svg" viewBox="0 0 68 35"><defs><style>.cls-1{fill:#fff;}</style></defs><g id="OBJECTS"><path class="cls-1" d="M60.38,28.06A37.49,37.49,0,0,0,33.52,17.33,37.49,37.49,0,0,0,6.67,28.06c-3.13,3.07-2.64,5.7,2,4.21a79,79,0,0,1,49.76,0c4.63,1.5,5.11-1.14,2-4.21"/><polygon class="cls-1" points="5.61 4.84 3.69 4.84 3.69 3.31 9.58 3.31 9.58 4.84 7.67 4.84 7.67 11.06 5.61 11.06 5.61 4.84"/><polygon class="cls-1" points="11.81 3.31 17.27 3.31 17.27 4.78 13.88 4.78 13.88 6.37 17.09 6.37 17.09 7.84 13.88 7.84 13.88 9.6 17.4 9.6 17.4 11.06 11.81 11.06 11.81 3.31"/><polygon class="cls-1" points="20.32 3.31 22.39 3.31 22.39 9.53 25.25 9.53 25.25 11.06 20.32 11.06 20.32 3.31"/><polygon class="cls-1" points="27.09 3.31 32.56 3.31 32.56 4.78 29.15 4.78 29.15 6.38 32.37 6.38 32.37 7.84 29.15 7.84 29.15 9.6 32.68 9.6 32.68 11.06 27.09 11.06 27.09 3.31"/><path class="cls-1" d="M41,10.88a7.24,7.24,0,0,1-2.16.31c-1.92,0-4.32-1-4.32-4,0-2.69,1.9-4,4.31-4a6.9,6.9,0,0,1,2.16.4l-.17,1.67a3.41,3.41,0,0,0-1.88-.54,2.29,2.29,0,0,0-2.28,2.51A2.33,2.33,0,0,0,39.1,9.66a4.74,4.74,0,0,0,1.79-.4Z"/><path class="cls-1" d="M46.32,3.18c2.56,0,3.89,1.52,3.89,4s-1.36,4-3.89,4-3.89-1.55-3.89-4,1.33-4,3.89-4m0,6.48c1.25,0,1.76-1.2,1.76-2.47s-.51-2.48-1.76-2.48-1.76,1.13-1.76,2.48.5,2.47,1.76,2.47"/><polygon class="cls-1" points="52.5 3.31 55.6 3.31 57.19 8.54 57.21 8.54 58.83 3.31 61.93 3.31 61.93 11.06 59.94 11.06 59.97 4.92 59.95 4.92 57.97 11.06 56.26 11.06 54.42 4.92 54.4 4.92 54.45 11.06 52.5 11.06 52.5 3.31"/></g></svg>