<?xml version="1.0" encoding="utf-8"?>
<!-- Generator: Adobe Illustrator 24.1.2, SVG Export Plug-In . SVG Version: 6.00 Build 0)  -->
<svg version="1.1" id="Capa_1" xmlns="http://www.w3.org/2000/svg" xmlns:xlink="http://www.w3.org/1999/xlink" x="0px" y="0px"
	 viewBox="0 0 512 512" style="enable-background:new 0 0 512 512;" xml:space="preserve">
<style type="text/css">
	.st0{fill:#FFFFFF;}
</style>
<path class="st0" d="M256,95.1c-45.4,0.1-82.3,36.9-82.3,82.3v180.9c-0.3,32.4,25.8,58.9,58.2,59.2s58.9-25.8,59.2-58.2
	c0-0.3,0-0.6,0-1V185c0-19.3-15.7-35-35-35s-35,15.7-35,35v165c0,3.9,3.1,7,7,7s7-3.1,7-7l0,0V185c0-11.6,9.4-21,21-21
	c11.6,0,21,9.4,21,21v173.3c0.2,24.7-19.6,44.9-44.2,45.1c-24.7,0.2-44.9-19.6-45.1-44.2c0-0.3,0-0.6,0-0.8V177.4
	c0-37.7,30.6-68.3,68.3-68.3s68.3,30.6,68.3,68.3V256c0,3.9,3.1,7,7,7s7-3.1,7-7v-78.6C338.3,132,301.4,95.1,256,95.1L256,95.1z"/>
</svg>
