<?xml version="1.0" encoding="utf-8"?>
<!-- Generator: Adobe Illustrator 24.1.2, SVG Export Plug-In . SVG Version: 6.00 Build 0)  -->
<svg version="1.1" id="Capa_1" xmlns="http://www.w3.org/2000/svg" xmlns:xlink="http://www.w3.org/1999/xlink" x="0px" y="0px"
	 viewBox="0 0 512 512" style="enable-background:new 0 0 512 512;" xml:space="preserve">
<style type="text/css">
	.st0{fill:#FFFFFF;}
</style>
<path class="st0" d="M437,75C388.7,26.6,324.4,0,256,0C194.4,0,135,22.2,88.5,62.4c-3.2,2.8-3.5,7.6-0.8,10.7
	c2.8,3.2,7.6,3.5,10.7,0.8c43.7-37.8,99.6-58.7,157.5-58.7c64.3,0,124.8,25,170.3,70.5s70.5,105.9,70.5,170.3s-25,124.8-70.5,170.3
	S320.3,496.8,256,496.8s-124.8-25-170.3-70.5S15.2,320.3,15.2,256c0-59.8,22.1-117.2,62.2-161.5c2.8-3.1,2.6-7.9-0.5-10.7
	c-3.1-2.8-7.9-2.6-10.7,0.5C23.5,131.4,0,192.4,0,256c0,68.4,26.6,132.7,75,181s112.6,75,181,75s132.7-26.6,181-75s75-112.6,75-181
	S485.4,123.3,437,75z"/>
<path class="st0" d="M246.3,347.1c-23.5,0-42.6,19.3-42.6,43s19.1,43,42.6,43c11.5,0,22.4-4.6,30.6-12.9
	c7.9-8.1,12.5-19.1,12.5-30.1c0-11.4-4.5-22.2-12.7-30.3C268.5,351.6,257.7,347.1,246.3,347.1z M246.3,418
	c-15.1,0-27.4-12.5-27.4-27.8s12.3-27.8,27.4-27.8c15.1,0,27.8,12.8,27.8,27.8S261.4,418,246.3,418z"/>
<path class="st0" d="M319.6,228.4c3.2,2.8,8,2.4,10.7-0.7c18.3-21,27.6-43,27.6-65.3c0-23.6-10.6-44.9-29.8-60.2
	c-19.3-15.3-45.5-23.4-75.8-23.4c-37.5,0-60.6,12.6-73.5,23.3c-15.5,12.8-24.8,30-24.8,46c0,10.4,4.3,19.5,12,25.8
	c6.4,5.1,14.8,8.1,23.2,8.1c14.5,0,20.9-9.4,26-16.9c6.5-9.5,12.6-18.5,35.7-18.5c7.9,0,33.8,1.7,33.8,23.7
	c0,16.6-15.3,28.4-28.9,38.8c-3.3,2.6-6.5,5-9.4,7.5c-15.6,13.4-33.5,34.2-33.5,75.7c0,23.1,5.6,38.4,32.9,38.4
	c12.1,0,21.2-2.7,27.2-8.1c5-4.5,7.6-10.9,7.6-18.3c0-22.4,0-33.7,22.9-51.5l0.4-0.3c1-0.8,2.2-1.7,3.5-2.7
	c3.3-2.6,3.8-7.4,1.1-10.7s-7.4-3.8-10.7-1.1c-1.2,1-2.3,1.8-3.3,2.6l-0.4,0.3c-27.4,21.4-28.7,37.3-28.7,63.5
	c0,3.4,0,11.3-19.5,11.3c-9.5,0-12.5-2-13.9-3.7c-2.6-3-3.8-9.4-3.8-19.5c0-35.2,14.3-52.2,28.2-64.2c2.6-2.2,5.6-4.5,8.8-7
	c15.5-11.9,34.8-26.7,34.8-50.8c0-23.6-19.2-38.9-49-38.9c-31.2,0-41.1,14.6-48.3,25.2c-4.9,7.3-7.2,10.2-13.4,10.2
	c-8,0-20-5-20-18.6c0-8.9,5.1-22.6,19.3-34.3c10.9-9,30.9-19.8,63.8-19.8c53.2,0,90.4,28.1,90.4,68.3c0,18.6-8,37.2-23.9,55.3
	C316.1,220.8,316.4,225.6,319.6,228.4z"/>
</svg>
