<svg xmlns="http://www.w3.org/2000/svg" viewBox="0 0 102 119"><defs><style>.cls-1,.cls-3{fill:none;stroke:#fff;stroke-linecap:round;stroke-linejoin:round;}.cls-1{stroke-width:2.25px;}.cls-2{fill:#fff;}.cls-3{stroke-width:2.81px;}</style></defs><g id="OBJECTS"><rect class="cls-1" x="11.39" y="28.2" width="64.38" height="40.51" rx="2.49"/><line class="cls-1" x1="32.35" y1="68.71" x2="32.35" y2="75.57"/><line class="cls-1" x1="54.82" y1="68.71" x2="54.82" y2="75.57"/><line class="cls-1" x1="24.72" y1="76.8" x2="62.45" y2="76.8"/><path class="cls-2" d="M84.12,28.1a8,8,0,0,0-9.64-7.27.93.93,0,1,0,.39,1.81,6.16,6.16,0,0,1,7.4,5.58.93.93,0,0,0,.37.68.89.89,0,0,0,.62.18A.92.92,0,0,0,84.12,28.1Z"/><path class="cls-2" d="M89.61,27.71A13.53,13.53,0,0,0,73.34,15.45a.92.92,0,1,0,.38,1.81,11.69,11.69,0,0,1,14,10.58.89.89,0,0,0,.37.67,1,1,0,0,0,.62.19A.93.93,0,0,0,89.61,27.71Z"/><path class="cls-2" d="M95.29,27.48A19.39,19.39,0,0,0,72,9.92a.93.93,0,1,0,.39,1.81A17.54,17.54,0,0,1,93.44,27.61a.91.91,0,0,0,.37.67,1,1,0,0,0,.62.19A.93.93,0,0,0,95.29,27.48Z"/><circle class="cls-3" cx="59.02" cy="91.27" r="3.43"/><rect class="cls-1" x="34.85" y="65.49" width="16.18" height="51.56" rx="2.76" transform="translate(134.21 48.33) rotate(90)"/></g></svg>