<svg xmlns="http://www.w3.org/2000/svg" viewBox="0 0 104 68"><defs><style>.cls-1{fill:#fff;}.cls-2,.cls-3{fill:none;stroke:#fff;}.cls-2{stroke-linecap:round;stroke-linejoin:round;stroke-width:2.25px;}.cls-3{stroke-miterlimit:10;stroke-width:3.21px;}</style></defs><g id="OBJECTS"><path class="cls-1" d="M27.48,16.24a6.65,6.65,0,0,0-10,0,.77.77,0,0,0,.08,1.08.76.76,0,0,0,1.08-.08,5.11,5.11,0,0,1,7.69,0,.78.78,0,0,0,.58.26.81.81,0,0,0,.51-.18A.77.77,0,0,0,27.48,16.24Z"/><path class="cls-1" d="M30.93,13.25a11.23,11.23,0,0,0-16.9,0,.77.77,0,0,0,.08,1.08.76.76,0,0,0,1.08-.07,9.69,9.69,0,0,1,14.58,0,.77.77,0,0,0,1.16-1Z"/><path class="cls-1" d="M34.58,10.26a16.09,16.09,0,0,0-24.2,0,.77.77,0,0,0,.08,1.09.76.76,0,0,0,1.08-.08,14.55,14.55,0,0,1,21.88,0,.77.77,0,0,0,1.16-1Z"/><circle class="cls-1" cx="54.72" cy="47.86" r="2.69"/><circle class="cls-1" cx="69.11" cy="47.86" r="2.69"/><circle class="cls-1" cx="83.5" cy="47.86" r="2.69"/><rect class="cls-2" x="40.24" y="4.66" width="25.63" height="86.39" rx="4.5" transform="translate(100.91 -5.19) rotate(90)"/><line class="cls-2" x1="22.48" y1="35.04" x2="22.48" y2="25.57"/><line class="cls-3" x1="19.16" y1="33.28" x2="25.8" y2="33.28"/></g></svg>