<?xml version="1.0" encoding="utf-8"?>
<!-- Generator: Adobe Illustrator 24.1.2, SVG Export Plug-In . SVG Version: 6.00 Build 0)  -->
<svg version="1.1" id="Capa_1" xmlns="http://www.w3.org/2000/svg" xmlns:xlink="http://www.w3.org/1999/xlink" x="0px" y="0px"
	 viewBox="0 0 512 512" style="enable-background:new 0 0 512 512;" xml:space="preserve">
<style type="text/css">
	.st0{fill:#60D5FD;}
</style>
<g>
	<g>
		<path class="st0" d="M504.4,87.7h-79.6c-4.2,0-7.6,3.4-7.6,7.6s3.4,7.6,7.6,7.6h59.9L256,310.4L27.3,102.9h362
			c4.2,0,7.6-3.4,7.6-7.6s-3.4-7.6-7.6-7.6H7.6c-4.2,0-7.6,3.4-7.6,7.6v321.5c0,4.2,3.4,7.6,7.6,7.6h496.8c4.2,0,7.6-3.4,7.6-7.6
			V95.3C512,91.1,508.6,87.7,504.4,87.7z M27.4,409.1l53.3-48.3c3.1-2.8,3.3-7.6,0.5-10.7c-2.8-3.1-7.6-3.3-10.7-0.5l-55.2,50.1
			V112.4L173.4,256l-78,70.8c-3.1,2.8-3.3,7.6-0.5,10.7s7.6,3.3,10.7,0.5l79.1-71.8l66.1,60c1.5,1.3,3.3,2,5.1,2s3.7-0.7,5.1-2
			l66.1-60l157.4,142.8L27.4,409.1L27.4,409.1z M496.8,399.6L338.6,256l158.2-143.6V399.6z"/>
	</g>
</g>
</svg>
