<?xml version="1.0" encoding="utf-8"?>
<!-- Generator: Adobe Illustrator 24.1.2, SVG Export Plug-In . SVG Version: 6.00 Build 0)  -->
<svg version="1.1" id="Capa_1" xmlns="http://www.w3.org/2000/svg" xmlns:xlink="http://www.w3.org/1999/xlink" x="0px" y="0px"
	 viewBox="0 0 463 463" style="enable-background:new 0 0 463 463;" xml:space="preserve">
<style type="text/css">
	.st0{fill:#60D5FD;}
</style>
<g>
	<path class="st0" d="M383,189.8v-38.3C383,68,315,0,231.5,0S80,68,80,151.5v38.3c-14.6,11.6-24,29.6-24,49.7v48
		C56,384.3,134.7,463,231.5,463S407,384.3,407,287.5v-48C407,219.4,397.6,201.5,383,189.8z M95,151.5C95,76.2,156.2,15,231.5,15
		S368,76.2,368,151.5v29.4c-7.5-3.2-15.8-4.9-24.5-4.9H343v-24.5C343,90,293,40,231.5,40S120,90,120,151.5V176h-0.5
		c-8.7,0-17,1.8-24.5,4.9V151.5z M135,176v-24.5c0-53.2,43.3-96.5,96.5-96.5S328,98.3,328,151.5V176H135z M392,287.5
		C392,376,320,448,231.5,448S71,376,71,287.5v-48c0-26.7,21.8-48.5,48.5-48.5h224c26.7,0,48.5,21.8,48.5,48.5V287.5z"/>
	<path class="st0" d="M263,287.5c0-9.3-4.1-18.1-11.3-24.1c-7.2-6-16.6-8.5-25.9-6.9c-12.9,2.3-23.3,12.9-25.4,25.8
		c-2,12.1,3.1,23.8,12.8,30.7l-4.3,45c-0.4,4.3,1,8.7,4,11.9c2.9,3.2,7.1,5.1,11.5,5.1h14.4c4.4,0,8.5-1.9,11.5-5.1
		c2.9-3.2,4.4-7.6,4-11.9l-4.3-45C258.1,307.2,263,297.8,263,287.5z M238.6,302.3c-2.8,1.4-4.5,4.3-4.2,7.5l4.8,49.7
		c0,0.1,0,0.2-0.1,0.4c-0.1,0.2-0.3,0.2-0.4,0.2h-14.4c-0.1,0-0.2,0-0.4-0.2c-0.1-0.2-0.1-0.3-0.1-0.4l4.8-49.7
		c0.3-3.1-1.4-6.1-4.2-7.5c-5.5-2.7-10.5-9.1-9.1-17.6c1.1-6.6,6.6-12.3,13.2-13.4c1-0.2,2.1-0.3,3.1-0.3c3.9,0,7.6,1.3,10.6,3.9
		c3.8,3.1,5.9,7.8,5.9,12.6C248,293.8,244.4,299.5,238.6,302.3z"/>
</g>
</svg>
