<svg xmlns="http://www.w3.org/2000/svg" viewBox="0 0 61 97"><defs><style>.cls-1{fill:none;stroke:#fff;stroke-linecap:round;stroke-linejoin:round;stroke-width:2.25px;}</style></defs><g id="OBJECTS"><path class="cls-1" d="M12.64,37.28,24.2,59.46a18.26,18.26,0,0,0,22.57,8.66h0a3.85,3.85,0,0,0,2-5.34L43.32,52.39a3.85,3.85,0,0,0-5.19-1.64h0a3.85,3.85,0,0,1-5.19-1.63L26.37,36.5A3.83,3.83,0,0,1,28,31.32h0a3.85,3.85,0,0,0,1.63-5.19L24,15.27a3.85,3.85,0,0,0-5.55-1.42l0,0A18.25,18.25,0,0,0,12.64,37.28Z"/><line class="cls-1" x1="36.75" y1="51.47" x2="42.42" y2="62.36"/><line class="cls-1" x1="21.49" y1="20.05" x2="27.55" y2="31.66"/><path class="cls-1" d="M40.94,75.2v4.39H17.05a2.88,2.88,0,0,0-2.87,2.87h0a2.88,2.88,0,0,0,2.87,2.88H53.63"/></g></svg>