<?xml version="1.0" encoding="utf-8"?>
<!-- Generator: Adobe Illustrator 24.1.2, SVG Export Plug-In . SVG Version: 6.00 Build 0)  -->
<svg version="1.1" id="Capa_1" xmlns="http://www.w3.org/2000/svg" xmlns:xlink="http://www.w3.org/1999/xlink" x="0px" y="0px"
	 viewBox="0 0 512 512" style="enable-background:new 0 0 512 512;" xml:space="preserve">
<style type="text/css">
	.st0{fill:#60D5FD;}
</style>
<g>
	<path class="st0" d="M108.6,82.5h151c4.1,0,7.5-3.4,7.5-7.5s-3.4-7.5-7.5-7.5h-151c-4.1,0-7.5,3.4-7.5,7.5S104.4,82.5,108.6,82.5z"
		/>
	<path class="st0" d="M108.6,131.9h151c4.1,0,7.5-3.4,7.5-7.5c0-4.1-3.4-7.5-7.5-7.5h-151c-4.1,0-7.5,3.4-7.5,7.5
		C101.1,128.5,104.4,131.9,108.6,131.9z"/>
	<path class="st0" d="M456.8,118.9L340,2.2c-1.4-1.4-3.3-2.2-5.3-2.2H87C68.3,0,53,15.2,53,34v444c0,18.7,15.2,34,34,34h338
		c18.7,0,34-15.2,34-34V124.2C459,122.3,458.2,120.4,456.8,118.9L456.8,118.9z M342.2,25.6l91.1,91.1h-78.6
		c-6.9,0-12.5-5.6-12.5-12.5V25.6z M425,497H87c-10.5,0-19-8.5-19-19V34c0-10.5,8.5-19,19-19h240.2v89.2c0,15.2,12.3,27.5,27.5,27.5
		H444V478C444,488.5,435.5,497,425,497L425,497z"/>
	<path class="st0" d="M403.4,325.4c-4.1,0-7.5,3.4-7.5,7.5v71.9c0,7-5.7,12.6-12.6,12.6H128.7c-7,0-12.6-5.7-12.6-12.6v-72
		c0-4.1-3.4-7.5-7.5-7.5s-7.5,3.4-7.5,7.5v72c0,15.2,12.4,27.6,27.6,27.6h254.6c15.2,0,27.6-12.4,27.6-27.6v-71.9
		C410.9,328.7,407.6,325.4,403.4,325.4z"/>
	<path class="st0" d="M383.3,198.2H128.7c-15.2,0-27.6,12.4-27.6,27.6v71.9c0,4.1,3.4,7.5,7.5,7.5s7.5-3.4,7.5-7.5v-71.9
		c0-7,5.7-12.6,12.6-12.6h254.6c7,0,12.6,5.7,12.6,12.6V298c0,4.1,3.4,7.5,7.5,7.5s7.5-3.4,7.5-7.5v-72.1
		C410.9,210.6,398.6,198.2,383.3,198.2L383.3,198.2z"/>
</g>
</svg>
