<?xml version="1.0" encoding="utf-8"?>
<!-- Generator: Adobe Illustrator 24.1.2, SVG Export Plug-In . SVG Version: 6.00 Build 0)  -->
<svg version="1.1" id="Layer_1" xmlns="http://www.w3.org/2000/svg" xmlns:xlink="http://www.w3.org/1999/xlink" x="0px" y="0px"
	 viewBox="0 0 512 512" style="enable-background:new 0 0 512 512;" xml:space="preserve">
<style type="text/css">
	.st0{fill:#60D5FD;}
</style>
<path class="st0" d="M460,376.5c0.6-0.6,1-1.4,1.3-2.2c42.4-73.2,42.4-163.4,0-236.6c-0.3-0.8-0.7-1.5-1.3-2.2
	c-30.8-51.9-80.2-90.2-138.1-107.1c-0.6-0.3-1.2-0.5-1.9-0.5c-41.9-11.8-86.1-11.8-128,0c-0.6,0.1-1.2,0.3-1.8,0.5
	C132.2,45.3,82.8,83.6,52,135.5c-0.6,0.6-1,1.4-1.3,2.2c-42.4,73.2-42.4,163.4,0,236.6c0.3,0.8,0.7,1.5,1.3,2.2
	c30.8,51.9,80.1,90.2,138,107.1c0.6,0.3,1.3,0.5,1.9,0.5c41.9,11.8,86.2,11.8,128,0c0.7-0.1,1.4-0.3,2-0.6
	C379.9,466.6,429.2,428.4,460,376.5L460,376.5z M263,478.8V379h95.7c-10.4,38-25.4,69.6-43.6,92C298.1,475.7,280.6,478.3,263,478.8z
	 M196.9,471c-18.2-22.3-33.2-53.9-43.6-92H249v99.8C231.4,478.3,213.9,475.7,196.9,471z M33.2,263H64v55c0,3.9,3.1,7,7,7h57.3
	c1.9,13.7,4.3,27.1,7.2,40H61.6C44,333.8,34.3,298.8,33.2,263L33.2,263z M61.6,147h73.9c-2.9,12.9-5.3,26.3-7.2,40H71
	c-3.9,0-7,3.1-7,7v55H33.2C34.3,213.2,44,178.2,61.6,147L61.6,147z M249,33.2V133h-95.7c10.4-38,25.4-69.6,43.6-92
	C213.9,36.3,231.4,33.7,249,33.2L249,33.2z M315.1,41c18.2,22.3,33.2,53.9,43.6,92H263V33.2C280.6,33.7,298.1,36.3,315.1,41z
	 M478.8,249H448v-55c0-3.9-3.1-7-7-7h-57.3c-1.9-13.7-4.3-27.1-7.2-40h73.9C468,178.2,477.7,213.2,478.8,249L478.8,249z M450.4,365
	h-73.9c2.9-12.9,5.3-26.3,7.2-40H441c3.9,0,7-3.1,7-7v-55h30.8C477.7,298.8,468,333.8,450.4,365L450.4,365z M263,365v-40h106.6
	c-1.9,13.7-4.4,27.1-7.4,40H263z M78,311V201h356v110H78z M369.6,187H263v-40h99.2C365.2,159.9,367.7,173.3,369.6,187z M249,147v40
	H142.4c1.9-13.7,4.4-27.1,7.4-40H249z M142.4,325H249v40h-99.2C146.8,352.1,144.3,338.7,142.4,325L142.4,325z M337.8,463.4
	c16.1-26.1,28-54.6,35.3-84.4h68.8C416.6,417.1,380.3,446.5,337.8,463.4L337.8,463.4z M441.9,133h-68.8
	c-7.3-29.8-19.3-58.3-35.3-84.4C380.3,65.5,416.6,94.9,441.9,133L441.9,133z M174.2,48.6c-16.1,26.1-28,54.6-35.3,84.4H70.1
	C95.4,94.9,131.7,65.5,174.2,48.6L174.2,48.6z M70.1,379h68.8c7.3,29.8,19.2,58.3,35.3,84.4C131.7,446.5,95.4,417.1,70.1,379z"/>
<path class="st0" d="M183.2,268.8l-13.9-42.3h-11.7l-14,42.3l-12.6-42.3h-11.8l18.7,59h10.6l14.9-43.8l14.8,43.8h10.7l18.6-59h-11.8
	L183.2,268.8z"/>
<path class="st0" d="M270.8,285.5h10.7l18.6-59h-11.8l-12.6,42.3l-13.9-42.3h-11.7l-14,42.3l-12.6-42.3h-11.8l18.7,59h10.7
	l14.9-43.8L270.8,285.5z"/>
<path class="st0" d="M333.8,285.5l14.9-43.8l14.8,43.8h10.7l18.6-59h-11.8l-12.6,42.3l-13.9-42.3h-11.7l-14,42.3l-12.6-42.3h-11.8
	l18.7,59H333.8z"/>
</svg>
