<svg xmlns="http://www.w3.org/2000/svg" viewBox="0 0 480 474"><defs><style>.cls-1,.cls-17,.cls-18,.cls-2,.cls-4{fill:none;}.cls-1,.cls-17,.cls-2,.cls-4{stroke:#fff;stroke-linecap:round;stroke-linejoin:round;}.cls-1,.cls-2{stroke-width:1.94px;}.cls-2{stroke-dasharray:7.68 7.68;}.cls-3{fill:#b89cf0;}.cls-4{stroke-width:3.59px;}.cls-5{fill:#00c4ff;}.cls-6{fill:#a8eaff;}.cls-7{fill:#00b8f0;}.cls-8{fill:#ff639d;}.cls-9{fill:#7a4ecf;}.cls-10{fill:#ffc763;}.cls-11{fill:#ffb329;}.cls-12{fill:#e6e8e8;}.cls-13{fill:#cfd1d1;}.cls-14{fill:#ffa400;}.cls-15{fill:#fff;}.cls-16{fill:#ff3881;}.cls-17{stroke-width:0.97px;}</style></defs><g id="DESIGNED_BY_FREEPIK" data-name="DESIGNED BY FREEPIK"><g id="OBJECTS"><path class="cls-1" d="M70.88,190.52c-.08,1.26-.17,2.56-.28,3.88"/><path class="cls-2" d="M69.62,202c-1.32,7.31-4,14.36-9.82,19.05-7.72,6.19-42.36,11-40.68-5.69.9-9,11.88-9.09,18.43-7.8,26.08,5.13,34.62,33.52,45,54.24,13.08,26,34.85,43.57,64.69,45.82,57.31,4.32,133.14-31.3,168-79.07"/><path class="cls-1" d="M317.47,225.42c.74-1.07,1.45-2.15,2.14-3.24"/><circle class="cls-3" cx="344.48" cy="238.78" r="116.43"/><path class="cls-4" d="M405.86,156.55a103.06,103.06,0,0,1,38,58.14v.6"/><path class="cls-4" d="M376.32,141a101.85,101.85,0,0,1,18.7,8.4"/><polygon class="cls-5" points="34.63 98.61 38.45 176.26 64.63 169.68 70.25 191.76 83.39 162.87 114.38 156.8 34.63 98.61"/><polygon class="cls-6" points="70.44 168.22 38.45 176.26 64.63 169.68 70.25 191.76 83.39 162.87 51.95 123.98 70.44 168.22"/><polygon class="cls-7" points="80.17 169.95 51.95 123.98 83.39 162.87 80.17 169.95"/><path class="cls-8" d="M367.62,204.17a32.53,32.53,0,0,0,.59,41.65,32.2,32.2,0,0,0,18.7,10.66,7.87,7.87,0,0,1,5.82,4.77l2.55,6.17,5.48-9.32a7.86,7.86,0,0,1,3.9-3.34,32.4,32.4,0,1,0-37-50.59Z"/><ellipse class="cls-9" cx="344.48" cy="359.9" rx="103.91" ry="8.55"/><path class="cls-10" d="M414.48,283.46a.41.41,0,0,1,0,.11L404,289.73V274.67c.14.1.26.2.39.31C410.46,279.87,414.42,283.18,414.48,283.46Z"/><polygon class="cls-5" points="414.49 283.57 404.03 289.74 404.03 289.73 414.49 283.57"/><path class="cls-5" d="M412.12,357.2a5,5,0,0,1-.62.6C411.71,357.61,411.92,357.41,412.12,357.2Z"/><path class="cls-5" d="M410.1,358.78a10,10,0,0,0,1.4-1A7.18,7.18,0,0,1,410.1,358.78Z"/><path class="cls-5" d="M409.34,359.17c.26-.12.51-.25.76-.39A6.8,6.8,0,0,1,409.34,359.17Z"/><path class="cls-5" d="M408.94,359.33a3.33,3.33,0,0,0,.4-.16A3.33,3.33,0,0,1,408.94,359.33Z"/><path class="cls-5" d="M407.25,359.79c.14,0,.29-.05.43-.09A3.29,3.29,0,0,1,407.25,359.79Z"/><path class="cls-11" d="M414.49,283.57,404,289.74l-37.35,22,33.91,33.91,11.53,11.52a8.49,8.49,0,0,0,2.38-5.9V283.56Z"/><path class="cls-12" d="M384.76,241.46a11.83,11.83,0,0,1-11.83-11.82V210.36H296.76a11.83,11.83,0,0,0-11.83,11.83v68.23l36.2,21.34,22.77,13.43,22.77-13.43,37.36-22h0V241.46ZM303,259.24V234.05a4.22,4.22,0,0,1,4.21-4.22h26.28a4.17,4.17,0,0,1,3.71,2.24,4.13,4.13,0,0,1,.5,2v26.28a4.21,4.21,0,0,1-4.21,4.21H307.16a4.22,4.22,0,0,1-4.21-4.21Zm66.48,38.65h-63a3.41,3.41,0,0,1-3.4-3.4,3.4,3.4,0,0,1,3.4-3.39h63a3.38,3.38,0,0,1,2.41,1,3.32,3.32,0,0,1,1,2.39A3.4,3.4,0,0,1,369.43,297.89Zm0-16.92h-63a3.41,3.41,0,0,1-3.4-3.39,3.4,3.4,0,0,1,3.4-3.4h63a3.4,3.4,0,1,1,0,6.79Z"/><path class="cls-13" d="M404,241.46H384.76a11.83,11.83,0,0,1-11.83-11.82V210.36Z"/><polygon class="cls-5" points="404.03 289.74 366.69 311.77 366.68 311.76 404.03 289.74"/><path class="cls-14" d="M400.59,345.68l-33.91-33.91L343.9,325.2l-22.78-13.43-33.31,33.31-12.13,12.11a8.79,8.79,0,0,0,2.77,2,7.84,7.84,0,0,0,1.66.53c.14,0,.29.06.43.09a8.68,8.68,0,0,0,1.35.11h124a8.58,8.58,0,0,0,1.35-.11c.14,0,.29-.05.43-.09a7,7,0,0,0,1.26-.37,3.33,3.33,0,0,0,.4-.16c.26-.12.51-.25.76-.39a10,10,0,0,0,1.4-1c.21-.19.42-.39.62-.6Z"/><path class="cls-15" d="M371.84,275.18a3.34,3.34,0,0,1,1,2.4,3.4,3.4,0,0,1-3.4,3.39h-63a3.41,3.41,0,0,1-3.4-3.39,3.4,3.4,0,0,1,3.4-3.4h63A3.38,3.38,0,0,1,371.84,275.18Z"/><path class="cls-15" d="M371.84,292.1a3.32,3.32,0,0,1,1,2.39,3.4,3.4,0,0,1-3.4,3.4h-63a3.41,3.41,0,0,1-3.4-3.4,3.4,3.4,0,0,1,3.4-3.39h63A3.38,3.38,0,0,1,371.84,292.1Z"/><polygon class="cls-7" points="366.69 311.77 343.9 325.2 321.12 311.77 321.13 311.76 343.9 325.19 366.68 311.76 366.69 311.77"/><path class="cls-11" d="M337.65,234.05v26.28a4.21,4.21,0,0,1-4.21,4.21H307.16a4.22,4.22,0,0,1-4.21-4.21v-1.09c12.65-10.1,26.29-20.91,34.2-27.17A4.13,4.13,0,0,1,337.65,234.05Z"/><path class="cls-11" d="M333.44,229.83a4.17,4.17,0,0,1,3.71,2.24c-7.91,6.26-21.55,17.07-34.2,27.17V234.05a4.22,4.22,0,0,1,4.21-4.22Z"/><polygon class="cls-5" points="321.13 311.76 321.12 311.77 284.93 290.43 284.93 290.42 321.13 311.76"/><path class="cls-11" d="M277.59,358.71l-.56-.35Z"/><path class="cls-11" d="M277.59,358.71a7.1,7.1,0,0,0,.86.46A7.1,7.1,0,0,1,277.59,358.71Z"/><path class="cls-11" d="M287.81,345.08l33.31-33.31-36.19-21.34-11.62-6.85V351.3a8.59,8.59,0,0,0,3.57,6.95,9.29,9.29,0,0,1-1.2-1.06Z"/><path class="cls-11" d="M277,358.36l-.15-.11Z"/><polygon class="cls-5" points="284.93 290.42 284.93 290.43 273.31 283.58 273.31 283.56 284.93 290.42"/><path class="cls-10" d="M284.93,273.71v16.71l-11.62-6.86v0h0a.41.41,0,0,1,0-.11c.06-.27,4-3.53,9.9-8.35a.91.91,0,0,1,.16-.13Z"/><path class="cls-5" d="M280.11,359.7c.14,0,.29.06.43.09A3.29,3.29,0,0,1,280.11,359.7Z"/><path class="cls-16" d="M363.37,201.11a32.53,32.53,0,0,0,.59,41.66,32.15,32.15,0,0,0,18.7,10.65,7.87,7.87,0,0,1,5.82,4.77l2.55,6.17,5.48-9.32a7.87,7.87,0,0,1,3.9-3.34,32.4,32.4,0,1,0-37-50.59Z"/><path class="cls-15" d="M400.62,232.59v-2.51s-3.36-1.36-3.14-9.53c.13-4.86-1.6-7.71-3.68-9.38a9.27,9.27,0,0,0-11.47,0c-2.08,1.67-3.81,4.52-3.68,9.38.22,8.17-3.14,9.53-3.14,9.53v2.51Z"/><path class="cls-15" d="M383.22,234.62a4.91,4.91,0,0,0,9.7,0Z"/><path class="cls-15" d="M390.47,206.08v1.57a10.6,10.6,0,0,0-4.82,0v-1.59a2.41,2.41,0,1,1,4.82,0Z"/><line class="cls-17" x1="256.96" y1="121.87" x2="267.46" y2="121.87"/><line class="cls-17" x1="262.21" y1="116.62" x2="262.21" y2="127.12"/><circle class="cls-17" cx="248.08" cy="134.8" r="3.81"/><rect class="cls-18" y="-1.1" width="480" height="474"/></g></g></svg>