<svg xmlns="http://www.w3.org/2000/svg" viewBox="0 0 254 179"><defs><style>.cls-1{fill:#00c4ff;}.cls-2{fill:#a8eaff;}.cls-3{fill:#00b8f0;}.cls-4,.cls-5{fill:none;stroke:#fff;stroke-linecap:round;stroke-linejoin:round;}.cls-5{stroke-dasharray:5.92 5.92;}</style></defs><g id="OBJECTS"><path class="cls-1" d="M25.94,29.25,27,48.3a1.76,1.76,0,0,1-1.66,1.86h-.29a1.75,1.75,0,0,1-1.85-1.67l-.8-19.07a1.76,1.76,0,0,1,1.76-1.84h0A1.75,1.75,0,0,1,25.94,29.25Z"/><polygon class="cls-1" points="32.25 1.6 35.2 61.47 55.38 56.4 59.71 73.42 69.85 51.15 93.74 46.46 32.25 1.6"/><polygon class="cls-2" points="59.86 55.27 35.2 61.47 55.38 56.4 59.71 73.42 69.85 51.15 45.61 21.17 59.86 55.27"/><polygon class="cls-3" points="67.36 56.6 45.61 21.17 69.85 51.15 67.36 56.6"/><path class="cls-4" d="M60.2,72.46c-.06,1-.13,2-.22,3"/><path class="cls-5" d="M59.23,81.32C58.21,87,56.17,92.39,51.66,96c-5.95,4.77-32.66,8.5-31.37-4.39.7-6.91,9.16-7,14.21-6,20.11,4,26.69,25.85,34.72,41.82,10.08,20,26.87,33.59,49.87,35.33,44.19,3.33,102.65-24.13,129.51-61"/><path class="cls-4" d="M250.31,99.37c.57-.83,1.12-1.66,1.65-2.5"/></g></svg>