<svg xmlns="http://www.w3.org/2000/svg" xmlns:xlink="http://www.w3.org/1999/xlink" viewBox="0 0 480 474"><defs><style>.cls-1,.cls-14{fill:#fff;}.cls-2{fill:#7a4ecf;}.cls-11,.cls-15,.cls-17,.cls-19,.cls-28,.cls-3,.cls-4,.cls-5,.cls-9{fill:none;}.cls-3{stroke:#7a4ecf;}.cls-15,.cls-3,.cls-4{stroke-miterlimit:10;}.cls-3,.cls-4{stroke-width:0.75px;}.cls-4{stroke:#ff3881;}.cls-5{stroke:#e6e6e6;stroke-width:0.98px;}.cls-11,.cls-17,.cls-19,.cls-28,.cls-5,.cls-9{stroke-linecap:round;stroke-linejoin:round;}.cls-6{fill:#1f0c07;}.cls-7{fill:#e9b089;}.cls-8{fill:#294286;}.cls-11,.cls-17,.cls-9{stroke:#000;}.cls-9{stroke-width:0.44px;}.cls-10{fill:#d7896d;}.cls-11{stroke-width:0.44px;}.cls-12{clip-path:url(#clip-path);}.cls-13{clip-path:url(#clip-path-2);}.cls-14{opacity:0.22;}.cls-15{stroke:#944e30;stroke-width:0.69px;}.cls-16{fill:#ff80af;}.cls-17{stroke-width:0.55px;}.cls-18{fill:#3b5fbf;}.cls-19{stroke:#c4c4c4;stroke-width:1.3px;}.cls-20{fill:#ff639d;}.cls-21{fill:#ff3881;}.cls-22{fill:#87e3ff;}.cls-23{fill:#e6e8e8;}.cls-24{fill:#cfd1d1;}.cls-25{fill:#a8eaff;}.cls-26{fill:#00c4ff;}.cls-27{fill:#00b8f0;}.cls-28{stroke:#fff;}</style><clipPath id="clip-path"><path class="cls-1" d="M221.53,92.48s-2.33-5.69-9.5-.35C212,92.13,215.93,97.07,221.53,92.48Z"/></clipPath><clipPath id="clip-path-2"><path class="cls-1" d="M227,91.68s1.52-6.15,6.32-2.69C233.32,89,231.59,94.86,227,91.68Z"/></clipPath></defs><g id="DESIGNED_BY_FREEPIK" data-name="DESIGNED BY FREEPIK"><g id="OBJECTS"><rect class="cls-2" x="109.48" y="251.84" width="42.41" height="3.73" rx="1.87"/><rect class="cls-2" x="325.43" y="338.28" width="28.85" height="3.73" rx="1.87"/><rect class="cls-3" x="299.88" y="338.28" width="19.26" height="3.73" rx="1.87"/><ellipse class="cls-2" cx="240.31" cy="437.6" rx="161.55" ry="4.23"/><path class="cls-1" d="M324.09,187.23a1.07,1.07,0,0,0,1.16,1.59L341,185a33.13,33.13,0,0,1-8.59-11.29h0Z"/><path class="cls-1" d="M341,185a33.24,33.24,0,1,0-8.59-11.29A33.1,33.1,0,0,0,341,185Z"/><line class="cls-4" x1="371.08" y1="177.77" x2="353.1" y2="177.77"/><path class="cls-5" d="M380.55,137.63a28.19,28.19,0,0,0-17.95-6.42h-.16"/><path class="cls-5" d="M386.62,144.53a28.16,28.16,0,0,0-3.45-4.45"/><path class="cls-6" d="M225.24,413.17s-3.66-.14-3.49,6.83,0,17.24,0,17.24h3.49v-12l10.45,12h35.88s-1.91-6.62-18.81-6.44Z"/><path class="cls-7" d="M225.24,413.17v-9l14-5.34-2.09,14.3L254.28,431h-7.9a14.82,14.82,0,0,1-10-3.86C232.71,423.73,227.74,418.57,225.24,413.17Z"/><path class="cls-8" d="M246.59,194.11s12.6,30.5,5.68,116.13-9,96.63-9,96.63l-22.77-.36,5.29-212.4Z"/><path class="cls-6" d="M171,413.17s3.66-.14,3.48,6.83,0,17.24,0,17.24H171v-12l-10.45,12H124.67s1.92-6.62,18.82-6.44Z"/><path class="cls-7" d="M171,413.17l9-19.08-14-5.34-6.88,24.42L142,431h7.89a14.78,14.78,0,0,0,10-3.86C163.54,423.73,168.5,418.57,171,413.17Z"/><path class="cls-8" d="M211.17,194.11s-6.68,17.86-18.49,59.68c-12.83,45.43-37.87,152.72-37.87,152.72l24.35,1.27,67.21-197.25-6.44-16.42Z"/><line class="cls-9" x1="223.73" y1="275.66" x2="236.33" y2="239.69"/><path d="M193.76,80.17a34.93,34.93,0,0,0-1.77,19c1.92,11.31-10.54,10.22-9.05,21.18,0,0,35.34,10.5,68-10.78,0,0,2.23-9.71-4.59-12-9.54-3.26-12-13.14-12-13.14Z"/><ellipse cx="213.38" cy="87.21" rx="21.19" ry="19.68" transform="translate(-9.81 29.57) rotate(-7.75)"/><polygon class="cls-7" points="211.39 103.34 211.82 135.63 227.39 133.56 222.59 105.21 211.39 103.34"/><polygon class="cls-10" points="225.38 121.72 213.28 112.75 222.89 107.22 225.38 121.72"/><path class="cls-10" d="M228.15,101.18a15.74,15.74,0,0,1,.91-5.94c.95-2.65,2.61-5.29,5.75-4.28,5.37,1.7,1.49,10.58-3.59,11.94-1.49.4-3-.46-3.07-1.72Z"/><path class="cls-7" d="M208,72.56a23.68,23.68,0,0,1,10.88-1.92c5,.37,11.71,2.59,13.71,11.41,3.33,14.72,2.59,24.48-3.85,29.51-4.51,3.52-9.54,3.88-16.55,1-2.61-1.08-6.49-5.78-7.53-8.54l-3-7.69S191.65,79.52,208,72.56Z"/><polyline class="cls-11" points="225.66 94.97 227.87 98.09 226.2 99.17"/><path d="M226,81.66s-.41,1.54,1.92,1.53a19.94,19.94,0,0,1,3.92.17,1.43,1.43,0,0,0,1.47-.58h0a.8.8,0,0,0-.13-1.06,5.88,5.88,0,0,0-4.07-1.45C226.37,80.26,226,81.66,226,81.66Z"/><path d="M219.44,82.07s1,1.37-2.22,2.07a51,51,0,0,0-6.58,2.12,2.53,2.53,0,0,1-2.16-.1h0a.66.66,0,0,1-.09-1.07,15.6,15.6,0,0,1,6.47-3.41C218.62,80.82,219.44,82.07,219.44,82.07Z"/><path class="cls-1" d="M221.53,92.48s-2.33-5.69-9.5-.35C212,92.13,215.93,97.07,221.53,92.48Z"/><g class="cls-12"><path d="M219.57,91.67a2.45,2.45,0,1,1-3-1.83A2.48,2.48,0,0,1,219.57,91.67Z"/></g><path d="M211.91,92a8.14,8.14,0,0,1,2.28-1.57,9.22,9.22,0,0,1,2.66-.8,5.52,5.52,0,0,1,2.8.39,3.81,3.81,0,0,1,2,2.12.35.35,0,1,1-.66.24h0v0a3.18,3.18,0,0,0-1.59-1.76,5,5,0,0,0-2.5-.43,8.49,8.49,0,0,0-2.53.68,7.84,7.84,0,0,0-2.21,1.43.18.18,0,0,1-.25,0A.17.17,0,0,1,211.91,92Z"/><path class="cls-1" d="M227,91.68s1.52-6.15,6.32-2.69C233.32,89,231.59,94.86,227,91.68Z"/><g class="cls-13"><path d="M228.44,90.2a1.87,1.87,0,1,0,3.64.11,1.87,1.87,0,1,0-3.64-.11Z"/></g><path d="M233.21,89.08a3.17,3.17,0,0,0-1.39-.88,2.56,2.56,0,0,0-1.6.08h0a3.72,3.72,0,0,0-1.8,1.22,5,5,0,0,0-1,2v0a.3.3,0,0,1-.58-.14h0a5.36,5.36,0,0,1,.48-1.15,4.83,4.83,0,0,1,.71-1,4,4,0,0,1,.94-.81,4.82,4.82,0,0,1,1.14-.5h0a2.92,2.92,0,0,1,1.87,0,3.38,3.38,0,0,1,1.51,1,.16.16,0,0,1,0,.21A.14.14,0,0,1,233.21,89.08Z"/><path class="cls-1" d="M229.3,101.3,220,102a4.48,4.48,0,0,0,4.8,2.92A5.35,5.35,0,0,0,229.3,101.3Z"/><path class="cls-14" d="M214.32,86.54l8.84,8.56s-1.47,4.52-5,4.64l-8.86-8.32S210.55,86.9,214.32,86.54Z"/><path class="cls-14" d="M230.44,83.82l7.72,8.74S237,97,234,97.06l-7.73-8.49S227.23,84.1,230.44,83.82Z"/><path class="cls-15" d="M223.23,92A7.13,7.13,0,1,1,215,86.16,7.14,7.14,0,0,1,223.23,92Z"/><path class="cls-15" d="M238.16,89.49c.65,3.88-1.51,7.49-4.8,8.05s-6.49-2.13-7.13-6,1.51-7.5,4.81-8.06S237.52,85.6,238.16,89.49Z"/><path class="cls-15" d="M223.23,92a3.39,3.39,0,0,1,3-.5"/><line class="cls-15" x1="204.6" y1="98.73" x2="209.26" y2="94.98"/><path d="M204.81,99.46c0-1.36,3.87-12.31-1.86-25.49,0,0-5.23-.62-5.87,8.94C196,98.24,204.81,99.46,204.81,99.46Z"/><path class="cls-7" d="M207.59,103.94a16.45,16.45,0,0,0-3.2-5.45c-2-2.21-4.61-4.15-7.29-1.94-4.58,3.76,2.67,10.92,8.17,10.27,1.61-.19,2.77-1.63,2.32-2.88Z"/><path class="cls-11" d="M199,100.38c3.71-1.85,6.37,2.23,6.37,2.23"/><path d="M201.4,75.09s7.18,7,33,2.81c0,0-5.16-9.8-18.53-10.31S201.4,75.09,201.4,75.09Z"/><path class="cls-16" d="M216.59,131.36s6.63,22.5,53.89,57.15l12.3-16-41.3-44.81Z"/><path class="cls-7" d="M307.78,139.36l-8.72-4.48-12.91,18.73c3.06,2,7.1,4.27,10.18,6.29Z"/><path class="cls-7" d="M297.63,133.84l-.57-2a18,18,0,0,1-.32-8.36l1-4.88a1.9,1.9,0,0,1,2.55-1.41h0a2.45,2.45,0,0,1,1.58,2.23l.11,5.28,7.87-14.22a1.49,1.49,0,0,1,2.16-.55l.49.34A1.47,1.47,0,0,1,313,112l-5.49,11,8.05-11.71a1.49,1.49,0,0,1,2.18-.41l.35.27a1.49,1.49,0,0,1,.36,1.93l-6.54,10.75,6.75-7.07a1.49,1.49,0,0,1,2.31.13l.11.15a1.49,1.49,0,0,1,0,1.76l-6.5,7.84,4.27-3.26a1.48,1.48,0,0,1,2.45.53h0a1.47,1.47,0,0,1-.24,1.44l-15.75,17.82L301,139.26A11.54,11.54,0,0,1,297.63,133.84Z"/><path class="cls-17" d="M302,124.67a9.75,9.75,0,0,1,2.93,7.74"/><path class="cls-16" d="M265.86,175.68l28.44-37.25,11.32,9.47-19.53,35.7c-3.31,5.75-8.25,8.66-13.72,6.08h0C267.44,187.35,263.58,180.62,265.86,175.68Z"/><line class="cls-16" x1="274.87" y1="163.88" x2="268.75" y2="170.96"/><path class="cls-1" d="M241.05,133.9l-19.37,13.58,1.2,66.92,26.67-4.5S262.17,153.05,241.05,133.9Z"/><polygon class="cls-18" points="251.63 209.69 225.28 214.81 225.88 208.16 251.63 203.77 251.63 209.69"/><path class="cls-7" d="M211.92,145.94s32,10.7,30.41-8.87l-15.05-11.56-10.1,5.71-5.26,4.39-5.28,8.82Z"/><path class="cls-16" d="M226.06,126.2a77.4,77.4,0,0,1,21.64,30.06c4.19,10.58,1.63,31.76.93,45.91S247,243.33,247,243.33l10.41-5.82s.23-62-1.28-70.17-8.72-39.57-19.14-43c0,0-3.55-1.05-9.71,1.14Z"/><path class="cls-16" d="M256.85,178s1.13-19.76-5.22-29.66"/><path class="cls-16" d="M205.69,135.42s4.72-4.09,11.52,1.16,15.35,23.91,15.35,45.49-6.41,62.68-6.41,62.68-23.4,9-39.73-2.65l24.64-41.55-11.95-33.21Z"/><path class="cls-16" d="M207.54,134.4s-17.29,4.16-48.55,53.72l16.87,11.15,32.65-36.94Z"/><line class="cls-16" x1="200.88" y1="170.96" x2="208.51" y2="162.33"/><path class="cls-7" d="M228.63,196l-11.24-2.55.36-2.5a2.11,2.11,0,0,0-1.16-2.2,1.93,1.93,0,0,0-2.39.6l-7.57,10.51-5.75,8.1c6.6,3.29,12.77,2.75,14.53,1.3l8.75.66a1.57,1.57,0,0,0,1.8-1.29c.12-.63,0-1.54-1.82-1.95l1.8.41a1.65,1.65,0,0,0,1.88-1.39c.16-.82-.53-1.66-1.62-2l1.34.16a1.69,1.69,0,0,0,2-1.61,1.88,1.88,0,0,0-1.47-1.91l-2-.44,2.21,0a1.85,1.85,0,0,0,2-1.84A2,2,0,0,0,228.63,196Z"/><polygon class="cls-7" points="206.63 199.86 187.96 194.87 184.89 206.1 204.1 209.29 206.63 199.86"/><path class="cls-16" d="M170.72,184.41l32.73,11.19-6.93,14.8L165,203.35a9.92,9.92,0,0,1-7-13.26h0A9.91,9.91,0,0,1,170.72,184.41Z"/><line class="cls-16" x1="184.89" y1="189.26" x2="173.96" y2="185.52"/><rect class="cls-1" x="266.93" y="29.57" width="89.29" height="48.71" rx="5.76" transform="translate(623.15 107.85) rotate(-180)"/><rect class="cls-1" x="291.62" y="246.13" width="72.64" height="39.34" rx="4.67" transform="translate(655.88 531.6) rotate(-180)"/><path class="cls-1" d="M304.94,74.32,289.87,92a1.77,1.77,0,0,1-3.11-1.14V74.32"/><path class="cls-1" d="M294.82,272.39l-16.77-14.27a1.67,1.67,0,0,1,1.08-2.94h15.69"/><line class="cls-19" x1="340.36" y1="41.13" x2="282.79" y2="41.13"/><line class="cls-19" x1="340.36" y1="52.93" x2="282.79" y2="52.93"/><line class="cls-19" x1="340.36" y1="64.72" x2="282.79" y2="64.72"/><path class="cls-20" d="M346.8,150.37h18.33a2.32,2.32,0,0,0,2.32-2.33v-1.52a2.33,2.33,0,0,1,2.33-2.33h8.47a2.33,2.33,0,0,1,2.33,2.33v24.2a2.17,2.17,0,0,1-2.17,2.17H346.8a2.18,2.18,0,0,1-2.18-2.17V152.54A2.18,2.18,0,0,1,346.8,150.37Z"/><path class="cls-21" d="M351.44,150.37h15.81a2.19,2.19,0,0,0,2-2.33v-1.52a2.19,2.19,0,0,1,2-2.33h7.3a2.19,2.19,0,0,1,2,2.33v24.2a2,2,0,0,1-1.87,2.17H351.44a2,2,0,0,1-1.87-2.17V152.54A2,2,0,0,1,351.44,150.37Z"/><path class="cls-1" d="M378.48,152.48a.21.21,0,0,0,.21-.22V147a1.49,1.49,0,0,0-1.48-1.49H371a.22.22,0,0,0,0,.44h6.24a1,1,0,0,1,1.05,1v5.28A.22.22,0,0,0,378.48,152.48Z"/><path class="cls-21" d="M307.82,265.8a3.76,3.76,0,1,1,3.76,3.76A3.76,3.76,0,0,1,307.82,265.8Zm.94,0a2.82,2.82,0,1,0,2.82-2.81A2.82,2.82,0,0,0,308.76,265.8Z"/><path class="cls-21" d="M323.32,265.8a3.76,3.76,0,1,1,3.76,3.76A3.77,3.77,0,0,1,323.32,265.8Zm.95,0a2.81,2.81,0,1,0,2.81-2.81A2.81,2.81,0,0,0,324.27,265.8Z"/><path class="cls-21" d="M337.78,265.8a3.76,3.76,0,1,1,3.75,3.76A3.76,3.76,0,0,1,337.78,265.8Zm.94,0a2.82,2.82,0,1,0,2.81-2.81A2.81,2.81,0,0,0,338.72,265.8Z"/><path class="cls-1" d="M162.7,154.06a1.05,1.05,0,0,0,1.25-1.5l-7.56-14.38a33.31,33.31,0,0,1-8.86,11.07Z"/><path class="cls-1" d="M156.39,138.18a33.18,33.18,0,1,0-8.86,11.07A33.14,33.14,0,0,0,156.39,138.18Z"/><path class="cls-22" d="M104.45,111.75,127,125.06l22.56-13.31v0c0-.09-1.27-1.13-3.16-2.67l-.06,0C140.12,104,127,93.59,127,93.59S113.89,104,107.66,109c-1.92,1.57-3.19,2.63-3.21,2.72Z"/><path class="cls-23" d="M117.73,88.36h24.34a3.78,3.78,0,0,1,3.78,3.78v36.8a3.79,3.79,0,0,1-3.78,3.79h-30.5a3.79,3.79,0,0,1-3.78-3.79V98.3Z"/><path class="cls-24" d="M117.73,94.52A3.78,3.78,0,0,1,114,98.3h-6.16l9.94-9.94Z"/><rect class="cls-25" x="129" y="94.58" width="11.09" height="11.09" rx="1.35" transform="translate(269.1 200.25) rotate(-180)"/><path class="cls-1" d="M118.85,108.75H139a1.08,1.08,0,0,1,1.08,1.09h0a1.08,1.08,0,0,1-1.08,1.08H118.85a1.08,1.08,0,0,1-1.09-1.08h0A1.09,1.09,0,0,1,118.85,108.75Z"/><path class="cls-1" d="M118.85,114.16H139a1.08,1.08,0,0,1,1.08,1.08h0a1.08,1.08,0,0,1-1.08,1.09H118.85a1.09,1.09,0,0,1-1.09-1.09h0A1.08,1.08,0,0,1,118.85,114.16Z"/><path class="cls-26" d="M104.44,111.75V133.4a2.76,2.76,0,0,0,2.75,2.75h39.64a2.75,2.75,0,0,0,2.74-2.75V111.75L127,125.06Z"/><path class="cls-27" d="M105.21,135.29l14.52-14.53,7.28,4.3,7.28-4.3,14.52,14.53a2.75,2.75,0,0,1-2,.86H107.19A2.75,2.75,0,0,1,105.21,135.29Z"/><line class="cls-28" x1="176.12" y1="47" x2="186.97" y2="47"/><line class="cls-28" x1="181.54" y1="41.58" x2="181.54" y2="52.43"/><circle class="cls-28" cx="165.96" cy="56.36" r="3.93"/></g></g></svg>