<svg xmlns="http://www.w3.org/2000/svg" viewBox="0 0 335 346"><defs><style>.cls-1{fill:#7a4ecf;}.cls-10,.cls-2,.cls-7{fill:#fff;}.cls-2,.cls-26{stroke:#49caf2;}.cls-11,.cls-2,.cls-26{stroke-miterlimit:10;}.cls-11,.cls-22,.cls-25,.cls-27,.cls-3,.cls-8{fill:none;}.cls-11,.cls-3{stroke:#f2f2f2;}.cls-22,.cls-25,.cls-27,.cls-3,.cls-8{stroke-linecap:round;stroke-linejoin:round;}.cls-11,.cls-27,.cls-3{stroke-width:2px;}.cls-26,.cls-4{fill:#78dfff;}.cls-5{fill:#00b8f0;}.cls-6{fill:#e6e6e6;}.cls-8{stroke:#00c4ff;stroke-width:0.5px;}.cls-9{fill:#e9b089;}.cls-10,.cls-28,.cls-30{opacity:0.2;}.cls-12{opacity:0.1;}.cls-13,.cls-30{fill:#ffc0bb;}.cls-14{fill:#294286;}.cls-15{fill:#0096c4;}.cls-16{fill:#00a4d6;}.cls-17{fill:#e8be79;}.cls-18{fill:#ff5b7e;}.cls-19{fill:#ff7895;}.cls-20{fill:#f50;}.cls-21{fill:#eb4e00;}.cls-22{stroke:#e6e6e6;stroke-width:0.98px;}.cls-23{fill:#ff3881;}.cls-24{font-size:29.24px;fill:#00c4ff;font-family:Roboto-Black, Roboto;font-weight:800;}.cls-25{stroke:#fffffd;stroke-width:0.46px;}.cls-27{stroke:#fff;}.cls-29{opacity:0.3;}</style></defs><g id="Capa_4" data-name="Capa 4"><ellipse class="cls-1" cx="171.5" cy="337.58" rx="161.55" ry="4.23"/></g><g id="DESIGNED_BY_FREEPIK" data-name="DESIGNED BY FREEPIK"><circle class="cls-2" cx="289.99" cy="79.22" r="14.32"/><line class="cls-3" x1="223.36" y1="119.81" x2="300.93" y2="119.81"/><line class="cls-3" x1="223.36" y1="126.05" x2="300.93" y2="126.05"/><line class="cls-3" x1="223.36" y1="132.29" x2="300.93" y2="132.29"/><line class="cls-3" x1="223.36" y1="157.6" x2="300.93" y2="157.6"/><line class="cls-3" x1="223.36" y1="163.84" x2="300.93" y2="163.84"/><line class="cls-3" x1="223.36" y1="170.08" x2="300.93" y2="170.08"/><g id="OBJECTS"><rect class="cls-4" x="212.11" y="57.12" width="47.13" height="47.13" rx="3.43"/><rect class="cls-5" x="210.58" y="55.77" width="47.13" height="47.13" rx="3.43"/><rect class="cls-6" x="56.48" y="127.16" width="50.22" height="37.08" rx="3.77" transform="translate(163.18 291.4) rotate(-180)"/><path class="cls-6" d="M90.58,162.92l8.09,9.52a1,1,0,0,0,1.67-.61v-8.91"/><path class="cls-6" d="M115.55,90a1.06,1.06,0,0,1-1.16,1.59L98.61,87.75a33.22,33.22,0,0,0,8.59-11.28Z"/><path class="cls-6" d="M98.61,87.75a33.19,33.19,0,1,1,8.59-11.28A33.15,33.15,0,0,1,98.61,87.75Z"/><rect class="cls-4" x="267.95" y="56.84" width="47.13" height="47.13" rx="3.43"/><rect class="cls-5" x="266.42" y="55.49" width="47.13" height="47.13" rx="3.43"/><rect class="cls-7" x="57.51" y="125.8" width="50.22" height="37.08" rx="3.77" transform="translate(165.24 288.68) rotate(-180)"/><path class="cls-8" d="M75.3,159.93l-12.2,0a2.57,2.57,0,0,1-2.58-2.57v-8.7"/><line class="cls-8" x1="60.52" y1="146.24" x2="60.52" y2="142.62"/><path class="cls-9" d="M215.59,113.46a90.33,90.33,0,0,0-8.78,23.74C211.56,130.44,214.53,121.65,215.59,113.46Z"/><path class="cls-10" d="M180.52,105.85a191.24,191.24,0,0,0,6.7,19.8C187.76,118.39,184.85,111.7,180.52,105.85Z"/><path class="cls-7" d="M91.6,161.56l8.1,9.52a1,1,0,0,0,1.67-.61v-8.91"/><rect class="cls-11" x="210.12" y="111.95" width="105.77" height="28.46" rx="3.99"/><rect class="cls-11" x="210.12" y="149.74" width="105.77" height="28.46" rx="3.99"/><path class="cls-12" d="M146,139.33a41.19,41.19,0,0,0,25.09,10.36c-3.07-.55-7.3.39-10.41.13a23.81,23.81,0,0,1-9-2.21C148.84,146.18,146.66,142.39,146,139.33Z"/><path class="cls-13" d="M143.78,89.94a85.61,85.61,0,0,0-26.84,38.37,129.48,129.48,0,0,0,17.51,42.32c1.93-1.93,5.38-2.83,7.3-4.76a128.9,128.9,0,0,1-12.63-34.28A130.08,130.08,0,0,0,143.49,114C147.82,107.62,145.73,97.42,143.78,89.94Z"/><path class="cls-13" d="M218.92,110.62c.53-3.37-3.16-5.22-6.54-5.7-4.3,11.73-10.22,23.66-14.52,35.38q-7.73-17.64-15.43-35.27a9.43,9.43,0,0,0-1.88-3.12c-.88-.85-3.34-.23-4.46.25A60.45,60.45,0,0,0,189.57,158c2.32,2.53,6,5.6,9.33,4.79s5.91-3.6,7.37-6.71S217.56,119.37,218.92,110.62Z"/><path class="cls-12" d="M191.56,125.91a76.29,76.29,0,0,0-8.74,1.3c-2.11.41-4.32,1-5.86,2.47a6.26,6.26,0,0,0-1.25,1.74,60.52,60.52,0,0,0,3.54,10.6,30,30,0,0,0,13-14.58C192,126.93,191.79,126.42,191.56,125.91Z"/><path class="cls-14" d="M104.06,314.05a2.26,2.26,0,0,0-3.4,0,8,8,0,0,0-1.49,3.23c-.88,3.38-2.17,7.79-2.94,10.39a2.28,2.28,0,0,0,1.56,2.84l.33.09h0l7.63,2.18,22.6,6.46a1.53,1.53,0,0,0,1.49-2.58c-1.63-1.56-4.52-3.36-9.63-4.84a2.3,2.3,0,0,1-1.09-.68Z"/><path class="cls-13" d="M103.14,313l-2.57-15.8,11.31-1-.07,19.27,8.83,16.57-5.77-1.65a11.25,11.25,0,0,1-6.49-4.9C106.39,322.28,103.84,317.47,103.14,313Z"/><path class="cls-15" d="M139.53,152.92s-5.07,13.57-14,45.33c-9.74,34.5-28.76,116-28.76,116l18.49,1,51-149.81-4.88-12.47Z"/><line class="cls-15" x1="149.07" y1="214.86" x2="158.64" y2="187.54"/><path class="cls-14" d="M161.49,320a2.2,2.2,0,0,0-3.19.88,8.05,8.05,0,0,0-.57,3.59c.09,3.52.06,8.16,0,10.87a2.2,2.2,0,0,0,2.21,2.23h31.32a1.66,1.66,0,0,0,.7-3.17c-2-.93-5.19-1.71-10.06-1.73a2.24,2.24,0,0,1-1.2-.35Z"/><path class="cls-13" d="M160.38,319.29v-6.8l10.6-4.05-1.58,10.85,13,13.51h-6a11.26,11.26,0,0,1-7.58-2.93C166.05,327.32,162.28,323.39,160.38,319.29Z"/><path class="cls-16" d="M176.59,152.92s9.57,23.17,4.32,88.2-6.83,73.39-6.83,73.39l-17.3-.28,4-161.31Z"/><path class="cls-13" d="M170.93,52.37A46.44,46.44,0,0,1,167,79.28c-5.63.09-12.21-1.3-16.33-5.13A17.81,17.81,0,0,1,145,58.94,14.88,14.88,0,0,1,155.37,46.8C160.79,45.31,170.06,46.81,170.93,52.37Z"/><path class="cls-17" d="M151.44,73.45a209.81,209.81,0,0,1-3.12,20.88c4.76,1.35,10.4.35,15-1.44.15-6.22.07-12.48.22-18.7C160,72.52,155.4,73.31,151.44,73.45Z"/><path class="cls-18" d="M135.59,93.5c-5.8,5-15.28,18.45-18.65,25.31,2.78,6.29,8.85,9.43,16.33,10.76,3.24-3,7-6,10.26-9C150.57,113.92,141.75,100.93,135.59,93.5Z"/><path class="cls-19" d="M151.25,86.6c-7.75.94-13.56,8.13-15.36,15.73s-.42,15.54,1.05,23.2,4,19.72,2.59,27.39C152.14,159,165.77,157,179.44,154a132.55,132.55,0,0,0,7-29.68c1-10-.58-20.5-6.31-28.7S161.18,85.39,151.25,86.6Z"/><path class="cls-12" d="M182.4,102.36a5.31,5.31,0,0,0-8.73.43,15.35,15.35,0,0,0-2.21,4.93,57.69,57.69,0,0,0-.64,30.3,27.83,27.83,0,0,0,3.77-.38,60.53,60.53,0,0,0,5.5,14.44,128.8,128.8,0,0,0,6.34-27.73,50.47,50.47,0,0,0-1-16.58c-.2-.45-.39-.9-.6-1.35A15.18,15.18,0,0,0,182.4,102.36Z"/><path class="cls-20" d="M155.41,115.57c4.86.81,9-3.61,11.14-8a34.55,34.55,0,0,0,1.37-26.22c-1.67-4.66-4.38-9.64-2.58-14.26,1-2.61,3.29-4.47,5.43-6.27s4.35-3.82,5.09-6.52-.71-6.18-3.49-6.54a13.39,13.39,0,0,0-10.58-4.27c-4,.12-7.87,1.39-11.67,2.66-5,1.65-10.56,3.91-12.21,8.87-1.71,5.12,1.68,10.81.33,16-1.26,4.86-6.31,8.11-7.29,13-1.08,5.43,3.17,10.65,3,16.18-.18,4.18-2.91,8.11-2.33,12.26.62,4.44,5,7.59,9.43,8.27S151.1,116.78,155.41,115.57Z"/><path class="cls-13" d="M170.76,64.47a21.15,21.15,0,0,0,.86,6.8l-.35.62c-.86.07-1.75,0-2.61.09A12.33,12.33,0,0,1,170.76,64.47Z"/><path class="cls-18" d="M173.65,138a30.37,30.37,0,0,0,19.89-11.34,82.06,82.06,0,0,0-8.88-21.44,15.28,15.28,0,0,0-2.81-3.81,5.32,5.32,0,0,0-8.65,1.25,14.88,14.88,0,0,0-1.74,5.11A57.71,57.71,0,0,0,173.65,138Z"/><path class="cls-21" d="M162.49,75.85c-.67-3.66,1.53-6.94,2.9-8.58a38.23,38.23,0,0,1,3.47-3.5c1-.9,2-1.82,2.85-2.8,2.88-3.18,4-6.78,3.11-9.63l1-.31c1,3.19-.19,7.16-3.32,10.61-.92,1-1.93,2-2.91,2.86a39.09,39.09,0,0,0-3.39,3.42c-1.25,1.49-3.27,4.5-2.68,7.75Z"/><path class="cls-21" d="M135.28,108.5l-1-.17c.75-4.23-.9-8.49-2.48-12.61l-.3-.76c-1.78-4.65-3.18-9.57-1.42-14.06a21.67,21.67,0,0,1,2.59-4.39,15.69,15.69,0,0,0,2.81-5.23,15.71,15.71,0,0,0-.1-5.83,28.11,28.11,0,0,1-.34-3.9,13.87,13.87,0,0,1,8.46-12.46l.38.93a12.83,12.83,0,0,0-7.84,11.54,26.53,26.53,0,0,0,.34,3.75,16.57,16.57,0,0,1,.07,6.2,16.57,16.57,0,0,1-3,5.58A20.58,20.58,0,0,0,131,81.26c-1.64,4.18-.28,8.88,1.43,13.34l.29.76C134.39,99.61,136.08,104,135.28,108.5Z"/><path class="cls-21" d="M157.25,116.72c-.39,0-.79,0-1.19,0a37.31,37.31,0,0,1-8.68-2l.3-1a36.19,36.19,0,0,0,8.45,2,12,12,0,0,0,8-2,11.56,11.56,0,0,0,4-6.5,28,28,0,0,0,.57-7.93A94.51,94.51,0,0,0,166,79.58l1-.25a96,96,0,0,1,2.81,19.88,29,29,0,0,1-.6,8.21,12.59,12.59,0,0,1-4.37,7A12.45,12.45,0,0,1,157.25,116.72Z"/><path class="cls-10" d="M128.47,105.31a36,36,0,0,0-9.27,15.16A32.15,32.15,0,0,0,128.47,105.31Z"/><path class="cls-10" d="M156.91,107.68a27,27,0,0,0,8.22-22.12,42.62,42.62,0,0,1,1.32,9,14.36,14.36,0,0,1-2.42,8.26C162.32,105.21,159.82,107.86,156.91,107.68Z"/><path class="cls-7" d="M118,88a1.06,1.06,0,0,1-1.16,1.59l-15.78-3.86a33.22,33.22,0,0,0,8.59-11.28Z"/><path class="cls-7" d="M101.07,85.76a33.19,33.19,0,1,1,8.59-11.28A33.15,33.15,0,0,1,101.07,85.76Z"/><path class="cls-22" d="M61.54,38.43A28.19,28.19,0,0,1,79.5,32h.17"/><path class="cls-22" d="M55.48,45.32a28.11,28.11,0,0,1,3.45-4.46"/><path class="cls-23" d="M95.17,64.88A3.87,3.87,0,1,1,99,61,3.87,3.87,0,0,1,95.17,64.88Zm0-6.76A2.89,2.89,0,1,0,98.06,61,2.89,2.89,0,0,0,95.17,58.12Z"/><path class="cls-23" d="M79.21,64.88A3.87,3.87,0,1,1,83.08,61,3.87,3.87,0,0,1,79.21,64.88Zm0-6.76A2.89,2.89,0,1,0,82.11,61,2.89,2.89,0,0,0,79.21,58.12Z"/><path class="cls-23" d="M64.34,64.88A3.87,3.87,0,1,1,68.21,61,3.88,3.88,0,0,1,64.34,64.88Zm0-6.76A2.89,2.89,0,1,0,67.23,61,2.89,2.89,0,0,0,64.34,58.12Z"/><text class="cls-24" transform="translate(76.25 153.6)">?</text><path class="cls-25" d="M87.66,135c1.34.72,1.54,2.8,1.16,4.08a4.92,4.92,0,0,1-1.58,2.35"/><path class="cls-25" d="M83.93,150a1.35,1.35,0,0,1-.22,2.65"/></g></g><g id="Capa_5" data-name="Capa 5"><circle class="cls-26" cx="235.68" cy="79.02" r="14.32"/><polyline class="cls-27" points="228.26 81.75 232.07 85.06 242.49 73.43"/></g><g id="Capa_6" data-name="Capa 6"><path class="cls-13" d="M209.6,114.31,211,110a7.66,7.66,0,0,0-.29-5.57A20.15,20.15,0,0,1,209,98.46a11.14,11.14,0,0,0-2.65-6.13s1.42-1.49,2.91.52a13.67,13.67,0,0,1,1.92,3.9,1.05,1.05,0,0,0,.71.71h0a1.07,1.07,0,0,0,1.26-.51l.22-.41a15.67,15.67,0,0,0,1.69-5l1.35-8.7a.74.74,0,0,1,.87-.62h0a.74.74,0,0,1,.62.76l-.25,9a.22.22,0,0,0,.43.08l3-9.09a.77.77,0,0,1,.87-.51H222a.77.77,0,0,1,.62.89l-1.54,9a.22.22,0,0,0,.42.12l3-7.33a.77.77,0,0,1,1.08-.38h0a.78.78,0,0,1,.37.88l-2.7,9.87a.22.22,0,0,0,.4.18L227.58,90a.77.77,0,0,1,1.1-.19h0a.77.77,0,0,1,.23,1l-5.86,12.49-3.27,5.64-2.88,8.18Z"/><g class="cls-28"><path class="cls-13" d="M224.38,98a1.19,1.19,0,0,0-.89-.62"/><path class="cls-13" d="M224.38,98a.61.61,0,0,0-.27-.55.6.6,0,0,0-.62-.07c.17.15.3.24.43.34A4.24,4.24,0,0,0,224.38,98Z"/><path class="cls-13" d="M222.37,95.21a.65.65,0,0,0-.29-.59.66.66,0,0,0-.65-.07l.46.34Z"/><path class="cls-13" d="M220.08,93.54a.78.78,0,0,0-.52-.55.76.76,0,0,0-.74.09l.63.21Z"/><path class="cls-13" d="M216.92,92.76a.58.58,0,0,0-.45-.39.6.6,0,0,0-.56.18,2.79,2.79,0,0,0,.5.14A4.51,4.51,0,0,0,216.92,92.76Z"/></g><g class="cls-29"><path class="cls-13" d="M227.85,90.22a.44.44,0,0,1,.29-.19.45.45,0,0,1,.48.63l-.26.55a4,4,0,0,0-.85-.5Z"/><path class="cls-13" d="M217.55,83v.27a6.64,6.64,0,0,0-.87-.16l0-.19a.38.38,0,0,1,.17-.28.42.42,0,0,1,.68.36Z"/><path class="cls-13" d="M224.85,85.29a.44.44,0,0,1,.63-.23.44.44,0,0,1,.21.51l-.05.22a3.4,3.4,0,0,0-.89-.27Z"/><path class="cls-13" d="M221.35,83.26l.06-.19a.45.45,0,0,1,.5-.3H222a.47.47,0,0,1,.36.52l0,.16A4.08,4.08,0,0,0,221.35,83.26Z"/></g><path class="cls-30" d="M206.79,92a3.59,3.59,0,0,1,1.28,1.46,2.17,2.17,0,0,1-.44.74,10.28,10.28,0,0,0-1.31-1.87A2.07,2.07,0,0,1,206.79,92Z"/></g></svg>