<svg xmlns="http://www.w3.org/2000/svg" viewBox="0 0 480 474"><defs><style>.cls-1,.cls-12,.cls-2,.cls-25,.cls-28,.cls-30,.cls-33,.cls-6,.cls-7,.cls-9{fill:none;}.cls-1,.cls-28{stroke:#fffffd;}.cls-1,.cls-2,.cls-29,.cls-31,.cls-32,.cls-9{stroke-miterlimit:10;}.cls-1,.cls-2{stroke-width:0.75px;}.cls-2{stroke:#7a4ecf;}.cls-3{fill:#7a4ecf;}.cls-14,.cls-29,.cls-4{fill:#fff;}.cls-5{fill:#874afc;}.cls-30,.cls-33,.cls-6,.cls-9{stroke:#fff;}.cls-12,.cls-25,.cls-28,.cls-30,.cls-33,.cls-6,.cls-7{stroke-linecap:round;stroke-linejoin:round;}.cls-29,.cls-31,.cls-32,.cls-6,.cls-7,.cls-9{stroke-width:1.18px;}.cls-7{stroke:#b793fd;}.cls-31,.cls-8{fill:#78dfff;}.cls-10{fill:#00b8f0;}.cls-11{fill:#e6e6e6;}.cls-12{stroke:#00c4ff;stroke-width:0.6px;}.cls-13{fill:#e9b089;}.cls-14,.cls-34,.cls-36{opacity:0.2;}.cls-15{opacity:0.1;}.cls-16,.cls-36{fill:#ffc0bb;}.cls-17{fill:#294286;}.cls-18{fill:#0096c4;}.cls-19{fill:#00a4d6;}.cls-20{fill:#e8be79;}.cls-21{fill:#ff5b7e;}.cls-22{fill:#ff7895;}.cls-23{fill:#f50;}.cls-24{fill:#eb4e00;}.cls-25{stroke:#e6e6e6;stroke-width:0.98px;}.cls-26{fill:#ff3881;}.cls-27{font-size:34.97px;fill:#00c4ff;font-family:Roboto-Black, Roboto;font-weight:800;}.cls-28{stroke-width:0.55px;}.cls-29,.cls-31,.cls-32{stroke:#49caf2;}.cls-32{fill:#49caf2;}.cls-33{stroke-width:2.37px;}.cls-35{opacity:0.3;}</style></defs><g id="Capa_6" data-name="Capa 6"><path class="cls-1" d="M155.1,29.94H457.54a4.55,4.55,0,0,1,4.55,4.55V54.68a0,0,0,0,1,0,0H150.55a0,0,0,0,1,0,0V34.49A4.55,4.55,0,0,1,155.1,29.94Z"/><circle class="cls-1" cx="163.8" cy="42.36" r="2.9"/><circle class="cls-1" cx="175.1" cy="42.31" r="2.9"/><circle class="cls-1" cx="186.4" cy="42.26" r="2.9"/><path class="cls-1" d="M150.55,54.68V261.61a6.24,6.24,0,0,0,6.24,6.24H455.86a6.24,6.24,0,0,0,6.24-6.24V54.68"/><rect class="cls-2" x="34.14" y="295.89" width="66.51" height="3.73" rx="1.87"/><rect class="cls-3" x="434.19" y="15.57" width="28.85" height="3.73" rx="1.87"/><rect class="cls-3" x="64.97" y="305.56" width="28.85" height="3.73" rx="1.87"/><rect class="cls-2" x="408.64" y="15.57" width="19.26" height="3.73" rx="1.87"/><circle class="cls-3" cx="131.99" cy="19.5" r="5.8"/><rect class="cls-4" x="213.38" y="98.18" width="151.19" height="212.89" rx="9.14"/><rect class="cls-5" x="209.6" y="93.85" width="151.19" height="212.89" rx="7.71"/><path class="cls-6" d="M221.88,266.09V294a3.37,3.37,0,0,0,3.37,3.38h118a3.38,3.38,0,0,0,3.38-3.38v-7.83"/><line class="cls-6" x1="346.63" y1="281.61" x2="346.63" y2="276.61"/><path class="cls-7" d="M285.4,84.13h83.53a6.36,6.36,0,0,1,6.36,6.36v48.87"/><line class="cls-7" x1="375.29" y1="148.89" x2="375.29" y2="168.61"/><ellipse class="cls-3" cx="180.25" cy="459.97" rx="161.55" ry="4.23"/><rect class="cls-8" x="221.33" y="176.88" width="125.29" height="33.71" rx="4.72"/><line class="cls-6" x1="238.93" y1="186.74" x2="289.94" y2="186.74"/><line class="cls-6" x1="238.93" y1="194.14" x2="289.94" y2="194.14"/><line class="cls-6" x1="238.93" y1="201.53" x2="289.94" y2="201.53"/><circle class="cls-9" cx="306.32" cy="193.58" r="7.25"/><circle class="cls-9" cx="325" cy="193.58" r="7.25"/><rect class="cls-8" x="221.33" y="219.57" width="125.29" height="33.71" rx="4.72"/><line class="cls-6" x1="238.27" y1="229.59" x2="289.28" y2="229.59"/><line class="cls-6" x1="238.27" y1="236.98" x2="289.28" y2="236.98"/><line class="cls-6" x1="238.27" y1="244.37" x2="289.28" y2="244.37"/><circle class="cls-9" cx="305.67" cy="236.42" r="7.25"/><circle class="cls-9" cx="324.35" cy="236.42" r="7.25"/><rect class="cls-8" x="223.69" y="111.39" width="55.83" height="55.83" rx="4.06"/><rect class="cls-10" x="221.88" y="109.79" width="55.83" height="55.83" rx="4.06"/><rect class="cls-11" x="33.17" y="205.21" width="60.06" height="44.35" rx="4.51" transform="translate(126.39 454.77) rotate(-180)"/><path class="cls-11" d="M93,229.65,104.38,220a1.13,1.13,0,0,0-.74-2H93"/><path class="cls-11" d="M114.74,132.62a1.06,1.06,0,0,1-1.16,1.59L97.8,130.35a33.22,33.22,0,0,0,8.59-11.28Z"/><path class="cls-11" d="M97.8,130.35a33.19,33.19,0,1,1,8.59-11.28A33.15,33.15,0,0,1,97.8,130.35Z"/><rect class="cls-8" x="289.84" y="111.06" width="55.83" height="55.83" rx="4.06"/><rect class="cls-10" x="288.03" y="109.46" width="55.83" height="55.83" rx="4.06"/><rect class="cls-4" x="34.39" y="203.58" width="60.06" height="44.35" rx="4.51" transform="translate(128.85 451.51) rotate(-180)"/><path class="cls-12" d="M55.67,244.4l-14.59,0A3.08,3.08,0,0,1,38,241.36V231"/><line class="cls-12" x1="37.99" y1="228.03" x2="37.99" y2="223.7"/><path class="cls-13" d="M237.64,179.23a112.94,112.94,0,0,0-11,29.7C232.59,200.48,236.32,189.48,237.64,179.23Z"/><path class="cls-14" d="M193.78,169.72a234.79,234.79,0,0,0,8.38,24.76C202.83,185.41,199.19,177,193.78,169.72Z"/><path class="cls-4" d="M92.8,228.05l11.39-9.68a1.14,1.14,0,0,0-.73-2H92.8"/><path class="cls-15" d="M150.6,211.6a51.51,51.51,0,0,0,31.38,13c-3.85-.69-9.14.49-13,.17A30.05,30.05,0,0,1,157.63,222C154.16,220.16,151.43,215.42,150.6,211.6Z"/><path class="cls-16" d="M147.83,149.82a107.1,107.1,0,0,0-33.57,48,162,162,0,0,0,21.9,52.92c2.41-2.41,6.72-3.54,9.13-6-7.35-13.17-12.5-28.16-15.8-42.88a162.58,162.58,0,0,0,18-22C152.88,171.93,150.26,159.18,147.83,149.82Z"/><path class="cls-16" d="M241.81,175.69c.66-4.22-4-6.53-8.19-7.13-5.38,14.67-12.78,29.58-18.16,44.25l-19.3-44.11a11.87,11.87,0,0,0-2.35-3.91c-1.1-1.06-4.17-.28-5.58.32a75.61,75.61,0,0,0,16.86,69.78c2.91,3.17,7.49,7,11.67,6s7.4-4.5,9.23-8.39S240.1,186.63,241.81,175.69Z"/><path class="cls-15" d="M207.59,194.81a94.93,94.93,0,0,0-10.93,1.62c-2.64.52-5.41,1.22-7.34,3.1a8,8,0,0,0-1.56,2.18A77.58,77.58,0,0,0,192.18,215a37.68,37.68,0,0,0,16.25-18.24Z"/><path class="cls-17" d="M98.15,430.11a2.83,2.83,0,0,0-4.26,0A10.14,10.14,0,0,0,92,434.13c-1.09,4.23-2.7,9.74-3.67,13a2.85,2.85,0,0,0,2,3.55l.41.11h0l9.54,2.73,28.27,8.08a1.92,1.92,0,0,0,1.86-3.24c-2-1.94-5.65-4.19-12-6.05a2.87,2.87,0,0,1-1.36-.85Z"/><path class="cls-16" d="M97,428.8,93.78,409l14.15-1.24-.09,24.1,11,20.72-7.21-2.06a14,14,0,0,1-8.11-6.13C101.06,440.4,97.87,434.39,97,428.8Z"/><path class="cls-18" d="M142.51,228.59s-6.34,17-17.56,56.69c-12.18,43.16-36,145.06-36,145.06l23.12,1.22L176,244.19l-6.12-15.6Z"/><line class="cls-18" x1="154.44" y1="306.05" x2="166.41" y2="271.89"/><path class="cls-17" d="M170,437.56a2.76,2.76,0,0,0-4,1.11,10,10,0,0,0-.72,4.49c.11,4.41.08,10.2,0,13.59a2.76,2.76,0,0,0,2.77,2.79h39.16a2.08,2.08,0,0,0,.88-4c-2.54-1.17-6.48-2.14-12.58-2.16A2.88,2.88,0,0,1,194,453Z"/><path class="cls-16" d="M168.58,436.67v-8.5l13.27-5.08-2,13.58,16.31,16.89h-7.5a14.06,14.06,0,0,1-9.48-3.66C175.68,446.71,171,441.8,168.58,436.67Z"/><path class="cls-19" d="M188.87,228.59s12,29,5.39,110.31-8.54,91.79-8.54,91.79l-21.63-.35,5-201.75Z"/><path class="cls-16" d="M181.78,102.83a58.14,58.14,0,0,1-4.87,33.66c-7,.12-15.27-1.62-20.43-6.41a22.33,22.33,0,0,1-7.1-19c1-7,6.15-13.32,12.94-15.19S180.69,95.88,181.78,102.83Z"/><path class="cls-20" d="M157.4,129.2a255.84,255.84,0,0,1-3.9,26.12c6,1.68,13,.43,18.78-1.81.19-7.78.08-15.61.27-23.39C168.06,128,162.35,129,157.4,129.2Z"/><path class="cls-21" d="M137.58,154.28c-7.25,6.23-19.1,23.07-23.32,31.65,3.48,7.86,11.07,11.79,20.42,13.46,4.06-3.81,8.77-7.51,12.84-11.32C156.32,179.81,145.29,163.57,137.58,154.28Z"/><path class="cls-22" d="M157.17,145.64c-9.69,1.18-17,10.18-19.21,19.68s-.53,19.43,1.31,29,5,24.65,3.24,34.25c15.78,7.6,32.81,5.14,49.92,1.39,4.1-11.82,7.51-24.67,8.73-37.12s-.71-25.64-7.89-35.9S169.59,144.13,157.17,145.64Z"/><path class="cls-15" d="M196.13,165.36a6.62,6.62,0,0,0-10.91.54,18.55,18.55,0,0,0-2.77,6.16,72.1,72.1,0,0,0-.8,37.9,35.78,35.78,0,0,0,4.72-.48,75,75,0,0,0,6.87,18.06,160.31,160.31,0,0,0,7.92-34.68,63,63,0,0,0-1.23-20.73c-.25-.57-.49-1.14-.75-1.7A18.91,18.91,0,0,0,196.13,165.36Z"/><path class="cls-23" d="M162.38,181.88c6.07,1,11.26-4.52,13.92-10.07A43.21,43.21,0,0,0,178,139c-2.08-5.83-5.48-12.06-3.23-17.83,1.27-3.27,4.12-5.6,6.8-7.85s5.43-4.78,6.36-8.16-.89-7.72-4.37-8.17a16.72,16.72,0,0,0-13.23-5.34c-5,.14-9.84,1.74-14.6,3.32-6.2,2.07-13.2,4.89-15.26,11.09-2.14,6.41,2.1,13.53.41,20.07-1.57,6.08-7.89,10.14-9.12,16.3-1.35,6.79,4,13.31,3.68,20.23-.21,5.23-3.63,10.15-2.9,15.34.77,5.55,6.25,9.48,11.79,10.34S157,183.39,162.38,181.88Z"/><path class="cls-16" d="M181.56,118a26.83,26.83,0,0,0,1.08,8.5c-.13.26-.3.53-.43.78-1.08.09-2.19,0-3.26.11A15.5,15.5,0,0,1,181.56,118Z"/><path class="cls-21" d="M185.19,209.87a38,38,0,0,0,24.88-14.19A103.23,103.23,0,0,0,199,168.87a19.42,19.42,0,0,0-3.51-4.76,6.64,6.64,0,0,0-10.82,1.55,18.68,18.68,0,0,0-2.18,6.4A72.08,72.08,0,0,0,185.19,209.87Z"/><path class="cls-24" d="M171.23,132.2c-.84-4.57,1.91-8.68,3.62-10.72a50,50,0,0,1,4.34-4.39c1.21-1.12,2.45-2.28,3.56-3.5,3.61-4,5.07-8.48,3.9-12l1.19-.39c1.31,4-.24,9-4.16,13.27-1.15,1.26-2.41,2.44-3.64,3.58a48.71,48.71,0,0,0-4.23,4.27c-1.57,1.87-4.09,5.63-3.35,9.69Z"/><path class="cls-24" d="M137.2,173l-1.24-.22c.95-5.29-1.11-10.61-3.1-15.77l-.36-1c-2.23-5.82-4-12-1.78-17.58A26.52,26.52,0,0,1,134,133c1.51-2.14,2.93-4.15,3.51-6.55a19.7,19.7,0,0,0-.12-7.29,34.29,34.29,0,0,1-.43-4.87A17.36,17.36,0,0,1,147.5,98.73l.47,1.16a16.07,16.07,0,0,0-9.8,14.44,33.91,33.91,0,0,0,.42,4.69,20.87,20.87,0,0,1,.09,7.76,20.9,20.9,0,0,1-3.7,7,26.41,26.41,0,0,0-3.1,5.22c-2,5.22-.35,11.1,1.79,16.68l.36.95C136.08,161.92,138.2,167.41,137.2,173Z"/><path class="cls-24" d="M164.68,183.32c-.49,0-1,0-1.49-.06a46.65,46.65,0,0,1-10.86-2.52l.37-1.2A46.39,46.39,0,0,0,163.28,182a15,15,0,0,0,10.05-2.52,14.42,14.42,0,0,0,5-8.12,35.48,35.48,0,0,0,.72-9.92,119.48,119.48,0,0,0-3.48-24.6l1.21-.3a119.87,119.87,0,0,1,3.52,24.86,36.18,36.18,0,0,1-.76,10.26,14.23,14.23,0,0,1-14.86,11.64Z"/><path class="cls-14" d="M128.68,169a45.17,45.17,0,0,0-11.6,19A40.08,40.08,0,0,0,128.68,169Z"/><path class="cls-14" d="M164.25,172a33.74,33.74,0,0,0,10.28-27.66,52.79,52.79,0,0,1,1.65,11.29,18,18,0,0,1-3,10.33C171,168.92,167.88,172.23,164.25,172Z"/><path class="cls-4" d="M117.2,130.63a1.06,1.06,0,0,1-1.16,1.59l-15.78-3.86a33.22,33.22,0,0,0,8.59-11.28Z"/><path class="cls-4" d="M100.26,128.36a33.19,33.19,0,1,1,8.59-11.28A33.15,33.15,0,0,1,100.26,128.36Z"/><path class="cls-25" d="M60.73,81a28.19,28.19,0,0,1,18-6.43h.17"/><path class="cls-25" d="M54.67,87.92a27.66,27.66,0,0,1,3.45-4.46"/><path class="cls-26" d="M94.35,107.48a3.87,3.87,0,1,1,3.87-3.87A3.87,3.87,0,0,1,94.35,107.48Zm0-6.76a2.89,2.89,0,1,0,2.9,2.89A2.89,2.89,0,0,0,94.35,100.72Z"/><path class="cls-26" d="M78.4,107.48a3.87,3.87,0,1,1,3.87-3.87A3.88,3.88,0,0,1,78.4,107.48Zm0-6.76a2.89,2.89,0,1,0,2.89,2.89A2.89,2.89,0,0,0,78.4,100.72Z"/><path class="cls-26" d="M63.53,107.48a3.87,3.87,0,1,1,3.87-3.87A3.88,3.88,0,0,1,63.53,107.48Zm0-6.76a2.89,2.89,0,1,0,2.89,2.89A2.89,2.89,0,0,0,63.53,100.72Z"/><text class="cls-27" transform="translate(56.8 236.84)">?</text><path class="cls-28" d="M70.46,214.53c1.59.86,1.84,3.34,1.38,4.88a5.79,5.79,0,0,1-1.88,2.8"/><path class="cls-28" d="M66,232.49a1.61,1.61,0,0,1-.26,3.16"/><circle class="cls-29" cx="315.94" cy="137.58" r="16.96"/><line class="cls-30" x1="371.5" y1="320.29" x2="382.34" y2="320.29"/><line class="cls-30" x1="376.92" y1="314.86" x2="376.92" y2="325.71"/><circle class="cls-30" cx="361.33" cy="329.64" r="3.93"/><circle class="cls-2" cx="151.52" cy="9.77" r="3.93"/><circle class="cls-2" cx="447.63" cy="301.93" r="3.93"/><line class="cls-30" x1="32.57" y1="64.65" x2="43.42" y2="64.65"/><line class="cls-30" x1="37.99" y1="59.23" x2="37.99" y2="70.07"/><circle class="cls-31" cx="251.61" cy="137.34" r="16.96"/><circle class="cls-32" cx="315.94" cy="137.76" r="16.96"/><polyline class="cls-33" points="242.82 140.57 247.33 144.49 259.68 130.72"/><path class="cls-16" d="M230.15,180.3l1.8-5.44a9.62,9.62,0,0,0-.36-7,25,25,0,0,1-2.23-7.42,14,14,0,0,0-3.31-7.67s1.77-1.86,3.63.65a17.11,17.11,0,0,1,2.4,4.88,1.32,1.32,0,0,0,.89.89h0a1.35,1.35,0,0,0,1.58-.64l.27-.51a19.25,19.25,0,0,0,2.11-6.25L238.62,141a1,1,0,0,1,1.1-.79h0a1,1,0,0,1,.77,1l-.31,11.23a.27.27,0,0,0,.53.1l3.82-11.36a1,1,0,0,1,1.09-.64h.09a1,1,0,0,1,.78,1.11l-1.94,11.29a.28.28,0,0,0,.53.15l3.76-9.17a1,1,0,0,1,1.36-.48h0a1,1,0,0,1,.47,1.1l-3.37,12.34a.27.27,0,0,0,.49.23l4.84-7.1a1,1,0,0,1,1.38-.22h0a1,1,0,0,1,.29,1.18L247,166.53l-4.09,7-3.61,10.24Z"/><g class="cls-34"><path class="cls-16" d="M248.63,159.92a1.46,1.46,0,0,0-1.11-.78"/><path class="cls-16" d="M248.63,159.92a.81.81,0,0,0-1.11-.78,5.05,5.05,0,0,0,.54.42A5.22,5.22,0,0,0,248.63,159.92Z"/><path class="cls-16" d="M246.12,156.41a.81.81,0,0,0-.37-.73.79.79,0,0,0-.81-.09c.23.18.4.29.58.42S245.87,156.26,246.12,156.41Z"/><path class="cls-16" d="M243.25,154.32a1,1,0,0,0-.64-.68,1,1,0,0,0-.94.11l.8.27C242.72,154.1,243,154.2,243.25,154.32Z"/><path class="cls-16" d="M239.3,153.35a.76.76,0,0,0-1.26-.26,4.6,4.6,0,0,0,.62.17A4.47,4.47,0,0,0,239.3,153.35Z"/></g><g class="cls-35"><path class="cls-16" d="M253,150.17a.51.51,0,0,1,.37-.23.53.53,0,0,1,.42.1.55.55,0,0,1,.18.68l-.32.69a5.78,5.78,0,0,0-1.07-.63Z"/><path class="cls-16" d="M240.09,141.12v.34a6.86,6.86,0,0,0-1.1-.2l0-.24a.53.53,0,0,1,.22-.36.58.58,0,0,1,.41-.09A.55.55,0,0,1,240.09,141.12Z"/><path class="cls-16" d="M249.22,144a.56.56,0,0,1,.79-.27.57.57,0,0,1,.27.63l-.08.27a4.54,4.54,0,0,0-1.1-.34Z"/><path class="cls-16" d="M244.84,141.47l.08-.24a.56.56,0,0,1,.63-.37h.09a.57.57,0,0,1,.45.65l0,.2A5,5,0,0,0,244.84,141.47Z"/></g><path class="cls-36" d="M226.63,152.39a4.49,4.49,0,0,1,1.6,1.84,2.43,2.43,0,0,1-.55.92,12.64,12.64,0,0,0-1.63-2.34A2.47,2.47,0,0,1,226.63,152.39Z"/></g></svg>