<svg xmlns="http://www.w3.org/2000/svg" xmlns:xlink="http://www.w3.org/1999/xlink" viewBox="0 0 332 473"><defs><style>.cls-1,.cls-13{fill:#fff;}.cls-2{fill:#7a4ecf;}.cls-10,.cls-14,.cls-16,.cls-18,.cls-3,.cls-4,.cls-8{fill:none;}.cls-3{stroke:#ff3881;stroke-width:0.75px;}.cls-14,.cls-3{stroke-miterlimit:10;}.cls-4{stroke:#e6e6e6;stroke-width:0.98px;}.cls-10,.cls-16,.cls-18,.cls-4,.cls-8{stroke-linecap:round;stroke-linejoin:round;}.cls-5{fill:#1f0c07;}.cls-6{fill:#e9b089;}.cls-7{fill:#294286;}.cls-10,.cls-16,.cls-8{stroke:#000;}.cls-8{stroke-width:0.46px;}.cls-9{fill:#d7896d;}.cls-10{stroke-width:0.45px;}.cls-11{clip-path:url(#clip-path);}.cls-12{clip-path:url(#clip-path-2);}.cls-13{opacity:0.22;}.cls-14{stroke:#944e30;stroke-width:0.72px;}.cls-15{fill:#ff80af;}.cls-16{stroke-width:0.57px;}.cls-17{fill:#3b5fbf;}.cls-18{stroke:#c4c4c4;stroke-width:1.3px;}.cls-19{fill:#ff639d;}.cls-20{fill:#ff3881;}.cls-21{fill:#87e3ff;}.cls-22{fill:#e6e8e8;}.cls-23{fill:#cfd1d1;}.cls-24{fill:#a8eaff;}.cls-25{fill:#00c4ff;}.cls-26{fill:#00b8f0;}</style><clipPath id="clip-path"><path class="cls-1" d="M145.34,100s-2.4-5.88-9.82-.36C135.52,99.68,139.55,104.79,145.34,100Z"/></clipPath><clipPath id="clip-path-2"><path class="cls-1" d="M151,99.22s1.57-6.36,6.53-2.79C157.53,96.43,155.74,102.5,151,99.22Z"/></clipPath></defs><g id="Capa_4" data-name="Capa 4"><ellipse class="cls-2" cx="164.17" cy="456.76" rx="161.55" ry="4.23"/></g><g id="OBJECTS"><path class="cls-1" d="M248,214.4a1.06,1.06,0,0,0,1.16,1.59l15.78-3.86a33.22,33.22,0,0,1-8.59-11.28Z"/><path class="cls-1" d="M264.9,212.13a33.19,33.19,0,1,0-8.59-11.28A33.15,33.15,0,0,0,264.9,212.13Z"/><line class="cls-3" x1="294.95" y1="204.93" x2="276.97" y2="204.93"/><path class="cls-4" d="M304.42,164.79a28.21,28.21,0,0,0-17.95-6.42h-.17"/><path class="cls-4" d="M310.48,171.69a27.11,27.11,0,0,0-3.45-4.46"/><path class="cls-5" d="M149.18,431.52s-3.78-.14-3.6,7.06,0,17.82,0,17.82h3.6V444L160,456.4h37.09s-2-6.84-19.44-6.66Z"/><path class="cls-6" d="M149.18,431.52v-9.26l14.44-5.52-2.16,14.78L179.2,449.9H171a15.27,15.27,0,0,1-10.32-4C156.9,442.44,151.77,437.1,149.18,431.52Z"/><path class="cls-7" d="M171.25,205.09s13,31.53,5.87,120S167.83,425,167.83,425l-23.54-.38,5.47-219.54Z"/><path class="cls-5" d="M93.12,431.52s3.78-.14,3.6,7.06,0,17.82,0,17.82h-3.6V444L82.32,456.4H45.23s2-6.84,19.45-6.66Z"/><path class="cls-6" d="M93.12,431.52l9.27-19.72L88,406.28l-7.11,25.24L63.1,449.9h8.17a15.24,15.24,0,0,0,10.31-4C85.4,442.44,90.53,437.1,93.12,431.52Z"/><path class="cls-7" d="M134.63,205.09s-6.9,18.47-19.1,61.69c-13.27,47-39.15,157.85-39.15,157.85L101.55,426,171,222.07l-6.65-17Z"/><line class="cls-8" x1="147.62" y1="289.39" x2="160.65" y2="252.21"/><path d="M116.64,87.32a36.05,36.05,0,0,0-1.82,19.58c2,11.7-10.91,10.57-9.37,21.9,0,0,36.53,10.85,70.28-11.15,0,0,2.31-10-4.74-12.43-9.87-3.37-12.37-13.58-12.37-13.58Z"/><ellipse cx="136.92" cy="94.59" rx="21.91" ry="20.34" transform="translate(-11.51 19.33) rotate(-7.75)"/><polygon class="cls-6" points="134.86 111.27 135.31 144.64 151.41 142.5 146.44 113.2 134.86 111.27"/><polygon class="cls-9" points="149.33 130.26 136.82 120.99 146.75 115.27 149.33 130.26"/><path class="cls-9" d="M152.19,109a16.4,16.4,0,0,1,.94-6.14c1-2.74,2.69-5.46,6-4.43,5.54,1.77,1.53,11-3.72,12.35-1.54.41-3.13-.48-3.17-1.78Z"/><path class="cls-6" d="M131.37,79.45a24.43,24.43,0,0,1,11.25-2c5.19.37,12.1,2.67,14.17,11.79,3.44,15.21,2.67,25.31-4,30.5-4.66,3.64-9.86,4-17.11,1-2.7-1.11-6.71-6-7.79-8.82l-3.11-8S114.46,86.64,131.37,79.45Z"/><polyline class="cls-10" points="149.61 102.62 151.9 105.84 150.17 106.96"/><path d="M150,88.86s-.43,1.59,2,1.58a21.19,21.19,0,0,1,4,.17,1.49,1.49,0,0,0,1.53-.59h0a.84.84,0,0,0-.14-1.1,6.14,6.14,0,0,0-4.21-1.5C150.35,87.41,150,88.86,150,88.86Z"/><path d="M143.19,89.28s1,1.42-2.3,2.14a52.36,52.36,0,0,0-6.8,2.19,2.58,2.58,0,0,1-2.23-.11h0a.67.67,0,0,1-.09-1.1,16.09,16.09,0,0,1,6.68-3.52C142.34,88,143.19,89.28,143.19,89.28Z"/><path class="cls-1" d="M145.34,100s-2.4-5.88-9.82-.36C135.52,99.68,139.55,104.79,145.34,100Z"/><g class="cls-11"><path d="M143.32,99.2a2.53,2.53,0,1,1-3.11-1.89A2.58,2.58,0,0,1,143.32,99.2Z"/></g><path d="M135.4,99.56a8.46,8.46,0,0,1,2.35-1.63,9.36,9.36,0,0,1,2.76-.82,5.7,5.7,0,0,1,2.9.4,4,4,0,0,1,2.07,2.18.37.37,0,0,1-.21.48.38.38,0,0,1-.48-.22h0v0a3.33,3.33,0,0,0-1.65-1.82,5.21,5.21,0,0,0-2.58-.45,8.74,8.74,0,0,0-2.61.71,8,8,0,0,0-2.29,1.47.19.19,0,0,1-.26,0A.18.18,0,0,1,135.4,99.56Z"/><path class="cls-1" d="M151,99.22s1.57-6.36,6.53-2.79C157.53,96.43,155.74,102.5,151,99.22Z"/><g class="cls-12"><path d="M152.49,97.69a1.94,1.94,0,1,0,1.95-2.33A2.17,2.17,0,0,0,152.49,97.69Z"/></g><path d="M157.42,96.53a3.16,3.16,0,0,0-1.44-.91,2.58,2.58,0,0,0-1.65.08h0a3.61,3.61,0,0,0-1,.49,4.09,4.09,0,0,0-.84.77,5.33,5.33,0,0,0-1,2v0a.31.31,0,0,1-.38.23.3.3,0,0,1-.22-.38h0a6,6,0,0,1,.49-1.19,5.8,5.8,0,0,1,.73-1,4.59,4.59,0,0,1,1-.83,4.52,4.52,0,0,1,1.17-.51h0a2.84,2.84,0,0,1,1-.17,3.06,3.06,0,0,1,1,.14,3.56,3.56,0,0,1,1.56,1.07.15.15,0,1,1-.22.2Z"/><path class="cls-1" d="M153.38,109.16l-9.67.72a4.62,4.62,0,0,0,5,3A5.52,5.52,0,0,0,153.38,109.16Z"/><path class="cls-13" d="M137.9,93.9l9.13,8.85s-1.52,4.67-5.18,4.79l-9.16-8.6S134,94.27,137.9,93.9Z"/><path class="cls-13" d="M154.56,91.09l8,9s-1.19,4.61-4.3,4.65l-8-8.77S151.24,91.37,154.56,91.09Z"/><path class="cls-14" d="M147.11,99.57a7.38,7.38,0,1,1-8.5-6.06A7.37,7.37,0,0,1,147.11,99.57Z"/><path class="cls-14" d="M162.54,97c.66,4-1.56,7.74-5,8.33s-6.7-2.21-7.37-6.23,1.57-7.75,5-8.33S161.88,92.93,162.54,97Z"/><path class="cls-14" d="M147.11,99.57a3.44,3.44,0,0,1,3.09-.52"/><line class="cls-14" x1="127.85" y1="106.5" x2="132.66" y2="102.62"/><path d="M128.06,107.26c0-1.41,4-12.73-1.92-26.35,0,0-5.41-.64-6.07,9.24C119,106,128.06,107.26,128.06,107.26Z"/><path class="cls-6" d="M130.94,111.89a17.32,17.32,0,0,0-3.31-5.64c-2-2.29-4.77-4.28-7.54-2-4.73,3.89,2.76,11.29,8.44,10.61,1.67-.19,2.87-1.69,2.41-3Z"/><path class="cls-10" d="M122.06,108.21c3.83-1.92,6.58,2.3,6.58,2.3"/><path d="M124.54,82.07S132,89.28,158.66,85c0,0-5.34-10.13-19.16-10.65S124.54,82.07,124.54,82.07Z"/><path class="cls-15" d="M140.24,140.23s6.86,23.26,55.7,59.08l12.72-16.59L166,136.4Z"/><path class="cls-6" d="M234.49,148.5l-9-4.64-13.35,19.37c3.16,2.1,7.34,4.41,10.52,6.5Z"/><path class="cls-6" d="M224,142.79l-.59-2.09a18.57,18.57,0,0,1-.33-8.64l1-5a2,2,0,0,1,2.64-1.46h0a2.52,2.52,0,0,1,1.63,2.31l.11,5.46,8.14-14.71a1.53,1.53,0,0,1,2.23-.56l.51.35a1.53,1.53,0,0,1,.54,1.86l-5.69,11.32,8.33-12.1a1.53,1.53,0,0,1,2.25-.42l.36.28a1.53,1.53,0,0,1,.37,2l-6.75,11.11,7-7.31a1.53,1.53,0,0,1,2.38.13l.11.16a1.52,1.52,0,0,1,0,1.81l-6.71,8.11,4.41-3.37a1.53,1.53,0,0,1,2.53.55h0a1.52,1.52,0,0,1-.25,1.49l-16.28,18.42-4.45-4.05A11.91,11.91,0,0,1,224,142.79Z"/><path class="cls-16" d="M228.47,133.32a10.08,10.08,0,0,1,3,8"/><path class="cls-15" d="M191.17,186l29.39-38.5,11.71,9.78-20.19,36.91c-3.42,5.94-8.53,9-14.19,6.28h0C192.8,198.11,188.81,191.15,191.17,186Z"/><line class="cls-15" x1="200.48" y1="173.84" x2="194.16" y2="181.16"/><path class="cls-1" d="M165.52,142.86l-20,14,1.24,69.18,27.56-4.66S187.35,162.65,165.52,142.86Z"/><polygon class="cls-17" points="176.46 221.19 149.22 226.48 149.84 219.62 176.46 215.08 176.46 221.19"/><path class="cls-6" d="M135.41,155.3s33,11.06,31.44-9.17l-15.57-11.95-10.43,5.9-5.44,4.54L130,153.74Z"/><path class="cls-15" d="M150,134.89A80,80,0,0,1,172.39,166c4.34,10.93,1.69,32.83,1,47.45S171.67,256,171.67,256l10.77-6s.23-64.11-1.33-72.53-9-40.9-19.79-44.41c0,0-3.66-1.09-10,1.17Z"/><path class="cls-15" d="M181.86,188.41s1.16-20.42-5.4-30.66"/><path class="cls-15" d="M129,144.42s4.88-4.22,11.9,1.21,15.87,24.71,15.87,47-6.63,64.8-6.63,64.8-24.19,9.31-41.06-2.75l25.46-42.95-12.35-34.32Z"/><path class="cls-15" d="M130.88,143.38S113,147.67,80.7,198.9l17.44,11.52,33.75-38.18Z"/><line class="cls-15" x1="124" y1="181.16" x2="131.89" y2="172.24"/><path class="cls-6" d="M152.69,207l-11.63-2.63.38-2.59a2.16,2.16,0,0,0-1.2-2.27,2,2,0,0,0-2.47.62L129.94,211,124,219.4c6.82,3.41,13.2,2.85,15,1.35l9.05.68a1.64,1.64,0,0,0,1.87-1.33c.12-.65,0-1.6-1.89-2l1.86.42a1.7,1.7,0,0,0,1.95-1.43c.16-.85-.55-1.71-1.68-2.1l1.39.17a1.76,1.76,0,0,0,2-1.67,2,2,0,0,0-1.53-2L150,211l2.28,0a1.9,1.9,0,0,0,2.06-1.9A2.11,2.11,0,0,0,152.69,207Z"/><polygon class="cls-6" points="129.94 211.03 110.64 205.88 107.47 217.48 127.33 220.78 129.94 211.03"/><path class="cls-15" d="M92.83,195.07l33.82,11.57-7.15,15.29-32.61-7.28a10.26,10.26,0,0,1-7.25-13.72h0A10.25,10.25,0,0,1,92.83,195.07Z"/><line class="cls-15" x1="107.47" y1="200.08" x2="96.18" y2="196.21"/><rect class="cls-1" x="177.9" y="43.54" width="89.29" height="48.71" rx="5.76" transform="translate(445.1 135.78) rotate(-180)"/><rect class="cls-1" x="215.48" y="273.29" width="72.64" height="39.34" rx="4.67" transform="translate(503.61 585.92) rotate(-180)"/><path class="cls-1" d="M215.92,88.28,200.84,106a1.77,1.77,0,0,1-3.11-1.15V88.28"/><path class="cls-1" d="M218.68,299.55l-16.77-14.26a1.68,1.68,0,0,1,1.09-3h15.68"/><line class="cls-18" x1="251.33" y1="55.1" x2="193.77" y2="55.1"/><line class="cls-18" x1="251.33" y1="66.89" x2="193.77" y2="66.89"/><line class="cls-18" x1="251.33" y1="78.68" x2="193.77" y2="78.68"/><path class="cls-19" d="M270.66,177.53H289a2.32,2.32,0,0,0,2.32-2.33v-1.52a2.33,2.33,0,0,1,2.34-2.33h8.46a2.33,2.33,0,0,1,2.33,2.33v24.2a2.17,2.17,0,0,1-2.17,2.17H270.66a2.17,2.17,0,0,1-2.17-2.17V179.7A2.17,2.17,0,0,1,270.66,177.53Z"/><path class="cls-20" d="M275.31,177.53h15.81a2.19,2.19,0,0,0,2-2.33v-1.52a2.19,2.19,0,0,1,2-2.33h7.3a2.19,2.19,0,0,1,2,2.33v24.2a2,2,0,0,1-1.87,2.17H275.31a2,2,0,0,1-1.87-2.17V179.7A2,2,0,0,1,275.31,177.53Z"/><path class="cls-1" d="M302.34,179.64a.21.21,0,0,0,.22-.21v-5.29a1.49,1.49,0,0,0-1.49-1.48h-6.24a.21.21,0,0,0-.21.21.21.21,0,0,0,.21.22h6.24a1.06,1.06,0,0,1,1.06,1v5.29A.21.21,0,0,0,302.34,179.64Z"/><path class="cls-20" d="M231.68,293a3.76,3.76,0,1,1,3.76,3.76A3.77,3.77,0,0,1,231.68,293Zm.95,0a2.81,2.81,0,1,0,2.81-2.81A2.81,2.81,0,0,0,232.63,293Z"/><path class="cls-20" d="M247.19,293a3.76,3.76,0,1,1,3.76,3.76A3.76,3.76,0,0,1,247.19,293Zm.94,0a2.82,2.82,0,1,0,2.82-2.81A2.82,2.82,0,0,0,248.13,293Z"/><path class="cls-20" d="M261.64,293a3.76,3.76,0,1,1,3.76,3.76A3.77,3.77,0,0,1,261.64,293Zm.95,0a2.81,2.81,0,1,0,2.81-2.81A2.81,2.81,0,0,0,262.59,293Z"/><path class="cls-1" d="M93.63,141a1.06,1.06,0,0,0,1.26-1.51l-7.57-14.37a33.18,33.18,0,0,1-8.86,11.06Z"/><path class="cls-1" d="M87.32,125.11a33.22,33.22,0,1,0-8.86,11.06A33.11,33.11,0,0,0,87.32,125.11Z"/><path class="cls-21" d="M35.38,98.68,57.94,112,80.51,98.68a.08.08,0,0,0,0,0c0-.08-1.26-1.12-3.16-2.66l0,0c-6.23-5.06-19.35-15.42-19.35-15.42S44.83,90.87,38.6,95.93c-1.93,1.57-3.2,2.63-3.21,2.71A.08.08,0,0,0,35.38,98.68Z"/><path class="cls-22" d="M48.67,75.28H73a3.78,3.78,0,0,1,3.78,3.78v36.81A3.78,3.78,0,0,1,73,119.65H42.51a3.79,3.79,0,0,1-3.79-3.78V85.22Z"/><path class="cls-23" d="M48.67,81.44a3.79,3.79,0,0,1-3.79,3.78H38.72l10-9.94Z"/><rect class="cls-24" x="59.94" y="81.51" width="11.09" height="11.09" rx="1.35" transform="translate(130.97 174.1) rotate(-180)"/><path class="cls-1" d="M49.78,95.68H69.93A1.09,1.09,0,0,1,71,96.77h0a1.09,1.09,0,0,1-1.09,1.08H49.78a1.08,1.08,0,0,1-1.08-1.08h0A1.08,1.08,0,0,1,49.78,95.68Z"/><path class="cls-1" d="M49.78,101.09H69.93A1.08,1.08,0,0,1,71,102.17h0a1.09,1.09,0,0,1-1.09,1.09H49.78a1.08,1.08,0,0,1-1.08-1.09h0A1.08,1.08,0,0,1,49.78,101.09Z"/><path class="cls-25" d="M35.38,98.68v21.65a2.76,2.76,0,0,0,2.75,2.75H77.76a2.75,2.75,0,0,0,2.75-2.75V98.68L57.94,112Z"/><path class="cls-26" d="M36.14,122.21l14.52-14.52L57.94,112l7.28-4.29,14.53,14.52a2.72,2.72,0,0,1-2,.87H38.13A2.74,2.74,0,0,1,36.14,122.21Z"/></g></svg>