<svg xmlns="http://www.w3.org/2000/svg" viewBox="0 0 76 84"><defs><style>.cls-1{fill:#8253db;}.cls-2{fill:#9660fd;}.cls-3,.cls-5,.cls-6{fill:none;stroke-linecap:round;}.cls-3{stroke:#e6e6e6;stroke-width:0.98px;}.cls-3,.cls-5{stroke-linejoin:round;}.cls-4{font-size:47.38px;fill:#fff;font-family:Roboto-Black, Roboto;font-weight:800;}.cls-5{stroke:#9660fd;stroke-width:0.75px;}.cls-6{stroke:#7f51d6;stroke-miterlimit:10;}.cls-7{fill:#c6c6c6;}</style></defs><g id="OBJECTS"><path class="cls-1" d="M3.38,62.6a1.06,1.06,0,0,0,1.16,1.58l15.78-3.85a33.35,33.35,0,0,1-8.59-11.28Z"/><path class="cls-1" d="M20.32,60.33a33.19,33.19,0,1,0-8.59-11.28A33.15,33.15,0,0,0,20.32,60.33Z"/><path class="cls-2" d="M1.92,61.15a1.06,1.06,0,0,0,1.16,1.58l15.78-3.85A33.35,33.35,0,0,1,10.27,47.6Z"/><path class="cls-2" d="M18.86,58.88A33.19,33.19,0,1,0,10.27,47.6,33.15,33.15,0,0,0,18.86,58.88Z"/><path class="cls-3" d="M58.38,11.53a28.2,28.2,0,0,0-18-6.42h-.16"/><path class="cls-3" d="M64.46,18.43A29.39,29.39,0,0,0,61,14"/><text class="cls-4" transform="translate(29.28 50.04)">?</text><path class="cls-5" d="M47.78,19.82c2.15,1.16,2.48,4.53,1.87,6.61a8,8,0,0,1-2.55,3.8"/><path class="cls-5" d="M41.72,44.16a2.18,2.18,0,0,1-.35,4.28"/><line class="cls-6" x1="34.67" y1="55.18" x2="46.19" y2="55.18"/><ellipse class="cls-7" cx="42.26" cy="80.14" rx="18.49" ry="2.11"/></g></svg>