<svg xmlns="http://www.w3.org/2000/svg" viewBox="0 0 237 237"><defs><style>.cls-1{fill:#fee4cb;}.cls-2{fill:#ffc0bb;}.cls-3{fill:#f50;}.cls-4{fill:#333;}.cls-5{fill:#e03268;}.cls-6{fill:#f99893;}.cls-7{fill:#ff5b7e;}.cls-8{fill:#07085b;}</style></defs><g id="DESIGNED_BY_FREEPIK" data-name="DESIGNED BY FREEPIK"><g id="OBJECTS"><path class="cls-1" d="M202.46,34.3a118.56,118.56,0,0,1-15.85,180.89,36.45,36.45,0,0,0-2.65-2.87C166,194.91,141.24,198.6,141.24,198.6l-.14.14-.07.07.05-.21h-8.55V181.81A41.33,41.33,0,0,0,157.74,149a8.58,8.58,0,0,0,1.88,1.29c5,2.48,11.6-.61,14.7-6.88s1.54-13.38-3.49-15.86a8.22,8.22,0,0,0-2.53-.77c-1-23.49-9.55-36.81-19.21-44.34a1.93,1.93,0,0,0,.39-.8,1.9,1.9,0,0,0-.81-2c5.45-5.4,8.71-12.21,8.71-19.61,0-17.54-18.3-31.77-40.87-31.77S75.65,42.54,75.65,60.08c0,7.91,3.71,15.14,9.85,20.7a1.87,1.87,0,0,0-.54,2h0a1.74,1.74,0,0,0,.6.84c-21.86,16-20.36,43.67-20.36,43.67h.05c-.19.08-.39.16-.58.26-5,2.48-6.59,9.58-3.49,15.86s9.68,9.36,14.7,6.88A8.58,8.58,0,0,0,77.77,149a41.22,41.22,0,0,0,27.38,33.57v16H96.59s-24.79-3.69-42.72,13.72a19.58,19.58,0,0,0-2.6,3.24A118.5,118.5,0,1,1,202.46,34.3Z"/><path class="cls-2" d="M170.83,127.59c5,2.48,6.59,9.58,3.49,15.86s-9.68,9.36-14.7,6.88a8.58,8.58,0,0,1-1.88-1.29,41.33,41.33,0,0,1-25.21,32.77v-.72h0v-8.18H105.15v9.7A41.22,41.22,0,0,1,77.77,149a8.58,8.58,0,0,1-1.88,1.29c-5,2.48-11.6-.61-14.7-6.88s-1.53-13.38,3.49-15.86c.19-.1.39-.18.58-.26l7.82.6.29,0a54.22,54.22,0,0,0,5.86-1c11.15-2.07,35-7.62,50.51-19.26,13.69,15.26,31.87,20.07,32.66,20.27h0a11.3,11.3,0,0,1,1.07-.48l.08,0a13.86,13.86,0,0,1,4.63-.61h.09A8.22,8.22,0,0,1,170.83,127.59Zm-24.21,3.35a17.77,17.77,0,0,0-1.75-2.43,13.75,13.75,0,0,0-2.33-2,12.22,12.22,0,0,0-5.84-2.09,12.87,12.87,0,0,0-6.13.93,11.88,11.88,0,0,0-4.82,3.58,35.11,35.11,0,0,1,5.44-1.52,18.71,18.71,0,0,1,5.26-.26,17.05,17.05,0,0,1,5.08,1.26l.64.23c.21.08.4.21.62.3l1.26.6C144.9,130,145.68,130.53,146.62,130.94ZM135.28,141a3.76,3.76,0,1,0-4-3.55A3.75,3.75,0,0,0,135.28,141Zm-5.55,22.16a21.38,21.38,0,0,0,2.67-2.35,29,29,0,0,1-3.31,2.22c-4-2.36-8.52.91-8.52.91a11.42,11.42,0,0,0-9.48-.61s0,.07,0,.2c-.49-.22-1-.46-1.43-.71a24.82,24.82,0,0,1-3-1.82,19,19,0,0,0,4.59,3.23c.49,2,2.32,6.54,8.68,6.49a9.34,9.34,0,0,0,9.38-7.27Zm-4.5-8.27a4.52,4.52,0,0,0,.62-3.84,3.46,3.46,0,0,0-.45-1,4.28,4.28,0,0,0-.65-.81,5.81,5.81,0,0,0-.78-.63,3.48,3.48,0,0,1-.28-.22l-.22-.18a8.26,8.26,0,0,1-1.56-2.32,28.36,28.36,0,0,1-1.16-2.88c-.68-2-1.28-4.06-1.93-6.16a23.09,23.09,0,0,0,.36,6.58,17.34,17.34,0,0,0,.92,3.25,8.46,8.46,0,0,0,2,3.08l.41.32.36.27a3.65,3.65,0,0,1,.48.38,2.45,2.45,0,0,1,.66.92,3,3,0,0,1-.16,2.38c-.79,1.7-2.58,3-4.55,3.9A7.48,7.48,0,0,0,125.23,154.92Zm-22.31-14.24a3.76,3.76,0,1,0-4-3.55A3.76,3.76,0,0,0,102.92,140.68Zm2.22-13.13a34.16,34.16,0,0,1,5.45,1.48,11.71,11.71,0,0,0-4.85-3.54,12.75,12.75,0,0,0-6.13-.89,12.41,12.41,0,0,0-5.83,2.13,13.72,13.72,0,0,0-2.31,2,17.79,17.79,0,0,0-1.74,2.44c.94-.41,1.72-1,2.57-1.38l1.25-.6c.22-.1.41-.22.62-.31l.64-.23a17,17,0,0,1,5.07-1.3A18.68,18.68,0,0,1,105.14,127.55Z"/><path class="cls-2" d="M168.21,126.81a13.86,13.86,0,0,0-4.63.61A9.68,9.68,0,0,1,168.21,126.81Z"/><path class="cls-1" d="M163.5,127.45a11.3,11.3,0,0,0-1.07.48A9.23,9.23,0,0,1,163.5,127.45Z"/><path class="cls-3" d="M144.87,128.51a17.77,17.77,0,0,1,1.75,2.43c-.94-.41-1.72-.94-2.57-1.36l-1.26-.6c-.22-.09-.41-.22-.62-.3l-.64-.23a17.05,17.05,0,0,0-5.08-1.26,18.71,18.71,0,0,0-5.26.26,35.11,35.11,0,0,0-5.44,1.52,11.88,11.88,0,0,1,4.82-3.58,12.87,12.87,0,0,1,6.13-.93,12.22,12.22,0,0,1,5.84,2.09A13.75,13.75,0,0,1,144.87,128.51Z"/><path class="cls-2" d="M162.4,127.92c-.79-.2-19-5-32.66-20.27a45.67,45.67,0,0,0,7-6.42C140.92,111,148.64,123.09,162.4,127.92Z"/><path class="cls-3" d="M140.72,85.68l3,2.34c-.17.79-.37,1.56-.61,2.31a42.19,42.19,0,0,0-5.46-3.06C138.71,86.78,139.74,86.25,140.72,85.68Z"/><path class="cls-3" d="M141.7,85.11l-1,.57L139,84.34C139.84,84.57,140.76,84.83,141.7,85.11Z"/><path class="cls-3" d="M139,84.34l1.71,1.34c-1,.57-2,1.1-3.06,1.59a40.57,40.57,0,0,0-4.2-1.71l1.29-2.36S136.56,83.66,139,84.34Z"/><path class="cls-4" d="M138.83,137.07a3.76,3.76,0,1,1-4-3.55A3.75,3.75,0,0,1,138.83,137.07Z"/><path class="cls-3" d="M133.46,85.56a40.57,40.57,0,0,1,4.2,1.71,45.2,45.2,0,0,1-4.79,1.94c-.27-1.19-.38-1.87-.38-1.87Z"/><path class="cls-5" d="M141.1,198.74l-.07.07h0A38.83,38.83,0,0,1,133,205l-.42.21a33.67,33.67,0,0,1-13.61,3.64h0l0,1a34.48,34.48,0,0,0,10,2.85,15.16,15.16,0,0,0,3.66-.06C142,211.31,141.23,200.13,141.1,198.74Z"/><path class="cls-2" d="M132.53,181.09v.72l0,0v-.74Z"/><path class="cls-6" d="M132.49,181.83v7.47c-12.74,2.53-21.45.71-27.34-2.45v-4.24a41.4,41.4,0,0,0,27.34-.78Z"/><path class="cls-2" d="M132.49,181.09v.74a41.4,41.4,0,0,1-27.34.78v-1.52Z"/><rect class="cls-2" x="105.15" y="172.91" width="27.34" height="8.18"/><path class="cls-6" d="M132.4,160.84a21.38,21.38,0,0,1-2.67,2.35l-.41.29c0-.16.05-.25.05-.25l-.28-.17A29,29,0,0,0,132.4,160.84Z"/><path class="cls-6" d="M129.09,163.06l.28.17s0,.09-.05.25a22.09,22.09,0,0,1-2.68,1.53,16.93,16.93,0,0,1-3.42,1.13,17.52,17.52,0,0,1-3.61.34,18.5,18.5,0,0,1-7-1.57c-.46-.2-.91-.42-1.35-.65-.07-.3-.12-.54-.15-.7.57.26,1.16.5,1.76.71a20.71,20.71,0,0,0,6.76,1.32,17.91,17.91,0,0,0,6.74-1.21A22,22,0,0,0,129.09,163.06Z"/><path class="cls-7" d="M105.15,212.65c-10.24-2-8.56-14.05-8.56-14.05s-24.79-3.69-42.72,13.72a19.58,19.58,0,0,0-2.6,3.24,118.53,118.53,0,0,0,135.34-.37,36.45,36.45,0,0,0-2.65-2.87C166,194.91,141.24,198.6,141.24,198.6l-.14.14c.13,1.39.94,12.57-8.57,13.91a15.16,15.16,0,0,1-3.66.06,34.48,34.48,0,0,1-10-2.85c-6,2.58-10.46,3.26-13.68,2.79"/><path class="cls-6" d="M129.32,163.48a9.34,9.34,0,0,1-9.38,7.27c-6.36.05-8.19-4.52-8.68-6.49.44.23.89.45,1.35.65a18.5,18.5,0,0,0,7,1.57,17.52,17.52,0,0,0,3.61-.34,16.93,16.93,0,0,0,3.42-1.13A22.09,22.09,0,0,0,129.32,163.48Z"/><path class="cls-6" d="M129.09,163.06a22,22,0,0,1-2.72,1.32,17.91,17.91,0,0,1-6.74,1.21,20.71,20.71,0,0,1-6.76-1.32c-.6-.21-1.19-.45-1.76-.71,0-.13,0-.2,0-.2a11.42,11.42,0,0,1,9.48.61S125.07,160.7,129.09,163.06Z"/><path class="cls-6" d="M125.85,151.08a4.52,4.52,0,0,1-.62,3.84,7.48,7.48,0,0,1-6,3.09c2-.94,3.76-2.2,4.55-3.9a3,3,0,0,0,.16-2.38,2.45,2.45,0,0,0-.66-.92,3.65,3.65,0,0,0-.48-.38l-.36-.27-.41-.32a8.46,8.46,0,0,1-2-3.08,17.34,17.34,0,0,1-.92-3.25,23.09,23.09,0,0,1-.36-6.58c.65,2.1,1.25,4.16,1.93,6.16a28.36,28.36,0,0,0,1.16,2.88,8.26,8.26,0,0,0,1.56,2.32l.22.18a3.48,3.48,0,0,0,.28.22,5.81,5.81,0,0,1,.78.63,4.28,4.28,0,0,1,.65.81A3.46,3.46,0,0,1,125.85,151.08Z"/><path class="cls-3" d="M116.51,28.31c-22.57,0-40.86,14.23-40.86,31.77,0,7.91,3.71,15.14,9.85,20.7a1.81,1.81,0,0,1,.72-.4c1.71-.49,4.53-1.22,8.3-1.93a129.88,129.88,0,0,1,24-2.12h.67q2.46,0,5.07.12c1.63.06,3.31.16,5,.3,4.32.33,8.88.88,13.64,1.7,1.67.29,3.38.61,5.1,1a1.92,1.92,0,0,1,.64.26c5.45-5.4,8.71-12.21,8.71-19.61C157.38,42.54,139.08,28.31,116.51,28.31Z"/><path class="cls-3" d="M117.48,80.16h1.17c-.17.95-.37,2-.6,3.07h-.29l-1.12,0Z"/><path class="cls-3" d="M117.76,83.23h.29c-.19.87-.4,1.79-.64,2.73-.27-.9-.53-1.81-.77-2.74Z"/><path class="cls-3" d="M117.41,86a57.85,57.85,0,0,0,2.14,5.82c-1,0-2,.08-3,.08h-.82C116.38,89.79,117,87.81,117.41,86Z"/><path class="cls-6" d="M111.11,163.56c0,.16.08.4.15.7a19,19,0,0,1-4.59-3.23,24.82,24.82,0,0,0,3,1.82C110.15,163.1,110.62,163.34,111.11,163.56Z"/><path class="cls-4" d="M106.47,136.72a3.76,3.76,0,1,1-4-3.55A3.76,3.76,0,0,1,106.47,136.72Z"/><path class="cls-3" d="M110.59,129a34.16,34.16,0,0,0-5.45-1.48,18.68,18.68,0,0,0-5.26-.22,17,17,0,0,0-5.07,1.3l-.64.23c-.21.09-.4.21-.62.31l-1.25.6c-.85.43-1.63,1-2.57,1.38a17.79,17.79,0,0,1,1.74-2.44,13.72,13.72,0,0,1,2.31-2,12.41,12.41,0,0,1,5.83-2.13,12.75,12.75,0,0,1,6.13.89A11.71,11.71,0,0,1,110.59,129Z"/><path class="cls-7" d="M105.15,212.65v1.15c-.26-.47-.51-.89-.73-1.27C104.65,212.58,104.9,212.62,105.15,212.65Z"/><path class="cls-2" d="M132.53,198.6V181.81l0,0v7.47c-12.74,2.53-21.45.71-27.34-2.45V198.6H96.59a39.19,39.19,0,0,0,8.29,6.43l.27.13a33.73,33.73,0,0,0,13.73,3.72h0a33.67,33.67,0,0,0,13.61-3.64L133,205a38.83,38.83,0,0,0,8.07-6.22h0l.05-.21Z"/><path class="cls-5" d="M105.15,205.16l-.27-.13a39.19,39.19,0,0,1-8.29-6.43s-1.52,12,7.83,13.93c.23.05.48.09.73.12,3.22.47,7.64-.21,13.68-2.79l0-1A33.73,33.73,0,0,1,105.15,205.16Z"/><path class="cls-3" d="M102.66,85.36c-.8,1.26-1.65,2.57-2.48,3.86-1.21-.41-2.39-.87-3.53-1.37A41.75,41.75,0,0,1,102.66,85.36Z"/><path class="cls-8" d="M148.67,79.69a1.92,1.92,0,0,0-.64-.26c-1.72-.36-3.43-.68-5.1-1-4.76-.82-9.32-1.37-13.64-1.7-1.71-.14-3.39-.24-5-.3s-3.43-.12-5.07-.12h-.67a129.88,129.88,0,0,0-24,2.12c-3.77.71-6.59,1.44-8.3,1.93a1.81,1.81,0,0,0-.72.4,1.87,1.87,0,0,0-.54,2h0a1.74,1.74,0,0,0,.6.84,1.83,1.83,0,0,0,1.68.36L89,83.56a112.64,112.64,0,0,1,16.6-2.78c3.58-.35,7.57-.59,11.9-.62h1.17a139.09,139.09,0,0,1,16.21,1q5,.57,10.34,1.6l2,.41a1.72,1.72,0,0,0,.39,0,1.9,1.9,0,0,0,1.46-.68,1.93,1.93,0,0,0,.39-.8A1.9,1.9,0,0,0,148.67,79.69Z"/><path class="cls-3" d="M79.23,126.91a54.22,54.22,0,0,1-5.86,1C74.1,127.79,76.19,127.48,79.23,126.91Z"/><path class="cls-3" d="M117.48,80.16c-4.33,0-8.32.27-11.9.62A112.64,112.64,0,0,0,89,83.56L87.25,84a1.83,1.83,0,0,1-1.68-.36c-21.86,16-20.36,43.67-20.36,43.67h.05l7.82.6,6.15-1c11.15-2.07,35-7.62,50.51-19.26a45.67,45.67,0,0,0,7-6.42c4.14,9.75,11.86,21.86,25.62,26.69h0a9.23,9.23,0,0,1,1.07-.48l.08,0a9.68,9.68,0,0,1,4.63-.61h.09c-1-23.49-9.55-36.81-19.21-44.34a1.9,1.9,0,0,1-1.46.68,1.72,1.72,0,0,1-.39,0l-2-.41q-5.34-1-10.34-1.6a139.09,139.09,0,0,0-16.21-1"/></g></g></svg>