<svg xmlns="http://www.w3.org/2000/svg" viewBox="0 0 237 237"><defs><style>.cls-1{fill:#ff5b7e;}.cls-2{fill:#ffc0bb;}.cls-3{fill:#fee4cb;}.cls-4{fill:#f50;}.cls-5{fill:#07085b;}.cls-6{fill:#e03268;}.cls-7{fill:#333;}.cls-8{fill:#f99893;}</style></defs><g id="OBJECTS"><path class="cls-1" d="M184,212.32a36.45,36.45,0,0,1,2.65,2.87,118.53,118.53,0,0,1-135.34.37,19.58,19.58,0,0,1,2.6-3.24C71.8,194.91,96.59,198.6,96.59,198.6s-1.52,12,7.83,13.93c.22.38.47.8.73,1.27v15.33h27.38V212.65c9.51-1.34,8.7-12.52,8.57-13.91l.14-.14S166,194.91,184,212.32Z"/><path class="cls-2" d="M168.21,126.81a13.86,13.86,0,0,0-4.63.61A9.68,9.68,0,0,1,168.21,126.81Z"/><path class="cls-3" d="M163.5,127.45a11.3,11.3,0,0,0-1.07.48A9.23,9.23,0,0,1,163.5,127.45Z"/><path class="cls-4" d="M162.43,127.93a43.09,43.09,0,0,0-19.31-37.6c.24-.75.44-1.52.61-2.31l-3-2.34,1-.57c3.91,1.13,8.31,2.55,9.93,3.59a36.39,36.39,0,0,1,6.55,6.09s7.45,23.25,7,24.83S162.43,127.93,162.43,127.93Z"/><path class="cls-4" d="M143.12,90.33a43.09,43.09,0,0,1,19.31,37.6h0c-13.76-4.83-21.48-16.94-25.62-26.69A29.9,29.9,0,0,0,143.12,90.33Z"/><path class="cls-4" d="M149.09,82.48c9.65,7.54,18.2,20.85,19.21,44.34h-.09a9.68,9.68,0,0,0-4.63.61l-.08,0a9.23,9.23,0,0,0-1.07.48s2.29-6.73,2.75-8.31-7-24.83-7-24.83a36.39,36.39,0,0,0-6.55-6.09c-1.62-1-6-2.46-9.93-3.59a40,40,0,0,0,3.5-2.4l2,.41a1.72,1.72,0,0,0,.39,0C147.85,83.16,148.07,83.12,149.09,82.48Z"/><path class="cls-5" d="M148.67,79.69a1.9,1.9,0,0,1,.81,2,1.93,1.93,0,0,1-.39.8c-.63-.49-1.26-1-1.9-1.4C147.7,80.62,148.2,80.16,148.67,79.69Z"/><path class="cls-4" d="M157.38,60.08c0,7.4-3.26,14.21-8.71,19.61a1.92,1.92,0,0,0-.64-.26c-1.72-.36-3.43-.68-5.1-1a48.63,48.63,0,0,0-23.4-5.75,69.91,69.91,0,0,0-25,5.74c-3.77.71-6.59,1.44-8.3,1.93a1.81,1.81,0,0,0-.72.4c-6.14-5.56-9.85-12.79-9.85-20.7,0-17.54,18.29-31.77,40.86-31.77S157.38,42.54,157.38,60.08Z"/><path class="cls-5" d="M145.2,82.71c.69-.53,1.35-1.08,2-1.63.64.44,1.27.91,1.9,1.4-1,.64-1.24.68-1.46.68a1.72,1.72,0,0,1-.39,0Z"/><path class="cls-5" d="M148,79.43a1.92,1.92,0,0,1,.64.26c-.47.47-1,.93-1.48,1.39a45.31,45.31,0,0,0-4.26-2.62C144.6,78.75,146.31,79.07,148,79.43Z"/><path class="cls-5" d="M145.2,82.71c-3.56-.69-7-1.21-10.34-1.6l-5.57-4.35c4.32.33,8.88.88,13.64,1.7a45.31,45.31,0,0,1,4.26,2.62C146.55,81.63,145.89,82.18,145.2,82.71Z"/><path class="cls-2" d="M162.4,127.92c-.79-.2-19-5-32.66-20.27a45.67,45.67,0,0,0,7-6.42C140.92,111,148.64,123.09,162.4,127.92Z"/><path class="cls-4" d="M140.72,85.68l3,2.34c-.17.79-.37,1.56-.61,2.31a42.19,42.19,0,0,0-5.46-3.06C138.71,86.78,139.74,86.25,140.72,85.68Z"/><path class="cls-6" d="M141.1,198.74c.13,1.39.94,12.57-8.57,13.91v-2.42l6.69-4.53,1.8-6.89h0Z"/><path class="cls-2" d="M141.08,198.6l-.05.21h0A38.83,38.83,0,0,1,133,205l-.42.21V198.6Z"/><path class="cls-6" d="M141,198.81l-1.8,6.89-6.69,4.53v-5L133,205A38.83,38.83,0,0,0,141,198.81Z"/><path class="cls-4" d="M141.7,85.11l-1,.57L139,84.34C139.84,84.57,140.76,84.83,141.7,85.11Z"/><path class="cls-4" d="M139,84.34l1.71,1.34c-1,.57-2,1.1-3.06,1.59a40.57,40.57,0,0,0-4.2-1.71l1.29-2.36S136.56,83.66,139,84.34Z"/><path class="cls-7" d="M138.83,137.07a3.76,3.76,0,1,1-4-3.55A3.75,3.75,0,0,1,138.83,137.07Z"/><path class="cls-4" d="M137.66,87.27a42.19,42.19,0,0,1,5.46,3.06,29.9,29.9,0,0,1-6.34,10.9,73.37,73.37,0,0,1-3.91-12A45.2,45.2,0,0,0,137.66,87.27Z"/><path class="cls-4" d="M139,84.34l-4.15-3.23c3.33.39,6.78.91,10.34,1.6a40,40,0,0,1-3.5,2.4C140.76,84.83,139.84,84.57,139,84.34Z"/><path class="cls-4" d="M134.75,83.2l-1.29,2.36a43.51,43.51,0,0,0-15.41-2.34c.23-1.09.43-2.12.6-3.07a139.09,139.09,0,0,1,16.21,1L139,84.34C136.56,83.66,134.75,83.2,134.75,83.2Z"/><path class="cls-5" d="M129.29,76.76l5.57,4.35a139.09,139.09,0,0,0-16.21-1c.2-1.19.36-2.26.48-3.2l5.14-.49C125.9,76.52,127.58,76.62,129.29,76.76Z"/><path class="cls-4" d="M141.53,128.45a17.05,17.05,0,0,0-5.08-1.26,18.71,18.71,0,0,0-5.26.26,35.11,35.11,0,0,0-5.44,1.52,11.88,11.88,0,0,1,4.82-3.58,12.87,12.87,0,0,1,6.13-.93,12.22,12.22,0,0,1,5.84,2.09,13.75,13.75,0,0,1,2.33,2,17.77,17.77,0,0,1,1.75,2.43c-.94-.41-1.72-.94-2.57-1.36l-1.26-.6c-.22-.09-.41-.22-.62-.3Z"/><path class="cls-4" d="M133.46,85.56a40.57,40.57,0,0,1,4.2,1.71,45.2,45.2,0,0,1-4.79,1.94c-.27-1.19-.38-1.87-.38-1.87Z"/><path class="cls-4" d="M132.49,87.34s.11.68.38,1.87a50.51,50.51,0,0,1-13.32,2.56A57.85,57.85,0,0,1,117.41,86c.24-.94.45-1.86.64-2.73a43.51,43.51,0,0,1,15.41,2.34Z"/><path class="cls-4" d="M132.87,89.21a73.37,73.37,0,0,0,3.91,12,45.67,45.67,0,0,1-7,6.42,57.64,57.64,0,0,1-10.19-15.88A50.51,50.51,0,0,0,132.87,89.21Z"/><path class="cls-1" d="M132.53,212.65v16.48H105.15V213.8c2.31,4.07,5.86,11,5.86,11l17.86-12.08A15.16,15.16,0,0,0,132.53,212.65Z"/><path class="cls-6" d="M132.53,210.23v2.42a15.16,15.16,0,0,1-3.66.06Z"/><path class="cls-2" d="M132.53,181.81V198.6H105.15V186.85c5.89,3.16,14.6,5,27.34,2.45v-7.47Z"/><path class="cls-2" d="M132.53,181.09v.72l0,0v-.74Z"/><path class="cls-8" d="M132.49,181.83v7.47c-12.74,2.53-21.45.71-27.34-2.45v-4.24a41.4,41.4,0,0,0,27.34-.78Z"/><path class="cls-2" d="M132.49,181.09v.74a41.4,41.4,0,0,1-27.34.78v-1.52Z"/><rect class="cls-2" x="105.15" y="172.91" width="27.34" height="8.18"/><path class="cls-8" d="M132.4,160.84a21.38,21.38,0,0,1-2.67,2.35l-.41.29c0-.16.05-.25.05-.25l-.28-.17A29,29,0,0,0,132.4,160.84Z"/><path class="cls-4" d="M128.39,76.06l.9.7c-1.71-.14-3.39-.24-5-.3Z"/><path class="cls-1" d="M128.87,212.71,111,224.79s-3.55-6.92-5.86-11v-1.15c3.22.47,7.64-.21,13.68-2.79A34.39,34.39,0,0,0,128.87,212.71Z"/><path class="cls-8" d="M129.32,163.48a9.34,9.34,0,0,1-9.38,7.27c-6.36.05-8.19-4.52-8.68-6.49.44.23.89.45,1.35.65a18.5,18.5,0,0,0,7,1.57,17.52,17.52,0,0,0,3.61-.34,16.93,16.93,0,0,0,3.42-1.13A22.09,22.09,0,0,0,129.32,163.48Z"/><path class="cls-5" d="M124.27,76.46l-5.14.49c0-.21.05-.42.07-.61Q121.66,76.34,124.27,76.46Z"/><path class="cls-4" d="M119.53,72.71a48.63,48.63,0,0,1,23.4,5.75c-4.76-.82-9.32-1.37-13.64-1.7l-.9-.7-4.12.4q-2.61-.12-5.07-.12C119.48,74.06,119.53,72.71,119.53,72.71Z"/><path class="cls-2" d="M118.88,208.88a33.73,33.73,0,0,1-13.73-3.72V198.6h27.38v6.64a33.67,33.67,0,0,1-13.61,3.64Z"/><path class="cls-8" d="M119.18,143.51a23.09,23.09,0,0,1-.36-6.58c.65,2.1,1.25,4.16,1.93,6.16a28.36,28.36,0,0,0,1.16,2.88,8.26,8.26,0,0,0,1.56,2.32l.22.18a3.48,3.48,0,0,0,.28.22,5.81,5.81,0,0,1,.78.63,4.28,4.28,0,0,1,.65.81,3.46,3.46,0,0,1,.45,1,4.52,4.52,0,0,1-.62,3.84,7.48,7.48,0,0,1-6,3.09c2-.94,3.76-2.2,4.55-3.9a3,3,0,0,0,.16-2.38,2.45,2.45,0,0,0-.66-.92,3.65,3.65,0,0,0-.48-.38l-.36-.27-.41-.32a8.46,8.46,0,0,1-2-3.08A17.34,17.34,0,0,1,119.18,143.51Z"/><path class="cls-4" d="M119.55,91.77a57.64,57.64,0,0,0,10.19,15.88c-15.52,11.64-39.36,17.19-50.51,19.26,21.84-4.85,31.87-21.49,36.46-35.07h.82C117.53,91.85,118.54,91.82,119.55,91.77Z"/><path class="cls-4" d="M119.53,72.71l-1,3.62a129.88,129.88,0,0,0-24,2.12A69.91,69.91,0,0,1,119.53,72.71Z"/><path class="cls-4" d="M118.53,76.33l1-3.62s0,1.35-.33,3.63Z"/><path class="cls-5" d="M118.53,76.33h.67c0,.19,0,.4-.07.61l-.79.08Z"/><path class="cls-5" d="M118.34,77l.79-.08c-.12.94-.28,2-.48,3.2h-1.17Z"/><path class="cls-6" d="M128.87,212.71a34.39,34.39,0,0,1-10-2.85l0-1h0a33.67,33.67,0,0,0,13.61-3.64v5Z"/><path class="cls-4" d="M117.48,80.16h1.17c-.17.95-.37,2-.6,3.07h-.29l-1.12,0Z"/><path class="cls-5" d="M118.53,76.33l-.19.7-11,1.06-1.71,2.69A112.64,112.64,0,0,0,89,83.56c-.54-.39-1.06-.78-1.57-1.18a49,49,0,0,1,7.11-3.93A129.88,129.88,0,0,1,118.53,76.33Z"/><path class="cls-5" d="M118.34,77l-.86,3.13c-4.33,0-8.32.27-11.9.62l1.71-2.69Z"/><path class="cls-4" d="M117.76,83.23h.29c-.19.87-.4,1.79-.64,2.73-.27-.9-.53-1.81-.77-2.74Z"/><path class="cls-4" d="M117.41,86a57.85,57.85,0,0,0,2.14,5.82c-1,0-2,.08-3,.08h-.82C116.38,89.79,117,87.81,117.41,86Z"/><path class="cls-4" d="M117.48,80.16l-.84,3a43.17,43.17,0,0,0-14,2.15l2.92-4.58C109.16,80.43,113.15,80.19,117.48,80.16Z"/><path class="cls-4" d="M116.64,83.21c.24.93.5,1.84.77,2.74-.46,1.86-1,3.84-1.72,5.89a50.82,50.82,0,0,1-15.51-2.62c.83-1.29,1.68-2.6,2.48-3.86A43.17,43.17,0,0,1,116.64,83.21Z"/><path class="cls-8" d="M119.61,166.48a18.5,18.5,0,0,1-7-1.57c-.46-.2-.91-.42-1.35-.65-.07-.3-.12-.54-.15-.7.57.26,1.16.5,1.76.71a20.71,20.71,0,0,0,6.76,1.32,17.91,17.91,0,0,0,6.74-1.21,22,22,0,0,0,2.72-1.32l.28.17s0,.09-.05.25a22.09,22.09,0,0,1-2.68,1.53,16.93,16.93,0,0,1-3.42,1.13A17.52,17.52,0,0,1,119.61,166.48Z"/><path class="cls-4" d="M115.69,91.84c-4.59,13.58-14.62,30.22-36.46,35.07-3,.57-5.13.88-5.86,1l-.29,0S92.73,99.76,94.31,98c.69-.79,3.22-4.63,5.87-8.73A50.82,50.82,0,0,0,115.69,91.84Z"/><path class="cls-8" d="M111.09,163.36a11.42,11.42,0,0,1,9.48.61s4.5-3.27,8.52-.91a22,22,0,0,1-2.72,1.32,17.91,17.91,0,0,1-6.74,1.21,20.71,20.71,0,0,1-6.76-1.32c-.6-.21-1.19-.45-1.76-.71C111.1,163.43,111.09,163.36,111.09,163.36Z"/><path class="cls-6" d="M105.15,205.16a33.73,33.73,0,0,0,13.73,3.72l0,1c-6,2.58-10.46,3.26-13.68,2.79Z"/><path class="cls-2" d="M79.23,126.91c11.15-2.07,35-7.62,50.51-19.26,13.69,15.26,31.87,20.07,32.66,20.27h0a11.3,11.3,0,0,1,1.07-.48l.08,0a13.86,13.86,0,0,1,4.63-.61h.09a8.22,8.22,0,0,1,2.53.77c5,2.48,6.59,9.58,3.49,15.86s-9.68,9.36-14.7,6.88a8.58,8.58,0,0,1-1.88-1.29,41.33,41.33,0,0,1-25.21,32.77v-.72h0v-8.18H105.15v9.7A41.22,41.22,0,0,1,77.77,149a8.58,8.58,0,0,1-1.88,1.29c-5,2.48-11.6-.61-14.7-6.88s-1.53-13.38,3.49-15.86l.58-.26,7.82.6.29,0A54.22,54.22,0,0,0,79.23,126.91ZM120.57,164a11.42,11.42,0,0,0-9.48-.61s0,.07,0,.2c-.49-.22-1-.46-1.43-.71a24.82,24.82,0,0,1-3-1.82,19,19,0,0,0,4.59,3.23c.49,2,2.32,6.54,8.68,6.49a9.34,9.34,0,0,0,9.38-7.27l.41-.29a21.38,21.38,0,0,0,2.67-2.35,29,29,0,0,1-3.31,2.22C125.07,160.7,120.57,164,120.57,164Zm-14.83-38.48a12.75,12.75,0,0,0-6.13-.89,12.41,12.41,0,0,0-5.83,2.13,13.72,13.72,0,0,0-2.31,2,17.79,17.79,0,0,0-1.74,2.44c.94-.41,1.72-1,2.57-1.38l1.25-.6c.22-.1.41-.22.62-.31l.64-.23a17,17,0,0,1,5.07-1.3,18.68,18.68,0,0,1,5.26.22,34.16,34.16,0,0,1,5.45,1.48A11.71,11.71,0,0,0,105.74,125.49Zm40.88,5.45a17.77,17.77,0,0,0-1.75-2.43,13.75,13.75,0,0,0-2.33-2,12.22,12.22,0,0,0-5.84-2.09,12.87,12.87,0,0,0-6.13.93,11.88,11.88,0,0,0-4.82,3.58,35.11,35.11,0,0,1,5.44-1.52,18.71,18.71,0,0,1,5.26-.26,17.05,17.05,0,0,1,5.08,1.26l.64.23c.21.08.4.21.62.3l1.26.6C144.9,130,145.68,130.53,146.62,130.94ZM135.28,141a3.76,3.76,0,1,0-4-3.55A3.75,3.75,0,0,0,135.28,141Zm-10,13.89a4.52,4.52,0,0,0,.62-3.84,3.46,3.46,0,0,0-.45-1,4.28,4.28,0,0,0-.65-.81,5.81,5.81,0,0,0-.78-.63,3.48,3.48,0,0,1-.28-.22l-.22-.18a8.26,8.26,0,0,1-1.56-2.32,28.36,28.36,0,0,1-1.16-2.88c-.68-2-1.28-4.06-1.93-6.16a23.09,23.09,0,0,0,.36,6.58,17.34,17.34,0,0,0,.92,3.25,8.46,8.46,0,0,0,2,3.08l.41.32.36.27a3.65,3.65,0,0,1,.48.38,2.45,2.45,0,0,1,.66.92,3,3,0,0,1-.16,2.38c-.79,1.7-2.58,3-4.55,3.9A7.48,7.48,0,0,0,125.23,154.92Zm-22.31-14.24a3.76,3.76,0,1,0-4-3.55A3.76,3.76,0,0,0,102.92,140.68Z"/><path class="cls-8" d="M111.26,164.26a19,19,0,0,1-4.59-3.23,24.82,24.82,0,0,0,3,1.82c.47.25.94.49,1.43.71C111.14,163.72,111.19,164,111.26,164.26Z"/><path class="cls-7" d="M106.47,136.72a3.76,3.76,0,1,1-4-3.55A3.76,3.76,0,0,1,106.47,136.72Z"/><path class="cls-1" d="M105.15,212.65v1.15c-.26-.47-.51-.89-.73-1.27C104.65,212.58,104.9,212.62,105.15,212.65Z"/><path class="cls-6" d="M103.41,211c-1.2-1.34-6.82-12.41-6.82-12.41a39.19,39.19,0,0,0,8.29,6.43l.27.13v7.49c-.25,0-.5-.07-.73-.12A12,12,0,0,0,103.41,211Z"/><path class="cls-4" d="M105.58,80.78l-2.92,4.58a41.75,41.75,0,0,0-6,2.49A41.56,41.56,0,0,1,89,83.56,112.64,112.64,0,0,1,105.58,80.78Z"/><path class="cls-4" d="M102.66,85.36c-.8,1.26-1.65,2.57-2.48,3.86-1.21-.41-2.39-.87-3.53-1.37A41.75,41.75,0,0,1,102.66,85.36Z"/><path class="cls-2" d="M104.88,205a39.19,39.19,0,0,1-8.29-6.43h8.56v6.56Z"/><path class="cls-6" d="M104.42,212.53c-9.35-1.92-7.83-13.93-7.83-13.93s5.62,11.07,6.82,12.41A12,12,0,0,1,104.42,212.53Z"/><path class="cls-4" d="M99.61,124.6a12.75,12.75,0,0,1,6.13.89,11.71,11.71,0,0,1,4.85,3.54,34.16,34.16,0,0,0-5.45-1.48,18.68,18.68,0,0,0-5.26-.22,17,17,0,0,0-5.07,1.3l-.64.23c-.21.09-.4.21-.62.31l-1.25.6c-.85.43-1.63,1-2.57,1.38a17.79,17.79,0,0,1,1.74-2.44,13.72,13.72,0,0,1,2.31-2A12.41,12.41,0,0,1,99.61,124.6Z"/><path class="cls-4" d="M89,83.56a41.56,41.56,0,0,0,7.67,4.29,43.12,43.12,0,0,0-23.57,40.08,9.42,9.42,0,0,0-7.82-.6h-.05s-1.5-27.66,20.36-43.67a1.83,1.83,0,0,0,1.68.36Z"/><path class="cls-5" d="M94.52,78.45a49,49,0,0,0-7.11,3.93c-.66-.51-1.3-1-1.91-1.6a1.81,1.81,0,0,1,.72-.4C87.93,79.89,90.75,79.16,94.52,78.45Z"/><path class="cls-5" d="M87.41,82.38c.51.4,1,.79,1.57,1.18L87.25,84a1.83,1.83,0,0,1-1.68-.36C86.16,83.22,86.78,82.79,87.41,82.38Z"/><path class="cls-5" d="M87.41,82.38c-.63.41-1.25.84-1.84,1.28a1.74,1.74,0,0,1-.6-.84h0a1.87,1.87,0,0,1,.54-2C86.11,81.33,86.75,81.87,87.41,82.38Z"/><path class="cls-4" d="M79.23,126.91a54.22,54.22,0,0,1-5.86,1C74.1,127.79,76.19,127.48,79.23,126.91Z"/><path class="cls-4" d="M73.08,127.93A43.12,43.12,0,0,1,96.65,87.85c1.14.5,2.32,1,3.53,1.37C97.53,93.32,95,97.16,94.31,98,92.73,99.76,73.08,127.93,73.08,127.93Z"/><path class="cls-4" d="M73.08,127.93l-7.82-.6A9.42,9.42,0,0,1,73.08,127.93Z"/><path class="cls-3" d="M85,82.81h0a1.74,1.74,0,0,0,.6.84c-21.86,16-20.36,43.67-20.36,43.67h.05l-.58.26c-5,2.48-6.59,9.58-3.49,15.86s9.68,9.36,14.7,6.88A8.58,8.58,0,0,0,77.77,149a41.22,41.22,0,0,0,27.38,33.57v16H96.59s-24.79-3.69-42.72,13.72a19.58,19.58,0,0,0-2.6,3.24,118.42,118.42,0,1,1,135.34-.37,36.45,36.45,0,0,0-2.65-2.87C166,194.91,141.24,198.6,141.24,198.6l-.14.14-.07.07.05-.21h-8.55V181.81A41.33,41.33,0,0,0,157.74,149a8.58,8.58,0,0,0,1.88,1.29c5,2.48,11.6-.61,14.7-6.88s1.54-13.38-3.49-15.86a8.22,8.22,0,0,0-2.53-.77c-1-23.49-9.56-36.8-19.21-44.34a1.93,1.93,0,0,0,.39-.8,1.9,1.9,0,0,0-.81-2c5.45-5.4,8.71-12.21,8.71-19.61,0-17.54-18.3-31.77-40.87-31.77S75.65,42.54,75.65,60.08c0,7.91,3.71,15.14,9.85,20.7A1.87,1.87,0,0,0,85,82.81Z"/></g></svg>