<svg xmlns="http://www.w3.org/2000/svg" viewBox="0 0 84 97"><defs><style>.cls-1{fill:#ff639d;}.cls-2{fill:#e03172;}.cls-3{fill:#cfcfcf;}.cls-4{fill:#87e3ff;}.cls-5{fill:#e6e8e8;}.cls-6{fill:#cfd1d1;}.cls-7{fill:#a8eaff;}.cls-8{fill:#fff;}.cls-9{fill:#00c4ff;}.cls-10{fill:#00b8f0;}.cls-11{fill:none;stroke:#fff;stroke-linecap:round;stroke-linejoin:round;stroke-width:1.13px;}.cls-12{fill:#ff3881;}</style></defs><g id="OBJECTS"><circle class="cls-1" cx="41.3" cy="43.94" r="36.61" transform="translate(-14.77 66.14) rotate(-68.37)"/><path class="cls-2" d="M49,32.36a10.38,10.38,0,0,0,.19,13.31,10.22,10.22,0,0,0,6,3.41A2.49,2.49,0,0,1,57,50.6l.82,2,1.75-3a2.47,2.47,0,0,1,1.25-1.07A10.35,10.35,0,1,0,49,32.36Z"/><ellipse class="cls-3" cx="41.3" cy="82.13" rx="33.21" ry="2.73"/><path class="cls-4" d="M63.68,57.74,41.12,71,18.55,57.74a.06.06,0,0,1,0,0c0-.08,1.26-1.12,3.16-2.67l.05,0C28,49.93,41.12,39.57,41.12,39.57S54.23,49.93,60.46,55c1.93,1.56,3.2,2.62,3.22,2.71Z"/><path class="cls-5" d="M50.39,34.34H26.05a3.78,3.78,0,0,0-3.78,3.78V74.93a3.78,3.78,0,0,0,3.78,3.78h30.5a3.79,3.79,0,0,0,3.79-3.78V44.28Z"/><path class="cls-6" d="M50.39,40.5a3.79,3.79,0,0,0,3.79,3.78h6.16l-10-9.94Z"/><rect class="cls-7" x="28.03" y="40.56" width="11.09" height="11.09" rx="1.35"/><path class="cls-8" d="M49.28,54.74H29.13A1.08,1.08,0,0,0,28,55.82h0a1.09,1.09,0,0,0,1.09,1.09H49.28a1.08,1.08,0,0,0,1.08-1.09h0A1.08,1.08,0,0,0,49.28,54.74Z"/><path class="cls-8" d="M49.28,60.14H29.13A1.09,1.09,0,0,0,28,61.23h0a1.08,1.08,0,0,0,1.09,1.08H49.28a1.08,1.08,0,0,0,1.08-1.08h0A1.08,1.08,0,0,0,49.28,60.14Z"/><path class="cls-9" d="M63.68,57.74V79.38a2.75,2.75,0,0,1-2.75,2.75H21.3a2.75,2.75,0,0,1-2.75-2.75V57.74L41.12,71Z"/><path class="cls-10" d="M62.92,81.27,48.4,66.75,41.12,71l-7.28-4.29L19.31,81.27a2.73,2.73,0,0,0,2,.86H60.93A2.73,2.73,0,0,0,62.92,81.27Z"/><path class="cls-11" d="M60.6,18.09A32.39,32.39,0,0,1,72.55,36.37l0,.19"/><path class="cls-11" d="M51.31,13.19a32,32,0,0,1,5.88,2.64"/><path class="cls-12" d="M47.34,31.38a10.39,10.39,0,0,0,.19,13.32,10.28,10.28,0,0,0,6,3.4,2.53,2.53,0,0,1,1.87,1.53l.81,2,1.75-3a2.56,2.56,0,0,1,1.25-1.07A10.35,10.35,0,1,0,47.34,31.38Z"/><path class="cls-8" d="M59.24,41.44v-.8s-1.07-.43-1-3a3.48,3.48,0,0,0-1.17-3,3,3,0,0,0-3.67,0,3.48,3.48,0,0,0-1.18,3c.07,2.61-1,3-1,3v.8Z"/><path class="cls-8" d="M53.68,42.09a1.57,1.57,0,0,0,3.1,0Z"/><path class="cls-8" d="M56,33v.5a3.48,3.48,0,0,0-1.54,0V33A.77.77,0,1,1,56,33Z"/></g></svg>