<?xml version="1.0" encoding="UTF-8" standalone="no"?>
<svg
   xmlns:dc="http://purl.org/dc/elements/1.1/"
   xmlns:cc="http://creativecommons.org/ns#"
   xmlns:rdf="http://www.w3.org/1999/02/22-rdf-syntax-ns#"
   xmlns:svg="http://www.w3.org/2000/svg"
   xmlns="http://www.w3.org/2000/svg"
   xmlns:sodipodi="http://sodipodi.sourceforge.net/DTD/sodipodi-0.dtd"
   xmlns:inkscape="http://www.inkscape.org/namespaces/inkscape"
   viewBox="0 0 13.78 121.93537"
   version="1.1"
   id="svg9"
   sodipodi:docname="ondaVertical.svg"
   inkscape:version="0.92.5 (2060ec1f9f, 2020-04-08)"
   width="13.78"
   height="121.93537">
  <metadata
     id="metadata13">
    <rdf:RDF>
      <cc:Work
         rdf:about="">
        <dc:format>image/svg+xml</dc:format>
        <dc:type
           rdf:resource="http://purl.org/dc/dcmitype/StillImage" />
        <dc:title></dc:title>
      </cc:Work>
    </rdf:RDF>
  </metadata>
  <sodipodi:namedview
     pagecolor="#ffffff"
     bordercolor="#666666"
     borderopacity="1"
     objecttolerance="10"
     gridtolerance="10"
     guidetolerance="10"
     inkscape:pageopacity="0"
     inkscape:pageshadow="2"
     inkscape:window-width="1280"
     inkscape:window-height="987"
     id="namedview11"
     showgrid="false"
     inkscape:snap-page="false"
     inkscape:snap-nodes="true"
     inkscape:zoom="2.8308824"
     inkscape:cx="8.2261333"
     inkscape:cy="60.686193"
     inkscape:window-x="0"
     inkscape:window-y="0"
     inkscape:window-maximized="1"
     inkscape:current-layer="svg9"
     fit-margin-top="0"
     fit-margin-left="0"
     fit-margin-right="0"
     fit-margin-bottom="0" />
  <defs
     id="defs4">
    <style
       id="style2">.cls-1{fill:none;stroke:#60d5fd;stroke-linecap:round;stroke-linejoin:round;stroke-width:4.59px;}</style>
  </defs>
  <g
     id="DESIGNED_BY_FREEPIK"
     data-name="DESIGNED BY FREEPIK"
     transform="rotate(90,18.128657,12.186343)">
    <path
       class="cls-1"
       d="m 8.27,18.85 c 6.51,0 6.51,9.17 13,9.17 6.49,0 6.51,-9.17 13,-9.17 6.49,0 6.56,9.15 13.08,9.15 6.52,0 6.51,-9.17 13,-9.17 6.49,0 6.54,9.17 13.06,9.17 6.52,0 6.51,-9.17 13,-9.17 6.49,0 6.59,9.17 13.06,9.17 6.47,0 6.51,-9.17 13,-9.17 6.49,0 6.53,9.17 13.08,9.17"
       id="path6"
       inkscape:connector-curvature="0"
       style="fill:none;stroke:#60d5fd;stroke-width:4.59000015px;stroke-linecap:round;stroke-linejoin:round" />
  </g>
</svg>
