<svg xmlns="http://www.w3.org/2000/svg" viewBox="0 0 500 500"><defs><style>.cls-1{opacity:0.24;}.cls-2{opacity:0.41;}.cls-3,.cls-5,.cls-6{fill:#00c4ff;}.cls-4{opacity:0.31;}.cls-5{opacity:0.47;}.cls-6{opacity:0.81;}.cls-16,.cls-7{fill:#9660fd;}.cls-8{fill:#ff3881;}.cls-9{fill:#3e479b;opacity:0.14;}.cls-10{fill:#73dfff;}.cls-11,.cls-26{fill:#fff;}.cls-12{fill:#ff80af;}.cls-13{fill:#6084fd;}.cls-14{fill:#ecf1f7;opacity:0.07;}.cls-15{fill:#3563fd;}.cls-16{opacity:0.74;}.cls-17{fill:#d0b9fd;}.cls-18{fill:#793ee8;}.cls-19{fill:#8444fd;}.cls-20{fill:#63daff;}.cls-21{fill:#009dff;}.cls-22{fill:#00bcf5;}.cls-23{fill:#00aade;}.cls-24{fill:#f28393;}.cls-25{fill:#ff639d;}.cls-26{opacity:0.36;}</style></defs><g id="BACKGROUND"><g class="cls-1"><g class="cls-2"><path class="cls-3" d="M477.64,290.44a129.59,129.59,0,0,0-.59-22.11c-3.91-34.45-21.58-66.93-47.59-89.85-9.28-8.18-19.84-15.51-25.88-26.3-10.17-18.18-9.4-39.07-22-57A106.74,106.74,0,0,0,329.73,56C267.8,34.53,181.11,69.46,188.91,144.07c0,.27.06.66.09,1.15a27.16,27.16,0,0,1-26.6,28.9c-57.14,1.35-106.32,45.41-116.84,101.21-6.77,35.88,4.31,75.21,30.56,100.6,19.59,18.95,45.89,29.36,72.19,36.51,52.74,14.35,108.24,17.35,162.61,11.87,50.91-5.14,104.6-19.77,137.52-58.93C466,344.49,476.06,317.7,477.64,290.44Z"/></g><g class="cls-4"><circle class="cls-3" cx="215.95" cy="37.35" r="13.29" transform="translate(144.63 244.57) rotate(-80.82)"/></g><g class="cls-4"><circle class="cls-3" cx="395.57" cy="29.24" r="6.86"/></g><g class="cls-4"><circle class="cls-3" cx="153.45" cy="67.11" r="9.19" transform="translate(51.21 199.76) rotate(-76)"/></g><g class="cls-4"><circle class="cls-3" cx="47.47" cy="400.44" r="20.93"/></g></g><g class="cls-1"><path class="cls-5" d="M489.31,91.87A23.67,23.67,0,0,0,479.07,60c-11.62-6-33.95-5.52-39.92,6.1s11.92,21.59,19.22,32.43C468.54,113.66,483.34,103.49,489.31,91.87Z"/><path class="cls-5" d="M438.5,449a18.12,18.12,0,0,0,25.05-5.4c5.43-8.41,6.78-25.46-1.62-30.89s-17.37,7.45-26.18,12.19C423.45,431.53,430.09,443.59,438.5,449Z"/><path class="cls-5" d="M95.33,38.55A22.85,22.85,0,0,0,63,39.74C54.45,49,49,69.88,58.27,78.46S81.47,73,93.45,69.08C110.17,63.57,104.58,47.14,95.33,38.55Z"/><path class="cls-5" d="M44.36,138.38a94.15,94.15,0,0,0-6.54,57.82c4.65,22.68,18.77,40.1,13.87,64.29-3,14.74-3.73,28.39-5.25,43C43.34,333.4,62.77,359.78,86.89,374c19.59,11.57,42.55,15.91,65.07,15.6,20.27-.28,40.5-4,60.14-9.05,18.93-4.85,37.43-11.24,57.27-9.23,16.5,1.68,31.36,8.81,46.73,14.13,36.68,12.7,81.12,14.49,114.67-4.84a96.77,96.77,0,0,0,45.29-105.39C472,257.1,465,238.81,467.17,219.9c1.5-13.17,7.53-25.89,6.42-39.11-.73-8.78-4.6-17-9.33-24.45C447,129.19,418.1,111,387.52,101c-28.77-9.43-58.44-16.25-88.4-14-61.93,4.69-74.56-5.14-137.86-18.68-40.86-8.74-86.57,22.41-110.48,58.5A86.35,86.35,0,0,0,44.36,138.38Z"/><path class="cls-6" d="M87,166.27c-1.27,14.29,3.55,29-.48,43.18C81.67,226.39,67.7,239.08,62,255.72c-8.41,24.58-8,52.13,2.21,76.09,4.92,11.54,12.11,22.27,21.93,29.69,15.14,11.44,35,13.95,53.63,12.5,27.77-2.16,57.06-14.18,85-10.9,15.4,1.81,20.1,18.48,28.06,29.48a92.13,92.13,0,0,0,34.8,28.71c24.95,12,54.9,13.11,80.4,2.25,27.23-11.6,51-39.91,49.4-71.94-.73-14.81-6.66-29.53-3.91-44.09,3.45-18.26,17.21-34.91,27.19-49.8a114.92,114.92,0,0,0,19-56c0-.23,0-.45,0-.68,2-34.5-19.72-66-52.55-76.77l-69.86-23C266.43,77.93,195.61,78.7,130.43,112.92c-14.1,7.4-37.07,29.46-41.8,44.67A41.68,41.68,0,0,0,87,166.27Z"/></g><circle class="cls-7" cx="467.65" cy="381.58" r="4.5"/><circle class="cls-7" cx="259.77" cy="30.86" r="4.5"/><circle class="cls-3" cx="97.21" cy="423.08" r="4.5"/><circle class="cls-8" cx="381.24" cy="442" r="3.5"/><circle class="cls-3" cx="77.34" cy="107.5" r="1.5"/><path class="cls-8" d="M396.86,62.76a5.4,5.4,0,1,1-4.15-6.42A5.4,5.4,0,0,1,396.86,62.76Z"/><path class="cls-8" d="M108.07,37.92a2.12,2.12,0,1,1-1.63-2.51A2.11,2.11,0,0,1,108.07,37.92Z"/><path class="cls-3" d="M445.83,29a1.8,1.8,0,1,1-1.38-2.14A1.81,1.81,0,0,1,445.83,29Z"/><path class="cls-8" d="M64.78,458.64a1.8,1.8,0,1,1-1.39-2.13A1.8,1.8,0,0,1,64.78,458.64Z"/></g><g id="OBJECTS"><rect class="cls-9" x="275.36" y="211.15" width="176.9" height="130.91" rx="1.85" transform="translate(-59.65 448.48) rotate(-59.34)"/><rect class="cls-10" x="272.52" y="205.18" width="176.9" height="130.91" rx="1.85" transform="translate(-55.91 443.11) rotate(-59.34)"/><path class="cls-9" d="M402,377.32,276.91,354.27a1.86,1.86,0,0,1-1.49-2.16l31.4-170.33a1.85,1.85,0,0,1,2.15-1.49l125.1,23.06a1.86,1.86,0,0,1,1.49,2.16l-31.4,170.33A1.84,1.84,0,0,1,402,377.32Z"/><rect class="cls-11" x="264.36" y="208.57" width="176.9" height="130.91" transform="translate(19.38 571.31) rotate(-79.56)"/><rect class="cls-12" x="264.36" y="208.57" width="176.9" height="130.91" rx="1.85" transform="translate(19.38 571.31) rotate(-79.56)"/><path class="cls-11" d="M413.74,219.39h-.19l-31.31-5.78a1,1,0,0,1,.36-2l31.32,5.77a1,1,0,0,1-.18,2Z"/><path class="cls-11" d="M411.89,229.4l-.18,0-31.32-5.77a1,1,0,0,1,.37-2l31.31,5.77a1,1,0,0,1-.18,2Z"/><path class="cls-11" d="M409.89,240.27l-.18,0-31.32-5.77a1,1,0,0,1,.36-2l31.32,5.78a1,1,0,0,1-.18,2Z"/><rect class="cls-9" x="308.95" y="184.47" width="62.68" height="58.56" rx="2" transform="translate(68.4 509.66) rotate(-79.56)"/><rect class="cls-13" x="309.51" y="184.16" width="59.56" height="56.02" rx="2" transform="translate(69.14 507.37) rotate(-79.56)"/><path class="cls-14" d="M370.92,195.08l-55.09-10.15,1-5.21a1.94,1.94,0,0,1,2.27-1.56l51.33,9.46a1.88,1.88,0,0,1,1.51,2.18Z"/><path class="cls-15" d="M331.24,212.1a6.71,6.71,0,0,1-1.17-.11l-.76-.14a7.49,7.49,0,0,1-6-8.7l1.93-10.44a1.5,1.5,0,0,1,2.95.54l-1.93,10.44a4.49,4.49,0,0,0,3.59,5.21l.76.14a3.48,3.48,0,0,0,4.05-2.79l4.87-26.42a3.59,3.59,0,0,0-2.88-4.18l-1.3-.24a3.82,3.82,0,0,0-4.44,3.06l-.12.65a1.5,1.5,0,0,1-3-.54l.12-.66a6.82,6.82,0,0,1,7.93-5.46l1.31.24a6.59,6.59,0,0,1,5.28,7.67l-4.87,26.43A6.5,6.5,0,0,1,331.24,212.1Z"/><path class="cls-11" d="M336.45,189.91h-.09l-20-3.68a.5.5,0,0,1,.18-1l20,3.69a.5.5,0,0,1-.09,1Z"/><path class="cls-11" d="M397.57,293.25l-.18,0-95.68-17.64a1,1,0,1,1,.36-2l95.68,17.63a1,1,0,0,1-.18,2Z"/><path class="cls-11" d="M390.73,330.36a.55.55,0,0,1-.18,0l-95.68-17.63a1,1,0,1,1,.36-2l95.68,17.64a1,1,0,0,1-.18,2Z"/><path class="cls-11" d="M343.7,302.5h-.18l-45.23-8.34a1,1,0,1,1,.36-2l45.23,8.34a1,1,0,0,1-.18,2Z"/><path class="cls-11" d="M349.93,268.69h-.18l-45.23-8.34a1,1,0,0,1,.36-2l45.23,8.34a1,1,0,0,1-.18,2Z"/><path class="cls-11" d="M394.18,311.66a.55.55,0,0,1-.18,0l-43.1-7.94a1,1,0,0,1,.36-2l43.1,7.95a1,1,0,0,1-.18,2Z"/><rect class="cls-3" x="327.53" y="90.65" width="59.85" height="24.45" rx="3.33"/><rect class="cls-8" x="346.39" y="108.64" width="81.05" height="33.12" rx="3.33"/><rect class="cls-7" x="361.67" y="134.76" width="91.42" height="34.28" rx="4.52"/><rect class="cls-16" x="361.67" y="134.76" width="91.42" height="34.28" rx="4.52"/><path class="cls-11" d="M424.08,155.92a4,4,0,1,1,4-4A4,4,0,0,1,424.08,155.92Zm0-6.95a3,3,0,1,0,3,3A3,3,0,0,0,424.08,149Z"/><path class="cls-11" d="M407.69,155.92a4,4,0,1,1,4-4A4,4,0,0,1,407.69,155.92Zm0-6.95a3,3,0,1,0,3,3A3,3,0,0,0,407.69,149Z"/><path class="cls-11" d="M392.41,155.92a4,4,0,1,1,4-4A4,4,0,0,1,392.41,155.92Zm0-6.95a3,3,0,1,0,3,3A3,3,0,0,0,392.41,149Z"/><path class="cls-11" d="M152.38,94.8H280a4.65,4.65,0,0,1,4.65,4.65v188a16.06,16.06,0,0,1-16.06,16.06H180a34.22,34.22,0,0,1-34.22-34.22V101.4A6.6,6.6,0,0,1,152.38,94.8Z"/><path class="cls-17" d="M147.39,94.8H282.18a2.48,2.48,0,0,1,2.49,2.49V288.2a15.3,15.3,0,0,1-15.31,15.31H177a31.18,31.18,0,0,1-31.18-31.17V96.42A1.62,1.62,0,0,1,147.39,94.8Z"/><path class="cls-7" d="M159.21,94.8H282.7a2,2,0,0,1,2,2v192a14.79,14.79,0,0,1-14.79,14.79H188.76a30.65,30.65,0,0,1-30.65-30.65V95.9A1.1,1.1,0,0,1,159.21,94.8Z"/><path class="cls-18" d="M177.49,303.48v0H289.06a23.25,23.25,0,0,0,23.25-23.25v-8.83H199.48v8.83A23.25,23.25,0,0,1,177.49,303.48Z"/><path class="cls-19" d="M192.28,303.48v0h99.33c11.43,0,20.7-10.41,20.7-23.25v-8.83H211.86v8.83C211.86,292.68,203.19,302.82,192.28,303.48Z"/><path class="cls-11" d="M263.59,247.37H183.37a1,1,0,0,1,0-2h80.22a1,1,0,0,1,0,2Z"/><path class="cls-11" d="M265.27,213.6h-83.4a1,1,0,0,1,0-2h83.4a1,1,0,0,1,0,2Z"/><path class="cls-11" d="M223.48,230.47H180.86a1,1,0,0,1,0-2h42.62a1,1,0,0,1,0,2Z"/><path class="cls-11" d="M220.25,230.47H184.09a1,1,0,0,1,0-2h36.16a1,1,0,0,1,0,2Z"/><path class="cls-11" d="M237.35,177.48h-54.9a1,1,0,0,1,0-2h54.9a1,1,0,0,1,0,2Z"/><path class="cls-11" d="M262.8,177.48H246.08a1,1,0,0,1,0-2H262.8a1,1,0,0,1,0,2Z"/><path class="cls-11" d="M265.27,194.36H205.82a1,1,0,0,1,0-2h59.45a1,1,0,0,1,0,2Z"/><path class="cls-11" d="M200,194.36H181.87a1,1,0,0,1,0-2H200a1,1,0,0,1,0,2Z"/><path class="cls-11" d="M263.59,163.2H183.37a1,1,0,0,1,0-2h80.22a1,1,0,0,1,0,2Z"/><path class="cls-11" d="M263.59,129.42H183.37a1,1,0,1,1,0-2h80.22a1,1,0,1,1,0,2Z"/><path class="cls-11" d="M212.81,146.29H182.45a1,1,0,0,1,0-2h30.36a1,1,0,0,1,0,2Z"/><path class="cls-11" d="M263,146.29H226.82a1,1,0,0,1,0-2H263a1,1,0,0,1,0,2Z"/><path class="cls-20" d="M454.91,313.37a13.79,13.79,0,0,1,0,19.36c-5.26,5.31-67.45-57-63.78-62l.38-.4.12-.13.55-.55.65-.65.65-.65c.29-.3.59-.59.89-.88,1.06-1,2.11-2,3.09-2.89l.82-.72.16-.14.55-.47c.18-.16.36-.31.53-.44l.86-.69c.34-.27.66-.5.94-.69l.23-.15.2-.13A1.19,1.19,0,0,1,402,261l.19-.1c.37-.19.62-.24.74-.12Z"/><path class="cls-3" d="M391.13,270.71c-3.67,5,58.52,67.33,63.78,62a13.45,13.45,0,0,1-19.15,0l-52-52.58c-.16-.17,0-.6.35-1.23A60.7,60.7,0,0,1,391.13,270.71Z"/><path class="cls-21" d="M409.69,212.73a73.54,73.54,0,0,1-15.39,45.11l-.3.24-4.69,4.69-8.54,8.55a73.84,73.84,0,0,1-110.62-24.77,18.1,18.1,0,0,0,8.22-7.26,63.31,63.31,0,1,0-5.83-26.56c0,.68,0,1.36,0,2a17.92,17.92,0,0,0-9.72-2.84H262a73.86,73.86,0,0,1,147.71.81Z"/><path class="cls-20" d="M402.16,260.91l-.19.1A1.18,1.18,0,0,1,402.16,260.91Z"/><path class="cls-20" d="M401.75,261.13l-.2.13Z"/><path class="cls-22" d="M398,258.08l3.32,3.33c-.28.19-.6.42-.94.69s-.56.43-.86.69-.35.28-.53.44l-.55.47-.16.14-.82.72c-1,.88-2,1.86-3.09,2.89-.3.29-.6.58-.89.88s-.44.42-.65.65-.43.42-.65.65l-2.87-2.87a2.82,2.82,0,0,1,0-4l4.69-4.69.3-.24A2.82,2.82,0,0,1,398,258.08Z"/><path class="cls-20" d="M400.38,262.1l-.86.69C399.82,262.53,400.11,262.3,400.38,262.1Z"/><path class="cls-20" d="M399,263.23l-.55.47Z"/><path class="cls-20" d="M397.46,264.56l.82-.72Z"/><path class="cls-20" d="M394.37,267.45c-.3.29-.6.58-.89.88C393.77,268,394.07,267.74,394.37,267.45Z"/><path class="cls-20" d="M393.48,268.33l-.65.65C393,268.75,393.26,268.54,393.48,268.33Z"/><path class="cls-20" d="M392.83,269l-.65.65C392.4,269.4,392.61,269.18,392.83,269Z"/><path class="cls-20" d="M392.18,269.63l-.55.55Z"/><path class="cls-23" d="M389.31,266.76l2.87,2.87-.55.55-.12.13-.33.33-.05.07a60.7,60.7,0,0,0-7,8.21l-3.47-3.47a2.84,2.84,0,0,1,0-4l.14-.13,8.54-8.55A2.82,2.82,0,0,0,389.31,266.76Z"/><path class="cls-20" d="M391.51,270.31l-.38.4.05-.07Z"/><path class="cls-11" d="M340.13,155.38a4,4,0,0,1,0,8,50,50,0,0,0-49.9,49.9,4,4,0,0,1-8,0A58,58,0,0,1,340.13,155.38Z"/><path class="cls-3" d="M280.94,230a17.87,17.87,0,0,1-2.57,9.28,62.93,62.93,0,0,1-5.8-24.53A18.07,18.07,0,0,1,280.94,230Z"/><path class="cls-3" d="M278.37,239.29a18.1,18.1,0,0,1-8.22,7.26q-1.51-2.94-2.76-6a1.15,1.15,0,0,0,.26-.19,1,1,0,0,0,0-1.42l-1.42-1.42a70.43,70.43,0,0,1-2.52-8.8,2.44,2.44,0,0,0,0-.27,7.81,7.81,0,0,0-.71-3.27,74.82,74.82,0,0,1-1-12.43c0-.27,0-.54,0-.81h.87a17.92,17.92,0,0,1,9.72,2.84A62.93,62.93,0,0,0,278.37,239.29Z"/><path class="cls-11" d="M267.65,238.92a1,1,0,0,1,0,1.42,1.15,1.15,0,0,1-.26.19c-.42-1-.8-2-1.16-3Z"/><path class="cls-3" d="M267.39,240.53q1.25,3.08,2.76,6a18,18,0,0,1-7.3,1.54H235l-.13-36.17H262c0,.27,0,.54,0,.81a74.82,74.82,0,0,0,1,12.43,7.9,7.9,0,1,0-2.39,9.56l5.61,5.62a1,1,0,0,0,.71.29A1.14,1.14,0,0,0,267.39,240.53Z"/><path class="cls-11" d="M267.39,240.53a1.14,1.14,0,0,1-.45.1,1,1,0,0,1-.71-.29l-5.61-5.62a7.36,7.36,0,0,0,.79-.69c.22-.23.43-.46.63-.71l4.19,4.18C266.59,238.52,267,239.53,267.39,240.53Z"/><path class="cls-3" d="M266.23,237.5,262,233.32a7.85,7.85,0,0,0,1.67-4.62A70.43,70.43,0,0,0,266.23,237.5Z"/><path class="cls-11" d="M263.72,228.43a2.44,2.44,0,0,1,0,.27c-.27-1.17-.5-2.35-.7-3.54A7.81,7.81,0,0,1,263.72,228.43Z"/><path class="cls-11" d="M263,225.16c.2,1.19.43,2.37.7,3.54a7.85,7.85,0,0,1-1.67,4.62l-.67-.67a1,1,0,1,0-1.41,1.41l.66.66a7.92,7.92,0,1,1,2.39-9.56Zm-3,7.45a5.84,5.84,0,0,0,1.73-4.18,5.91,5.91,0,1,0-5.91,5.91A5.84,5.84,0,0,0,260,232.61Z"/><path class="cls-11" d="M261.37,232.65l.67.67c-.2.25-.41.48-.63.71a7.36,7.36,0,0,1-.79.69l-.66-.66a1,1,0,1,1,1.41-1.41Z"/><path class="cls-3" d="M261.72,228.43a5.91,5.91,0,0,1-5.91,5.91,5.91,5.91,0,1,1,5.91-5.91Z"/><path class="cls-20" d="M234.91,211.92l.13,36.17H91.88a18.09,18.09,0,0,1,0-36.17Z"/><path class="cls-12" d="M255.56,291.12h-85.1a10.79,10.79,0,0,1-10.79-10.78v-7.07a10.82,10.82,0,0,0-10.82-10.83H109.54a10.83,10.83,0,0,0-10.82,10.83V385.6a10.08,10.08,0,0,0,10.08,10.08H255.56a10.08,10.08,0,0,0,10.08-10.08V301.2A10.09,10.09,0,0,0,255.56,291.12Z"/><path class="cls-24" d="M246.18,291.12h-85.1a10.78,10.78,0,0,1-10.78-10.78v-7.07a10.83,10.83,0,0,0-10.83-10.83h-39.3a10.83,10.83,0,0,0-10.83,10.83V385.6a10.08,10.08,0,0,0,10.09,10.08H246.18a10.08,10.08,0,0,0,10.08-10.08V301.2A10.08,10.08,0,0,0,246.18,291.12Z"/><path class="cls-25" d="M246.18,291.12h-85.1a10.78,10.78,0,0,1-10.78-10.78v-7.07a10.83,10.83,0,0,0-10.83-10.83h-39.3a10.83,10.83,0,0,0-10.83,10.83V385.6a10.08,10.08,0,0,0,10.09,10.08H246.18a10.08,10.08,0,0,0,10.08-10.08V301.2A10.08,10.08,0,0,0,246.18,291.12Z"/><path class="cls-8" d="M224.6,291.12H151.21c-5.14,0-9.3-4.83-9.3-10.78v-7.07c0-6-4.18-10.83-9.34-10.83H98.68c-5.16,0-9.34,4.85-9.34,10.83V385.6c0,5.57,3.9,10.08,8.7,10.08H224.6c4.8,0,8.69-4.51,8.69-10.08V301.2C233.29,295.64,229.4,291.12,224.6,291.12Z"/><path class="cls-11" d="M97.21,302.35a1,1,0,0,1-1-1V276.81a6.9,6.9,0,0,1,6.89-6.89h29a1,1,0,0,1,0,2h-29a4.9,4.9,0,0,0-4.89,4.89v24.54A1,1,0,0,1,97.21,302.35Z"/><circle class="cls-26" cx="335.83" cy="212.73" r="63.29"/></g></svg>