<svg xmlns="http://www.w3.org/2000/svg" viewBox="0 0 47 48"><defs><style>.cls-1{fill:#fa3862;}.cls-2{fill:#fff;}</style></defs><g id="DESIGNED_BY_FREEPIK" data-name="DESIGNED BY FREEPIK"><circle class="cls-1" cx="22.99" cy="24.39" r="22.66"/><path class="cls-2" d="M29.9,20.89H11.2l3.94-4.41a.69.69,0,0,0-1-.92l-4.43,5a1.59,1.59,0,0,0,0,2.12l4.43,5a.71.71,0,0,0,.52.23.69.69,0,0,0,.46-.18.69.69,0,0,0,.06-1l-3.94-4.4H29.9a5.43,5.43,0,0,1,0,10.86H26.6a.7.7,0,0,0,0,1.39h3.3a6.82,6.82,0,0,0,0-13.64Z"/></g></svg>